<svg width="393" height="362" viewBox="0 0 393 362" fill="none" xmlns="http://www.w3.org/2000/svg">
<path d="M170.233 356.123L160.999 356.123L156.607 324.074L170.235 324.075L170.233 356.123Z" fill="#A0616A"/>
<path d="M138.598 355.935C138.31 356.371 138.159 357.777 138.159 358.284C138.159 359.841 139.562 361.104 141.292 361.104H169.888C171.068 361.104 172.025 360.242 172.025 359.18V358.108C172.025 358.108 173.44 354.889 170.528 350.92C170.528 350.92 166.908 354.028 161.499 349.161L159.904 346.561L148.359 354.159L141.959 354.867C140.559 355.023 139.318 354.843 138.598 355.935Z" fill="#2F2E41"/>
<path d="M128.862 356.123L119.628 356.123L115.236 324.074L128.864 324.075L128.862 356.123Z" fill="#A0616A"/>
<path d="M97.2268 355.935C96.9393 356.371 96.7876 357.777 96.7876 358.284C96.7876 359.841 98.1906 361.104 99.9215 361.104H128.517C129.697 361.104 130.655 360.242 130.655 359.18V358.108C130.655 358.108 132.069 354.889 129.157 350.92C129.157 350.92 125.537 354.028 120.128 349.161L118.533 346.561L106.988 354.159L100.588 354.867C99.1884 355.023 97.947 354.843 97.2268 355.935Z" fill="#2F2E41"/>
<path d="M171.026 155.061L179.622 174.884L172.906 333.221H154.101L137.177 190.355L133.147 333.705L114.879 333.221L94.9999 174.159L108.163 159.896L171.026 155.061Z" fill="#2F2E41"/>
<path d="M130.461 42.6535L153.027 41.2031L160.011 51.3561L180.965 56.6743L173.175 105.747L181.503 178.993C181.503 178.993 151.415 175.125 149.266 182.861C147.117 190.597 94.4626 175.125 94.4626 175.125L112.462 125.086L110.85 85.9245L106.014 63.2012L128.043 54.0152L130.461 42.6535Z" fill="#E6E6E6"/>
<path d="M120.252 57.1577C120.252 57.1577 102.27 56.916 99.8439 63.6846C97.4177 70.4533 89.3584 117.35 89.3584 117.35L83.1796 137.898L110.85 125.569L104.94 117.364L124.282 83.9905L120.252 57.1577Z" fill="#E6E6E6"/>
<path d="M131.253 132.338C134.226 132.341 136.991 130.799 138.147 128.334C139.021 126.47 138.938 124.681 138.284 123.148C138.495 123.069 138.703 122.987 138.919 122.918C138.602 122.803 138.295 122.672 137.987 122.541C136.916 120.621 134.863 119.227 132.417 118.888C129.387 115.968 127.525 112.055 127.506 107.749C127.466 98.8737 135.467 91.4604 145.327 91.2475C145.404 91.2458 145.482 91.2446 145.559 91.2438C149.975 91.198 153.98 93.4204 156.217 96.8461C157.522 98.845 159.934 100.187 162.698 100.187C164.813 100.187 166.722 99.3998 168.086 98.1338C171.059 95.3754 174.781 93.3229 178.993 92.6933C181.759 92.2798 184.622 92.1238 187.551 92.2548C207.603 93.1517 224.854 109.143 225.282 127.205C225.759 147.322 207.78 163.764 185.532 163.764C173.956 163.764 163.541 159.309 156.277 152.203C153.052 149.048 148.533 147.281 143.77 147.325C143.721 147.325 143.673 147.326 143.624 147.326C135.909 147.326 129.655 141.698 129.655 134.755C129.655 134.37 129.676 133.99 129.716 133.615C129.791 132.912 130.469 132.337 131.253 132.338Z" fill="#1DB8A5"/>
<path d="M391.114 266.207C390.138 264.726 385.916 266.311 385.14 264.968C384.367 263.628 388.289 261.588 390.531 256.927C390.935 256.087 393.482 250.79 391.596 249.155C388.022 246.057 371.668 258.842 365.945 254.658C364.689 253.74 363.812 251.907 360.01 248.931C358.498 247.748 357.583 247.213 356.698 247.412C355.443 247.694 355.343 249.206 353.996 252.18C351.977 256.64 350.783 256.37 349.606 259.928C348.733 262.569 348.932 264.105 347.904 264.404C346.45 264.828 345.111 262.026 343.268 262.277C341.387 262.533 340.25 265.795 339.891 268.237C339.216 272.82 341.087 275.844 342.124 279.024C343.25 282.48 343.919 287.736 341.317 295.176L315.566 360.463C321.251 347.066 337.712 310.342 344.629 296.695C346.626 292.756 348.83 288.76 353.357 287.183C357.716 285.664 363.701 286.571 371.333 284.916C372.224 284.723 374.697 284.157 375.008 282.848C375.266 281.766 373.811 281.162 374.034 280.148C374.334 278.789 377.195 278.772 380.71 277.204C383.189 276.098 384.733 274.782 386.062 273.651C386.462 273.31 392.414 268.178 391.114 266.207Z" fill="#F2F2F2"/>
<path d="M289.802 300.577C288.712 300.581 288.359 302.903 287.402 302.858C286.448 302.813 286.467 300.492 284.572 298.157C284.23 297.736 282.076 295.083 280.64 295.444C277.919 296.129 280.174 307.04 276.241 308.361C275.377 308.651 274.124 308.509 271.404 309.33C270.322 309.656 269.767 309.906 269.62 310.354C269.412 310.99 270.208 311.47 271.441 312.923C273.291 315.101 272.799 315.551 274.401 317.098C275.589 318.245 276.484 318.6 276.351 319.141C276.162 319.905 274.248 319.688 273.853 320.575C273.45 321.479 274.901 322.922 276.129 323.786C278.435 325.406 280.624 325.452 282.657 325.912C284.867 326.412 287.927 327.633 291.234 330.928L319.414 361.139C313.747 354.763 298.466 336.897 293.018 329.904C291.446 327.886 289.902 325.759 290.348 323.304C290.778 320.941 292.999 318.559 294.299 314.712C294.451 314.263 294.855 313.007 294.231 312.492C293.715 312.066 292.966 312.534 292.478 312.143C291.823 311.618 292.639 310.35 292.798 308.345C292.91 306.931 292.638 305.869 292.404 304.956C292.334 304.681 291.252 300.572 289.802 300.577Z" fill="#F2F2F2"/>
<path d="M311.533 304.967L310.877 299.695L311.177 299.295C312.564 297.447 313.271 295.642 313.28 293.929C313.281 293.657 313.267 293.384 313.253 293.107C313.196 292.007 313.126 290.64 313.918 289.047C314.362 288.158 315.609 286.102 317.485 286.356C317.99 286.42 318.372 286.629 318.662 286.873C318.704 286.812 318.748 286.751 318.795 286.685C319.379 285.883 319.841 285.539 320.287 285.208C320.629 284.954 320.983 284.691 321.537 284.07C321.78 283.798 321.97 283.559 322.13 283.358C322.615 282.749 323.249 282.024 324.366 282.036C325.56 282.087 326.185 282.976 326.599 283.564C327.339 284.613 327.674 285.369 327.896 285.87C327.977 286.053 328.069 286.259 328.116 286.323C328.5 286.832 331.628 286.356 332.806 286.183C335.452 285.786 337.742 285.442 338.685 286.944C339.362 288.018 338.859 289.439 337.148 291.279C336.615 291.852 336.048 292.287 335.544 292.628C335.961 292.852 336.335 293.196 336.486 293.736C336.843 295.014 335.622 296.294 332.86 297.546C332.174 297.859 331.25 298.277 329.956 298.478C329.346 298.572 328.797 298.595 328.328 298.608C328.318 298.852 328.254 299.117 328.089 299.389C327.604 300.191 326.594 300.573 325.072 300.481C323.397 300.402 322.018 300.115 320.802 299.863C319.739 299.644 318.824 299.458 318.106 299.501C316.773 299.598 315.746 300.558 314.541 301.802L311.533 304.967Z" fill="#F2F2F2"/>
<path d="M314.577 273.578L309.077 275.487L308.571 275.327C306.233 274.588 304.113 274.43 302.27 274.858C301.976 274.925 301.687 275.007 301.393 275.089C300.225 275.418 298.773 275.826 296.86 275.541C295.792 275.379 293.265 274.815 293.062 273.118C293.003 272.663 293.13 272.277 293.319 271.963C293.243 271.941 293.166 271.919 293.083 271.895C292.073 271.59 291.586 271.274 291.118 270.971C290.757 270.737 290.386 270.496 289.577 270.171C289.223 270.028 288.918 269.924 288.661 269.836C287.884 269.568 286.943 269.2 286.674 268.224C286.425 267.172 287.222 266.403 287.749 265.893C288.689 264.983 289.416 264.5 289.899 264.179C290.075 264.063 290.274 263.93 290.33 263.873C290.78 263.409 289.475 260.808 288.99 259.826C287.892 257.624 286.942 255.718 288.317 254.516C289.3 253.655 290.954 253.731 293.367 254.754C294.118 255.073 294.73 255.456 295.224 255.808C295.359 255.388 295.634 254.976 296.175 254.707C297.459 254.073 299.145 254.811 301.192 256.897C301.702 257.415 302.385 258.113 302.93 259.189C303.185 259.695 303.349 260.167 303.482 260.573C303.747 260.519 304.048 260.508 304.383 260.583C305.368 260.801 306.034 261.584 306.322 262.932C306.662 264.409 306.702 265.683 306.74 266.805C306.774 267.785 306.807 268.629 307.035 269.244C307.477 270.379 308.769 271.029 310.413 271.762L314.577 273.578Z" fill="#F2F2F2"/>
<path d="M311.533 258.048L310.877 252.776L311.177 252.376C312.564 250.528 313.271 248.723 313.28 247.01C313.281 246.738 313.267 246.465 313.253 246.188C313.196 245.088 313.126 243.721 313.918 242.128C314.362 241.239 315.609 239.183 317.485 239.437C317.99 239.501 318.372 239.71 318.662 239.954C318.704 239.893 318.748 239.832 318.795 239.766C319.379 238.964 319.841 238.62 320.287 238.289C320.629 238.035 320.983 237.773 321.537 237.151C321.78 236.879 321.97 236.64 322.13 236.439C322.615 235.83 323.249 235.105 324.366 235.118C325.56 235.168 326.185 236.057 326.599 236.645C327.339 237.694 327.674 238.45 327.896 238.951C327.977 239.134 328.069 239.341 328.116 239.404C328.5 239.913 331.628 239.437 332.806 239.264C335.452 238.867 337.742 238.523 338.685 240.025C339.362 241.1 338.859 242.52 337.148 244.36C336.615 244.933 336.048 245.368 335.544 245.709C335.961 245.933 336.335 246.277 336.486 246.817C336.843 248.095 335.622 249.375 332.86 250.627C332.174 250.94 331.25 251.358 329.956 251.559C329.346 251.653 328.797 251.676 328.328 251.689C328.318 251.933 328.254 252.198 328.089 252.47C327.604 253.272 326.594 253.654 325.072 253.562C323.397 253.483 322.018 253.196 320.802 252.944C319.739 252.725 318.824 252.539 318.106 252.582C316.773 252.679 315.746 253.639 314.541 254.883L311.533 258.048Z" fill="#F2F2F2"/>
<path d="M317.527 360.377L316.3 359.685L314.868 359.833C314.845 359.713 314.768 359.438 314.65 359.008C314.01 356.651 312.056 349.477 310.427 338.18C309.29 330.294 308.646 322.187 308.513 314.079C308.38 305.959 308.807 299.812 309.15 294.871C309.408 291.144 309.722 287.596 310.031 284.139C310.851 274.904 311.625 266.18 311.049 256.523C310.922 254.367 310.655 249.879 307.741 245.104C306.051 242.334 303.723 239.875 300.82 237.798L302.625 235.756C305.829 238.053 308.404 240.776 310.281 243.851C313.512 249.146 313.803 254.036 313.943 256.385C314.529 266.214 313.746 275.021 312.918 284.345C312.612 287.789 312.298 291.323 312.041 295.034C311.701 299.929 311.278 306.023 311.41 314.039C311.54 322.049 312.176 330.058 313.298 337.844C314.908 348.999 316.833 356.065 317.465 358.387C317.802 359.626 317.872 359.886 317.527 360.377Z" fill="#F2F2F2"/>
<path d="M295.508 241.94C295.389 241.94 295.269 241.937 295.147 241.929C292.68 241.81 290.396 240.481 288.356 237.981C287.4 236.805 286.911 235.464 285.935 232.788C285.783 232.376 285.048 230.284 284.601 227.405C284.308 225.523 284.345 224.737 284.759 224.042C285.219 223.268 285.963 222.729 286.8 222.365C286.764 222.115 286.793 221.858 286.914 221.596C287.407 220.509 288.72 220.651 289.43 220.72C289.789 220.761 290.237 220.814 290.721 220.791C291.482 220.758 291.891 220.555 292.51 220.249C293.103 219.956 293.84 219.592 294.933 219.391C297.089 218.987 298.895 219.536 299.491 219.717C302.624 220.656 304.168 222.848 305.956 225.386C306.312 225.895 307.536 227.748 308.343 230.289C308.926 232.121 308.844 232.936 308.669 233.542C308.312 234.787 307.471 235.499 305.334 237.072C303.102 238.719 301.981 239.544 301.02 240.046C298.781 241.209 297.375 241.94 295.508 241.94Z" fill="#F2F2F2"/>
<path d="M197.353 121.702L63.5688 98.9782L63.0315 107.681L195.741 136.206L197.353 121.702Z" fill="#1DB8A5"/>
<path d="M65.1806 100.429L63.5688 98.9783C63.5688 98.9783 56.5841 96.0774 56.5841 95.5939C56.5841 95.2913 46.2701 92.1476 38.5534 89.8379C34.2438 88.5479 29.6925 91.1005 29.0789 95.15L28.1118 101.531C27.5336 105.347 30.7329 108.781 35.0089 108.935L53.8976 109.615L63.0315 107.681L65.1806 100.429Z" fill="#1DB8A5"/>
<path d="M197.084 124.361L197.403 123.156L63.5336 100.126L63.3001 101.637L197.084 124.361Z" fill="#3F3D56"/>
<path d="M196.777 126.648L197.084 125.328L63.388 102.51L63.3001 104.055L196.777 126.648Z" fill="#3F3D56"/>
<path d="M196.471 129.389L196.547 127.261L63.2831 104.246L63.3001 105.505L196.471 129.389Z" fill="#3F3D56"/>
<path d="M196.114 132.572L196.009 130.646L63.0886 105.981L62.9743 106.453L196.114 132.572Z" fill="#3F3D56"/>
<path d="M196.111 134.502L196.009 133.063L63.2886 106.779L63.1695 107.25L196.111 134.502Z" fill="#3F3D56"/>
<path d="M119.237 54.0752L125.894 50.7583L128.781 103.813L127.774 110.34C127.774 110.34 110.968 68.6395 119.237 54.0752Z" fill="#3F3D56"/>
<path d="M142.012 37.577C151.211 37.577 158.668 30.8668 158.668 22.5893C158.668 14.3118 151.211 7.60161 142.012 7.60161C132.814 7.60161 125.357 14.3118 125.357 22.5893C125.357 30.8668 132.814 37.577 142.012 37.577Z" fill="#A0616A"/>
<path d="M127.774 31.5336L131.756 34.394L127.237 18.9633C127.237 18.9633 139.863 18.7215 140.938 12.4363C140.938 12.4363 150.878 12.1946 153.564 12.1946C156.25 12.1946 157.462 28.19 157.462 28.19C157.462 28.19 162.698 15.0955 157.325 8.32682C151.952 1.55818 153.833 5.66772 152.758 3.25035C151.683 0.832977 140.669 -1.39025 133.684 1.07471C126.7 3.53967 126.431 7.05342 124.282 7.08578C122.133 7.11814 114.611 16.7876 121.596 24.5232C128.58 32.2588 127.774 31.5336 127.774 31.5336Z" fill="#2F2E41"/>
<path d="M178.659 129.886C180.633 128.469 182.088 126.768 182.908 125.086L202.662 112.652L195.812 104.366L176.511 117.872C174.507 118.218 172.34 119.116 170.366 120.534C165.856 123.772 164.056 128.491 166.346 131.073C168.636 133.656 174.149 133.124 178.659 129.886Z" fill="#A0616A"/>
<path d="M102.976 110.972C101.511 112.824 100.632 114.819 100.358 116.639L85.1653 133.482L94.2836 139.753L108.713 121.992C110.534 121.163 112.342 119.763 113.807 117.912C117.154 113.683 117.442 108.701 114.451 106.784C111.46 104.868 106.322 106.743 102.976 110.972Z" fill="#A0616A"/>
<path d="M172.369 59.8168C172.369 59.8168 177.204 52.5647 182.04 56.916C185.866 60.3591 206.85 82.2688 215.443 91.264C217.812 93.7445 219.113 96.9051 219.113 100.176C219.113 105.236 216.008 109.882 211.042 112.255L184.189 125.086L176.667 114.933L199.77 99.9452L164.31 82.5401L172.369 59.8168Z" fill="#E6E6E6"/>
<path d="M87.4568 126.648L83.1797 137.898L95.5372 143.7L104.94 137.898L110.85 125.569L93.3881 120.976" fill="#E6E6E6"/>
<path d="M287.237 18.8211L246.647 28.7429L252.553 52.4435C250.643 51.2904 248.346 50.6164 245.873 50.6164C239.244 50.6164 233.869 55.4525 233.869 61.4182C233.869 67.3838 239.244 72.2199 245.873 72.2199C252.503 72.2199 257.877 67.3838 257.877 61.4182C257.877 59.3446 257.217 57.4145 256.091 55.7695L251.409 36.979L286.426 27.0724L289.628 41.0694C287.706 39.8928 285.386 39.2038 282.886 39.2038C276.256 39.2038 270.882 44.04 270.882 50.0056C270.882 55.9713 276.256 60.8074 282.886 60.8074C289.516 60.8074 294.89 55.9713 294.89 50.0056C294.89 47.91 294.216 45.9604 293.068 44.3043L287.237 18.8211Z" fill="#1DB8A5"/>
<path d="M327.046 40.9761C320.485 40.9761 315.167 45.762 315.167 51.6657C315.167 53.3346 315.604 54.9079 316.362 56.3153L323.142 81.482L326.99 80.6425L321.76 61.2284C323.354 61.9431 325.144 62.3554 327.046 62.3554C333.607 62.3554 338.925 57.5694 338.925 51.6657C338.925 45.7621 333.607 40.9761 327.046 40.9761Z" fill="#1DB8A5"/>
<path d="M375.39 96.4434L368.659 72.2199L364.573 73.0841L369.837 92.0314C368.218 91.3717 366.419 90.9926 364.514 90.9926C357.548 90.9926 351.901 95.9193 351.901 101.997C351.901 108.074 357.548 113.001 364.514 113.001C371.48 113.001 377.126 108.074 377.126 101.997C377.126 99.9686 376.487 98.0749 375.39 96.4434Z" fill="#1DB8A5"/>
<path d="M393 361.253C393 361.666 392.628 362 392.17 362H0V360.506H392.17C392.628 360.506 393 360.841 393 361.253Z" fill="#E6E6E6"/>
</svg>
