<svg width="391" height="277" viewBox="0 0 391 277" fill="none" xmlns="http://www.w3.org/2000/svg">
<g clip-path="url(#clip0_75_10)">
<path d="M97.686 158.628C97.6518 158.157 97.5181 157.697 97.2923 157.274C97.0665 156.851 96.7532 156.474 96.3702 156.163L90.2162 151.182C89.4934 150.596 88.5618 150.28 87.6024 150.296C86.643 150.312 85.7243 150.659 85.0247 151.269C84.9306 151.35 84.842 151.435 84.7593 151.526L68.6921 168.638L66.9339 170.507L40.052 199.138C39.3796 199.859 39.0417 200.797 39.1122 201.748C39.1827 202.699 39.6558 203.585 40.428 204.212L46.5763 209.194C47.3504 209.82 48.3602 210.135 49.3841 210.071C50.4081 210.006 51.3627 209.567 52.0389 208.85L66.9339 192.986L80.3583 178.683L96.7406 161.237C97.0754 160.882 97.3313 160.468 97.4936 160.021C97.6558 159.573 97.7212 159.1 97.686 158.628Z" fill="#1DB8A5"/>
<path d="M195.14 126.351L191.402 119.613C190.93 118.767 190.116 118.13 189.139 117.84C188.162 117.551 187.101 117.632 186.188 118.067L155.74 132.647L136.599 141.814L125.735 147.017C125.45 147.152 125.187 147.321 124.95 147.52C124.422 147.946 124.032 148.499 123.822 149.117C123.665 149.567 123.607 150.041 123.649 150.512C123.692 150.982 123.835 151.441 124.07 151.86L125.53 154.494L127.808 158.598C128.04 159.018 128.36 159.391 128.748 159.696C129.136 160.001 129.585 160.231 130.069 160.375C130.454 160.486 130.855 160.543 131.258 160.544C131.872 160.544 132.477 160.407 133.022 160.143L145.926 153.965L162.801 145.882L193.476 131.194C194.386 130.755 195.072 129.999 195.384 129.091C195.695 128.184 195.608 127.199 195.14 126.351Z" fill="#1DB8A5"/>
<path d="M162.966 146.205L162.801 145.882L156.265 133.376C155.803 132.527 154.998 131.881 154.026 131.579C153.54 131.428 153.027 131.369 152.516 131.406C152.005 131.442 151.507 131.572 151.052 131.79L135.106 140.767L124.49 146.745C124.41 146.782 124.335 146.831 124.269 146.888C123.661 147.397 123.335 148.701 123.07 149.769C122.975 150.139 122.898 150.463 122.821 150.673C122.793 150.761 122.76 150.853 122.738 150.946C122.516 151.776 122.622 152.652 123.036 153.416L124.341 155.835L126.696 160.19C127.02 160.787 127.517 161.289 128.13 161.64C128.743 161.991 129.449 162.177 130.169 162.177C130.761 162.177 131.344 162.046 131.872 161.797L146.722 156.353L161.241 151.028C162.157 150.599 162.853 149.851 163.176 148.948C163.5 148.044 163.424 147.058 162.966 146.205Z" fill="#DB331D"/>
<path d="M110.293 126.873C126.636 126.873 139.884 114.568 139.884 99.3877C139.884 84.2078 126.636 71.9021 110.293 71.9021C93.9508 71.9021 80.7026 84.2078 80.7026 99.3877C80.7026 114.568 93.9508 126.873 110.293 126.873Z" fill="#1DB8A5"/>
<path d="M111.149 209.055C111.121 208.357 110.872 207.682 110.435 207.113C109.998 206.545 109.391 206.107 108.689 205.856C108.243 205.692 107.769 205.609 107.29 205.609H99.1291C98.103 205.61 97.1192 205.99 96.3936 206.663C95.668 207.337 95.2599 208.251 95.2588 209.204V273.405C95.2599 274.358 95.668 275.272 96.3936 275.946C97.1192 276.62 98.103 276.999 99.1291 277H107.29C108.316 276.999 109.3 276.62 110.025 275.946C110.751 275.272 111.159 274.358 111.16 273.405V209.204C111.162 209.154 111.159 209.105 111.149 209.055Z" fill="#1DB8A5"/>
<path d="M148.227 237.723C148.115 237.478 147.974 237.245 147.806 237.029L133.895 218.952L122.434 204.064H102.883L104.266 205.856L106.726 209.055L114.35 218.957L130.689 240.183L134.874 245.616C135.47 246.391 136.374 246.915 137.386 247.072C138.397 247.229 139.435 247.006 140.27 246.453L146.91 242.042C147.624 241.567 148.143 240.881 148.382 240.096C148.621 239.311 148.566 238.474 148.227 237.723ZM108.252 185.637C107.654 184.862 106.749 184.339 105.736 184.183C104.724 184.027 103.686 184.251 102.85 184.805L96.21 189.211C95.3759 189.767 94.8132 190.607 94.6453 191.548C94.4773 192.489 94.7179 193.453 95.3142 194.229L97.7469 197.387H117.297L108.252 185.637Z" fill="#1DB8A5"/>
<path d="M148.353 237.897C148.314 237.837 148.272 237.779 148.226 237.723C147.713 237.075 147.037 236.553 146.258 236.202L138.954 232.828C137.041 231.945 134.984 232.161 134.371 233.311L130.688 240.183L115.544 268.439C114.925 269.589 115.981 271.243 117.889 272.126L125.193 275.506C125.918 275.849 126.717 276.035 127.531 276.05C128.56 276.05 129.417 275.696 129.776 275.023L148.602 239.895C148.751 239.57 148.806 239.216 148.762 238.865C148.718 238.515 148.578 238.182 148.353 237.897Z" fill="#1DB8A5"/>
<path d="M104.614 150.18L103.386 149.061L102.706 148.429L98.8029 144.86C98.1466 144.26 97.2826 143.896 96.3645 143.833C96.2595 143.828 96.1599 143.822 96.0549 143.822C95.8227 143.827 95.4688 143.797 95.0541 143.766C93.7439 143.663 92.1074 143.53 91.5378 144.074L83.9797 150.144L68.0064 162.968C67.4268 163.511 67.0507 164.214 66.9339 164.971C66.9024 165.153 66.8876 165.336 66.8896 165.52C66.8904 165.684 66.9052 165.847 66.9339 166.008C67.0513 166.786 67.4419 167.507 68.045 168.057L68.6922 168.638L79.1197 177.923C79.8511 178.59 80.837 178.961 81.8621 178.955C82.3096 178.955 82.7534 178.88 83.1725 178.734C83.7128 178.549 84.202 178.254 84.6044 177.872L102.778 157.375L103.967 156.035L104.653 155.265C105.372 154.585 105.772 153.668 105.765 152.715C105.758 151.762 105.344 150.85 104.614 150.18Z" fill="#DB331D"/>
<path d="M106.354 109.575L106.323 108.548C108.381 108.494 110.194 108.374 111.557 107.45C111.943 107.173 112.261 106.821 112.488 106.42C112.715 106.019 112.847 105.577 112.874 105.124C112.898 104.847 112.853 104.569 112.742 104.312C112.632 104.054 112.458 103.823 112.236 103.638C111.332 102.928 109.876 103.158 108.815 103.609L107.9 103.999L109.655 92.0894L110.75 92.2288L109.258 102.36C110.699 101.966 112.035 102.135 112.95 102.853C113.301 103.138 113.577 103.494 113.755 103.895C113.934 104.295 114.01 104.728 113.979 105.16C113.946 105.768 113.771 106.363 113.466 106.902C113.16 107.44 112.731 107.911 112.209 108.279C110.458 109.468 108.183 109.527 106.354 109.575Z" fill="#2F2E41"/>
<path d="M122.124 93.1025H116.168V94.1297H122.124V93.1025Z" fill="#2F2E41"/>
<path d="M103.325 93.1025H97.3696V94.1297H103.325V93.1025Z" fill="#2F2E41"/>
<path d="M107.553 58.211C104.272 45.9937 91.5527 36.613 77.924 36.8464C71.1769 37.0223 64.6704 39.2137 59.3699 43.0955C56.6979 45.0272 54.3974 47.3652 52.5658 50.0104C50.5118 52.9881 49.2221 56.3494 48.2151 59.742C46.1805 66.5969 45.2215 74.3539 40.0583 79.9519C37.9174 82.218 35.2777 84.0308 32.3175 85.2678C29.3574 86.5047 26.1459 87.137 22.9001 87.1219C19.63 87.0746 16.416 86.3246 13.51 84.9308C10.604 83.537 8.08489 81.5372 6.14996 79.088C2.26347 74.275 0.350064 67.6186 2.59538 61.81C3.69719 58.9595 6.06638 56.267 9.45483 55.7918C11.0001 55.5975 12.5729 55.8272 13.9795 56.4525C15.386 57.0779 16.565 58.0717 17.3713 59.3115C18.8952 61.7951 18.4078 65.1091 16.4987 67.2997C14.4879 69.6071 11.1276 70.246 8.16381 69.319C6.77077 68.8791 5.54583 68.0719 4.63865 66.9959C3.9759 66.2185 2.80121 67.3084 3.45716 68.0779C4.50838 69.2489 5.86567 70.1496 7.39904 70.6938C8.9324 71.2379 10.5905 71.4073 12.2145 71.1857C13.8352 70.958 15.3573 70.3213 16.6151 69.345C17.8728 68.3688 18.8178 67.0906 19.3471 65.6497C19.9273 64.221 20.0795 62.673 19.7875 61.1704C19.4955 59.6678 18.7703 58.2668 17.689 57.1168C16.5623 55.9788 15.14 55.1284 13.5582 54.6471C11.9765 54.1657 10.2882 54.0695 8.65497 54.3677C5.15618 55.0558 2.6153 57.7286 1.29663 60.6905C-0.00271828 63.7675 -0.345524 67.1216 0.307272 70.3708C0.909682 73.5061 2.21626 76.4885 4.14193 79.1237C6.0676 81.7589 8.5692 83.9878 11.4838 85.6653C17.3825 89.0295 24.7449 89.4924 31.216 87.3314C34.4493 86.269 37.4024 84.58 39.8791 82.3764C42.5407 79.8684 44.5776 76.8487 45.8465 73.5301C48.7641 66.4346 49.1915 58.4947 53.3196 51.825C56.9203 46.1618 62.6 41.8955 69.3153 39.8098C75.9914 37.6673 83.299 37.9932 89.7234 40.7198C96.1115 43.4678 101.257 48.2133 104.261 54.1272C104.976 55.5681 105.542 57.0692 105.951 58.6099C106.21 59.5738 107.812 59.1739 107.553 58.211Z" fill="#EBFF00"/>
<path d="M139.535 157.381C139.308 156.569 139.043 155.773 138.739 154.992C136.898 150.219 133.669 146.014 129.411 142.842C128.93 142.477 128.433 142.128 127.918 141.794C125.367 140.122 122.545 138.838 119.559 137.99C119.798 137.198 119.794 136.358 119.547 135.568C119.213 134.571 118.542 133.701 117.632 133.088C116.723 132.475 115.625 132.151 114.501 132.164H107.291C106.165 132.151 105.064 132.475 104.152 133.089C103.24 133.703 102.566 134.574 102.231 135.573C101.985 136.361 101.981 137.198 102.219 137.988C96.1666 139.715 90.8696 143.198 87.1061 147.927C83.3426 152.656 81.3109 158.381 81.3093 164.262V217.505C81.3093 221.139 82.7966 224.093 84.6267 224.093H137.152C137.174 224.093 152.119 224.093 152.141 224.082C153.943 224.027 155.397 221.095 155.397 217.505C155.397 205.213 152.474 187.938 146.835 176.817L140.469 164.262C140.47 161.941 140.157 159.629 139.535 157.381Z" fill="#DB331D"/>
<path d="M80.48 105.716C76.8216 105.716 73.8452 101.569 73.8452 96.4717C73.8452 91.3744 76.8216 87.2275 80.48 87.2275C84.1384 87.2275 87.1147 91.3744 87.1147 96.4717C87.1147 101.569 84.1384 105.716 80.48 105.716Z" fill="#3F3D56"/>
<path d="M139.64 105.716C135.981 105.716 133.005 101.569 133.005 96.4717C133.005 91.3744 135.981 87.2275 139.64 87.2275C143.298 87.2275 146.275 91.3744 146.275 96.4717C146.275 101.569 143.298 105.716 139.64 105.716Z" fill="#3F3D56"/>
<path d="M141.502 104.27C141.37 104.27 141.24 104.241 141.123 104.185C141.006 104.129 140.905 104.048 140.828 103.949C140.751 103.849 140.701 103.734 140.682 103.613C140.662 103.493 140.674 103.369 140.716 103.253C142.301 98.8749 142.778 94.2161 142.109 89.6389C141.441 85.0616 139.645 80.6892 136.861 76.8614C134.078 73.0337 130.382 69.8536 126.06 67.5685C121.738 65.2833 116.907 63.9546 111.943 63.6855C106.978 63.4165 102.014 64.2144 97.4355 66.0172C92.857 67.82 88.7877 70.5792 85.5438 74.0803C82.3 77.5815 79.969 81.7302 78.732 86.2042C77.495 90.6782 77.3853 95.3568 78.4114 99.8766C78.4562 100.076 78.4139 100.284 78.2938 100.455C78.1737 100.626 77.9855 100.745 77.7706 100.788C77.5557 100.83 77.3316 100.791 77.1475 100.68C76.9633 100.569 76.8342 100.394 76.7884 100.195C75.7088 95.4426 75.8236 90.5233 77.1237 85.8193C78.4239 81.1152 80.8744 76.753 84.2848 73.0717C87.6952 69.3904 91.9736 66.4892 96.7875 64.5936C101.601 62.6981 106.821 61.8592 112.041 62.1422C117.26 62.4252 122.339 63.8224 126.883 66.2253C131.427 68.6282 135.313 71.972 138.239 75.9969C141.165 80.0217 143.053 84.6191 143.755 89.4317C144.457 94.2443 143.955 99.1426 142.288 103.746C142.232 103.898 142.126 104.031 141.985 104.125C141.844 104.219 141.675 104.27 141.502 104.27Z" fill="#CCFF00"/>
<path d="M97.6401 77.9844C96.4684 79.47 97.046 81.4721 98.2805 82.753C99.887 84.4197 102.449 84.5249 104.673 84.2155C107.169 83.8684 109.816 82.7822 112.343 83.5142C114.497 84.1381 116.033 85.9526 118.271 86.4083C120.255 86.8125 122.628 86.2775 123.324 84.3129C123.658 83.3688 122.057 82.9642 121.724 83.9033C121.274 85.1743 119.331 85.1489 118.218 84.797C116.434 84.2327 115.059 82.8603 113.306 82.2048C111.238 81.4319 108.995 81.7808 106.89 82.2211C104.906 82.6361 102.623 83.2513 100.647 82.4762C99.184 81.9026 98.0203 80.0958 99.0723 78.762C99.7038 77.9613 98.2652 77.1919 97.6401 77.9844Z" fill="#2F2E41"/>
<path d="M177.226 276.99H57.8002C57.6536 276.99 57.513 276.936 57.4093 276.839C57.3056 276.743 57.2473 276.612 57.2473 276.476C57.2473 276.34 57.3056 276.209 57.4093 276.113C57.513 276.017 57.6536 275.963 57.8002 275.963H177.226C177.372 275.963 177.513 276.017 177.617 276.113C177.72 276.209 177.779 276.34 177.779 276.476C177.779 276.612 177.72 276.743 177.617 276.839C177.513 276.936 177.372 276.99 177.226 276.99Z" fill="#3F3D56"/>
<path d="M389.985 119.374H258.766C258.633 119.375 258.5 119.351 258.376 119.304C258.252 119.257 258.14 119.188 258.045 119.1C257.95 119.013 257.874 118.909 257.823 118.794C257.772 118.679 257.745 118.556 257.745 118.432C257.745 118.308 257.772 118.185 257.823 118.07C257.874 117.955 257.95 117.851 258.045 117.763C258.14 117.676 258.252 117.606 258.376 117.559C258.5 117.512 258.633 117.489 258.766 117.49H389.985C390.119 117.489 390.252 117.512 390.376 117.559C390.5 117.606 390.612 117.676 390.707 117.763C390.802 117.851 390.877 117.955 390.929 118.07C390.98 118.185 391.007 118.308 391.007 118.432C391.007 118.556 390.98 118.679 390.929 118.794C390.877 118.909 390.802 119.013 390.707 119.1C390.612 119.188 390.5 119.257 390.376 119.304C390.252 119.351 390.119 119.375 389.985 119.374Z" fill="#E6E6E6"/>
<path d="M334.204 67.3745H283.177C280.326 67.3715 277.592 66.3182 275.576 64.4455C273.56 62.5729 272.426 60.0339 272.423 57.3856V9.98868C272.426 7.3404 273.56 4.80147 275.576 2.92888C277.592 1.05629 280.326 0.00296452 283.177 0H334.204C337.055 0.00296452 339.788 1.05629 341.804 2.92888C343.82 4.80147 344.954 7.3404 344.957 9.98868V57.3856C344.954 60.0339 343.82 62.5729 341.804 64.4455C339.788 66.3182 337.055 67.3715 334.204 67.3745Z" fill="#1DB8A5"/>
<path opacity="0.1" d="M365.575 89.355H314.548C311.697 89.352 308.964 88.2987 306.948 86.4261C304.932 84.5535 303.798 82.0146 303.794 79.3663V31.9694C303.798 29.3211 304.932 26.7821 306.948 24.9094C308.964 23.0368 311.697 21.9834 314.548 21.9805H365.575C368.426 21.9834 371.16 23.0368 373.176 24.9094C375.192 26.7821 376.326 29.3211 376.329 31.9694V79.3663C376.326 82.0146 375.192 84.5535 373.176 86.4261C371.16 88.2987 368.426 89.352 365.575 89.355Z" fill="#28447A"/>
<path d="M277.588 146.544C277.441 146.544 277.3 146.49 277.197 146.394C277.093 146.298 277.035 146.167 277.035 146.031V136.787C277.035 136.65 277.093 136.52 277.197 136.423C277.3 136.327 277.441 136.273 277.588 136.273C277.734 136.273 277.875 136.327 277.979 136.423C278.082 136.52 278.14 136.65 278.14 136.787V146.031C278.14 146.167 278.082 146.298 277.979 146.394C277.875 146.49 277.734 146.544 277.588 146.544Z" fill="#CCCCCC"/>
<path d="M322.649 146.544C322.502 146.544 322.361 146.49 322.258 146.394C322.154 146.298 322.096 146.167 322.096 146.031V136.787C322.096 136.65 322.154 136.52 322.258 136.423C322.361 136.327 322.502 136.273 322.649 136.273C322.795 136.273 322.936 136.327 323.04 136.423C323.143 136.52 323.201 136.65 323.201 136.787V146.031C323.201 146.167 323.143 146.298 323.04 146.394C322.936 146.49 322.795 146.544 322.649 146.544Z" fill="#3F3D56"/>
<path d="M326.519 146.544C326.372 146.544 326.231 146.49 326.128 146.394C326.024 146.298 325.966 146.167 325.966 146.031V136.787C325.966 136.65 326.024 136.52 326.128 136.423C326.231 136.327 326.372 136.273 326.519 136.273C326.665 136.273 326.806 136.327 326.91 136.423C327.013 136.52 327.072 136.65 327.072 136.787V146.031C327.072 146.167 327.013 146.298 326.91 146.394C326.806 146.49 326.665 146.544 326.519 146.544Z" fill="#3F3D56"/>
<path d="M285.704 146.711C285.479 146.711 285.257 146.655 285.062 146.55L278.486 142.43C278.474 142.423 278.462 142.416 278.45 142.409C278.268 142.303 278.119 142.155 278.016 141.98C277.914 141.805 277.861 141.608 277.864 141.409C277.863 141.199 277.921 140.993 278.034 140.812C278.147 140.63 278.309 140.48 278.505 140.377L285.03 136.286C285.224 136.175 285.447 136.113 285.675 136.108C285.904 136.103 286.129 136.155 286.329 136.259C286.528 136.362 286.694 136.513 286.81 136.696C286.926 136.879 286.987 137.087 286.987 137.299V145.518C286.986 145.834 286.851 146.137 286.61 146.36C286.37 146.584 286.044 146.71 285.704 146.711ZM285.648 145.679C285.672 145.686 285.698 145.688 285.723 145.685C285.748 145.682 285.771 145.673 285.792 145.661C285.82 145.647 285.842 145.626 285.858 145.601C285.873 145.576 285.881 145.547 285.881 145.518V137.299C285.881 137.27 285.873 137.242 285.857 137.217C285.842 137.192 285.819 137.171 285.792 137.157C285.766 137.142 285.735 137.135 285.704 137.135C285.673 137.135 285.643 137.142 285.616 137.157L279.091 141.247C278.981 141.308 278.97 141.373 278.97 141.409C278.969 141.438 278.977 141.466 278.993 141.491C279.008 141.516 279.031 141.537 279.058 141.551L279.091 141.57L285.648 145.679Z" fill="#CCCCCC"/>
<path d="M370.474 146.544C370.327 146.544 370.187 146.49 370.083 146.394C369.979 146.298 369.921 146.167 369.921 146.031V136.787C369.921 136.65 369.979 136.52 370.083 136.423C370.187 136.327 370.327 136.273 370.474 136.273C370.621 136.273 370.761 136.327 370.865 136.423C370.969 136.52 371.027 136.65 371.027 136.787V146.031C371.027 146.167 370.969 146.298 370.865 146.394C370.761 146.49 370.621 146.544 370.474 146.544Z" fill="#CCCCCC"/>
<path d="M362.347 146.709C362.126 146.709 361.908 146.654 361.716 146.55C361.52 146.446 361.358 146.296 361.245 146.115C361.132 145.934 361.073 145.728 361.075 145.518V137.299C361.075 137.09 361.134 136.884 361.247 136.703C361.359 136.522 361.521 136.372 361.716 136.267C361.911 136.163 362.132 136.108 362.358 136.108C362.583 136.108 362.804 136.163 362.999 136.267L369.589 140.396C369.777 140.5 369.932 140.649 370.039 140.827C370.146 141.004 370.201 141.205 370.198 141.409C370.199 141.615 370.142 141.817 370.033 141.996C369.924 142.176 369.766 142.325 369.575 142.43L363.032 146.531C362.825 146.646 362.588 146.707 362.347 146.709ZM362.181 145.518C362.181 145.547 362.189 145.575 362.204 145.6C362.22 145.625 362.242 145.646 362.269 145.66C362.296 145.675 362.326 145.682 362.357 145.682C362.388 145.682 362.419 145.675 362.446 145.661L368.995 141.555C369.024 141.541 369.047 141.519 369.064 141.494C369.081 141.468 369.091 141.439 369.092 141.409V141.409C369.092 141.38 369.084 141.351 369.069 141.326C369.053 141.301 369.031 141.28 369.003 141.266L362.413 137.138C362.389 137.13 362.364 137.128 362.339 137.132C362.314 137.135 362.29 137.143 362.269 137.157C362.242 137.171 362.219 137.191 362.204 137.216C362.188 137.241 362.18 137.27 362.181 137.299L362.181 145.518Z" fill="#CCCCCC"/>
<path d="M295.28 124.595C298.945 124.595 301.915 121.835 301.915 118.432C301.915 115.028 298.945 112.269 295.28 112.269C291.616 112.269 288.646 115.028 288.646 118.432C288.646 121.835 291.616 124.595 295.28 124.595Z" fill="#3F3D56"/>
</g>
<defs>
<clipPath id="clip0_75_10">
<rect width="391" height="277" fill="white"/>
</clipPath>
</defs>
</svg>
