<svg width="241" height="195" viewBox="0 0 241 195" fill="none" xmlns="http://www.w3.org/2000/svg">
<g clip-path="url(#clip0_71_36)">
<path d="M12.574 194.564C12.5579 194.469 10.9986 184.9 14.183 176.953C17.3674 169.005 24.1647 165.501 24.233 165.466L24.5437 165.309L24.6171 165.745C24.6332 165.841 26.1924 175.409 23.008 183.357C19.8238 191.304 13.0263 194.809 12.958 194.843L12.6472 195L12.574 194.564ZM24.1176 166.373C22.7561 167.161 17.3824 170.61 14.6929 177.322C12.0031 184.035 12.8146 191.974 13.0734 193.937C14.4344 193.15 19.806 189.706 22.4981 182.987C25.1878 176.274 24.3765 168.337 24.1176 166.373Z" fill="#F1F1F1"/>
<path d="M20.5745 180.569C14.8521 185.202 12.6481 194.405 12.6481 194.405C12.6481 194.405 19.7222 196.096 25.4447 191.463C31.1672 186.83 33.3711 177.627 33.3711 177.627C33.3711 177.627 26.297 175.936 20.5745 180.569Z" fill="#F1F1F1"/>
<path d="M107.235 106.294C107.322 105.688 107.309 105.063 107.198 104.464C107.086 103.865 106.878 103.306 106.589 102.827C106.3 102.348 105.936 101.96 105.523 101.691C105.11 101.421 104.659 101.277 104.2 101.268L101.55 92.2992L97.1072 93.1371L100.982 105.732C101.021 106.77 101.343 107.752 101.885 108.493C102.427 109.234 103.152 109.681 103.923 109.75C104.693 109.82 105.456 109.506 106.067 108.869C106.677 108.232 107.093 107.316 107.235 106.294Z" fill="#9F616A"/>
<path d="M99.0499 103.143L97.6733 98.7251L89.0952 76.7507L89.5616 36.09L89.6511 36.0741C95.1401 35.0981 98.8538 69.1336 99.0093 70.5831L104.429 95.5285L105.719 101.027L99.0499 103.143Z" fill="#1DB8A5"/>
<path d="M85.8692 188.882L90.0399 188.882L92.0238 167.232L85.8683 167.233L85.8692 188.882Z" fill="#9F616A"/>
<path d="M84.8052 187.05L93.0189 187.049H93.0193C94.4075 187.049 95.7388 187.791 96.7204 189.112C97.7021 190.433 98.2536 192.225 98.2537 194.093V194.322L84.8055 194.323L84.8052 187.05Z" fill="#363530"/>
<path d="M47.5206 180.33L50.9427 183.539L61.7682 167.304L56.7177 162.568L47.5206 180.33Z" fill="#9F616A"/>
<path d="M47.4263 178.008L54.1653 184.328L54.1656 184.328C55.3044 185.396 56.0814 187.03 56.3255 188.869C56.5697 190.708 56.2609 192.602 55.4673 194.135L55.3701 194.323L44.3365 183.976L47.4263 178.008Z" fill="#363530"/>
<path d="M83.5769 183.793L83.3967 143.18L80.7724 117.643L75.8798 140.101L75.8703 140.119L58.14 174.76L51.241 170.055L51.2788 169.935C51.7004 168.585 61.6352 136.889 64.3056 136.889C64.5388 136.911 64.7725 136.856 64.9865 136.729C65.2005 136.603 65.3885 136.408 65.5342 136.162C66.3179 134.754 65.6797 131.765 65.6731 131.735C64.9087 127.469 66.8308 126.016 67.2136 125.774L68.2432 97.1693L68.35 97.1792L96.2636 99.8142L95.0925 135.577L92.5734 182.434L92.4869 182.448L83.5769 183.793Z" fill="#363530"/>
<path d="M96.6901 106.153L96.5693 106.139L66.549 102.883L66.6231 89.5153L68.0924 54.6124L68.1007 54.5882L74.0845 37.1058L78.3262 34.5209L84.5149 34.0826L84.53 34.0877L90.1778 35.9708L96.0531 92.7295L96.6901 106.153Z" fill="#1DB8A5"/>
<path d="M85.4846 29.6022C89.315 26.7844 90.7226 20.3214 88.6288 15.1666C86.5349 10.0119 81.7324 8.11747 77.9021 10.9353C74.0718 13.7531 72.6641 20.2162 74.7579 25.3709C76.8518 30.5256 81.6543 32.4201 85.4846 29.6022Z" fill="#9F616A"/>
<path d="M73.7444 22.9389V18.7945C73.7444 18.7945 71.2608 14.8581 73.9927 13.8666C73.9927 13.8666 74.7378 3.95091 81.1949 8.57821C81.1949 8.57821 90.1356 6.59508 89.1422 13.536C89.1422 13.536 91.3774 11.724 90.6323 16.3513L89.1914 23.8051C89.1914 23.8051 89.8873 18.8813 87.6521 18.2202L86.4103 17.2287C86.4103 17.2287 82.9334 21.856 77.718 16.2371C77.718 16.2371 75.4828 15.5192 75.7312 18.4939C75.9795 21.4686 73.7444 22.9389 73.7444 22.9389Z" fill="#363530"/>
<path d="M80.8705 96.1701C80.8754 95.5526 80.7798 94.9413 80.5902 94.379C80.4006 93.8167 80.1218 93.3172 79.7732 92.9157C79.4247 92.5141 79.0149 92.2203 78.5729 92.0549C78.1309 91.8895 77.6672 91.8566 77.2147 91.9584L73.4118 83.7755L69.1531 85.6727L74.6441 97.1271C74.8216 98.1388 75.2687 99.0278 75.9007 99.6256C76.5327 100.223 77.3057 100.488 78.0731 100.37C78.8406 100.252 79.5493 99.7597 80.0649 98.9856C80.5804 98.2114 80.8671 97.2096 80.8705 96.1701Z" fill="#9F616A"/>
<path d="M71.0483 93.5906L64.1683 74.7925L64.1744 74.7468C64.2021 74.5387 66.9715 53.8446 69.0896 46.238C71.2212 38.5833 74.1388 37.0464 74.262 36.9848L74.3236 36.9539L76.9397 40.3309L73.3157 72.8833L77.222 88.5828L71.0483 93.5906Z" fill="#1DB8A5"/>
<path d="M241 0H227.679V17.9272H241V0Z" fill="#F1F1F1"/>
<path d="M136.747 69.7603H123.426V87.6875H136.747V69.7603Z" fill="#F1F1F1"/>
<path d="M130.903 79.8317H236.22V8.08047H130.903V79.8317Z" fill="white"/>
<path d="M237.089 81.0009H130.034V6.91125H237.089V81.0009ZM131.771 78.6626H235.351V9.24959H131.771V78.6626Z" fill="#E5E5E5"/>
<path d="M224.574 33.2495H143.544V36.8658H224.574V33.2495Z" fill="#E5E5E5"/>
<path d="M224.574 42.0194H143.544V45.6357H224.574V42.0194Z" fill="#E5E5E5"/>
<path d="M224.574 54.9685H209.515V58.1068H224.574V54.9685Z" fill="#1DB8A5"/>
<path d="M110.624 194.984H0.289592C0.212787 194.984 0.139128 194.943 0.0848192 194.87C0.0305103 194.797 0 194.698 0 194.595C0 194.491 0.0305103 194.392 0.0848192 194.319C0.139128 194.246 0.212787 194.205 0.289592 194.205H110.624C110.701 194.205 110.775 194.246 110.829 194.319C110.883 194.392 110.914 194.491 110.914 194.595C110.914 194.698 110.883 194.797 110.829 194.87C110.775 194.943 110.701 194.984 110.624 194.984Z" fill="#CBCBCB"/>
</g>
<defs>
<clipPath id="clip0_71_36">
<rect width="241" height="195" fill="white"/>
</clipPath>
</defs>
</svg>
