<svg width="200" height="173" viewBox="0 0 200 173" fill="none" xmlns="http://www.w3.org/2000/svg">
<g clip-path="url(#clip0_64_51)">
<path d="M127.563 38.7803H116.922V119.316C116.922 120.58 116.641 121.831 116.097 122.998C115.552 124.166 114.753 125.226 113.747 126.12C112.74 127.013 111.545 127.722 110.23 128.206C108.915 128.689 107.506 128.938 106.082 128.938H24.7234V129.03C24.7234 130.294 25.0037 131.545 25.5485 132.712C26.0932 133.88 26.8916 134.94 27.8982 135.834C28.9047 136.727 30.0996 137.436 31.4147 137.92C32.7298 138.403 34.1393 138.652 35.5628 138.652H127.563C128.987 138.652 130.396 138.403 131.711 137.92C133.026 137.436 134.221 136.727 135.228 135.834C136.234 134.94 137.033 133.88 137.577 132.712C138.122 131.545 138.403 130.294 138.403 129.03V48.4024C138.403 45.8504 137.261 43.403 135.228 41.5986C133.195 39.7941 130.438 38.7804 127.563 38.7803Z" fill="#F2F2F2"/>
<path d="M178.009 166.764C178.197 166.772 178.384 166.728 178.543 166.638C178.702 166.549 178.827 166.418 178.9 166.263C178.972 166.109 178.99 165.938 178.95 165.775C178.91 165.611 178.814 165.462 178.675 165.349L178.612 165.126C178.621 165.109 178.629 165.091 178.637 165.073C178.827 164.675 179.145 164.336 179.552 164.098C179.958 163.86 180.434 163.734 180.921 163.735C181.408 163.737 181.883 163.866 182.288 164.107C182.692 164.347 183.007 164.689 183.194 165.088C183.939 166.681 184.888 168.277 185.121 169.962C185.224 170.706 185.181 171.461 184.993 172.192C186.743 168.803 187.652 165.12 187.658 161.392C187.658 160.456 187.6 159.521 187.482 158.591C187.386 157.829 187.251 157.072 187.079 156.321C186.141 152.244 184.127 148.423 181.202 145.172C179.787 144.486 178.642 143.432 177.922 142.151C177.661 141.69 177.477 141.199 177.375 140.691C177.535 140.71 177.977 138.551 177.857 138.419C178.079 138.119 178.478 137.97 178.721 137.677C179.929 136.223 181.595 136.477 182.464 138.454C184.321 139.286 184.339 140.665 183.2 141.993C182.475 142.837 182.375 143.979 181.739 144.883C181.804 144.958 181.872 145.03 181.938 145.104C183.134 146.47 184.177 147.936 185.051 149.482C184.838 147.75 185.092 145.998 185.791 144.37C186.5 142.853 187.828 141.575 188.997 140.263C189.307 139.911 189.727 139.648 190.204 139.507C190.682 139.367 191.196 139.355 191.681 139.474C192.166 139.592 192.601 139.836 192.93 140.174C193.259 140.512 193.468 140.929 193.53 141.372C193.533 141.392 193.535 141.411 193.537 141.43C193.364 141.517 193.194 141.61 193.027 141.707C192.818 141.831 192.656 142.008 192.563 142.215C192.469 142.422 192.448 142.65 192.502 142.868C192.557 143.086 192.684 143.284 192.867 143.436C193.051 143.589 193.282 143.689 193.53 143.723L193.556 143.726C193.494 144.282 193.384 144.833 193.228 145.374C194.729 150.524 191.49 152.4 186.865 152.484C186.762 152.531 186.663 152.577 186.561 152.622C187.439 154.831 187.99 157.132 188.2 159.467C188.318 160.845 188.311 162.229 188.179 163.606L188.187 163.557C188.522 162.026 189.442 160.645 190.791 159.646C192.796 158.185 195.628 157.646 197.79 156.472C198.02 156.341 198.287 156.271 198.56 156.27C198.833 156.269 199.101 156.338 199.331 156.468C199.562 156.598 199.746 156.784 199.861 157.004C199.977 157.223 200.019 157.468 199.983 157.708L199.974 157.759C199.652 157.876 199.338 158.01 199.035 158.161C198.861 158.248 198.691 158.341 198.524 158.438C198.315 158.562 198.154 158.74 198.06 158.947C197.966 159.154 197.945 159.381 198 159.599C198.054 159.817 198.181 160.015 198.365 160.167C198.548 160.32 198.779 160.42 199.028 160.454L199.053 160.457C199.071 160.46 199.087 160.462 199.105 160.464C198.554 161.632 197.781 162.706 196.82 163.641C195.882 168.137 191.853 168.564 187.543 167.254H187.54C187.067 169.079 186.382 170.854 185.495 172.553H178.192C178.166 172.481 178.142 172.406 178.119 172.334C178.795 172.372 179.473 172.336 180.139 172.227C179.598 171.637 179.056 171.042 178.514 170.452C178.502 170.441 178.49 170.429 178.48 170.417C178.205 170.115 177.927 169.815 177.653 169.513L177.652 169.513C177.638 168.587 177.758 167.663 178.009 166.764Z" fill="#F2F2F2"/>
<path d="M97.5657 27.8253C97.8324 28.1839 98.1836 28.4868 98.5951 28.7131C99.0066 28.9394 99.4686 29.0836 99.949 29.1358C100.43 29.188 100.917 29.1469 101.378 29.0154C101.839 28.8839 102.262 28.6652 102.618 28.3742L117.803 34.4555L120.73 31.1407L102.636 24.0349C102.039 23.5391 101.259 23.2547 100.442 23.2355C99.6254 23.2164 98.8292 23.4639 98.2042 23.9311C97.5793 24.3983 97.1691 25.0528 97.0514 25.7705C96.9337 26.4882 97.1167 27.2193 97.5657 27.8253Z" fill="#A0616A"/>
<path d="M162.731 31.6173L164.237 39.1929C164.308 39.5464 164.294 39.9089 164.197 40.2573C164.1 40.6058 163.922 40.9324 163.675 41.2161C163.427 41.4999 163.116 41.7346 162.76 41.9052C162.404 42.0757 162.012 42.1783 161.609 42.2065L136.019 43.9928L105.939 32.0425L109.532 25.9884L135.644 33.3287L162.731 31.6173Z" fill="#1DB8A5"/>
<path d="M102.84 26.188H10.8394C4.85296 26.188 0 30.4959 0 35.81V116.438C0 121.752 4.85296 126.06 10.8394 126.06H102.84C108.826 126.06 113.679 121.752 113.679 116.438V35.81C113.679 30.4959 108.826 26.188 102.84 26.188Z" fill="#F2F2F2"/>
<path d="M10.8395 28.1668C9.70879 28.1668 8.58914 28.3645 7.5445 28.7486C6.49985 29.1327 5.55067 29.6957 4.75113 30.4054C3.9516 31.1152 3.31736 31.9578 2.88466 32.8851C2.45195 33.8124 2.22925 34.8063 2.22925 35.81V116.438C2.22925 118.465 3.1364 120.409 4.75113 121.842C6.36587 123.276 8.55592 124.081 10.8395 124.081H69.5564C75.0579 124.081 80.5056 123.119 85.5884 121.25C90.6711 119.381 95.2894 116.642 99.1796 113.189C103.07 109.736 106.156 105.636 108.261 101.124C110.366 96.612 111.45 91.7762 111.45 86.8925V35.81C111.45 34.8063 111.227 33.8124 110.795 32.8851C110.362 31.9578 109.728 31.1152 108.928 30.4054C108.129 29.6957 107.179 29.1327 106.135 28.7486C105.09 28.3645 103.97 28.1668 102.84 28.1668H10.8395Z" fill="white"/>
<path d="M82.558 52.6359H30.9201C30.4463 52.6359 29.9919 52.4689 29.6568 52.1714C29.3218 51.874 29.1335 51.4706 29.1335 51.05C29.1335 50.6294 29.3218 50.226 29.6568 49.9286C29.9919 49.6312 30.4463 49.4641 30.9201 49.4641H82.558C83.0318 49.4641 83.4862 49.6312 83.8213 49.9286C84.1563 50.226 84.3446 50.6294 84.3446 51.05C84.3446 51.4706 84.1563 51.874 83.8213 52.1714C83.4862 52.4689 83.0318 52.6359 82.558 52.6359Z" fill="#F2F2F2"/>
<path d="M82.558 86.4554H30.9201C30.4463 86.4554 29.9919 86.2883 29.6568 85.9908C29.3218 85.6934 29.1335 85.29 29.1335 84.8694C29.1335 84.4488 29.3218 84.0454 29.6568 83.748C29.9919 83.4506 30.4463 83.2835 30.9201 83.2835H82.558C83.0318 83.2835 83.4862 83.4506 83.8213 83.748C84.1563 84.0454 84.3446 84.4488 84.3446 84.8694C84.3446 85.29 84.1563 85.6934 83.8213 85.9908C83.4862 86.2883 83.0318 86.4554 82.558 86.4554Z" fill="#F2F2F2"/>
<path d="M103.527 69.5567H9.951C9.47717 69.5567 9.02275 69.3897 8.6877 69.0922C8.35265 68.7948 8.16443 68.3914 8.16443 67.9708C8.16443 67.5502 8.35265 67.1468 8.6877 66.8494C9.02275 66.552 9.47717 66.3849 9.951 66.3849H103.527C104.001 66.3849 104.455 66.552 104.79 66.8494C105.125 67.1468 105.314 67.5502 105.314 67.9708C105.314 68.3914 105.125 68.7948 104.79 69.0922C104.455 69.3897 104.001 69.5567 103.527 69.5567Z" fill="#F2F2F2"/>
<path d="M159.498 65.0077L150.176 82.637L186.036 79.413L178.551 62.4893L159.498 65.0077Z" fill="#A0616A"/>
<path d="M167.835 166.334L164.435 166.308L162.93 154.396L167.948 154.433L167.835 166.334Z" fill="#A0616A"/>
<path d="M156.945 171.133C156.942 171.491 157.099 171.835 157.381 172.09C157.664 172.345 158.049 172.491 158.452 172.494L165.212 172.544L166.395 170.415L166.83 172.555L169.38 172.576L168.736 164.942L167.849 164.89L164.229 164.668L163.062 164.599L163.041 166.759L157.611 170.028C157.407 170.151 157.241 170.315 157.124 170.508C157.008 170.7 156.947 170.915 156.945 171.133Z" fill="#2F2E41"/>
<path d="M130.209 166.348L126.968 165.436L129.472 153.657L134.256 155.002L130.209 166.348Z" fill="#A0616A"/>
<path d="M118.211 168.095C118.09 168.436 118.126 168.806 118.311 169.123C118.497 169.441 118.817 169.68 119.201 169.789L125.646 171.6L127.482 169.873L127.189 172.032L129.62 172.717L131.531 165.252L130.7 164.971L127.314 163.815L126.22 163.444L125.486 165.503L119.213 167.212C118.978 167.276 118.764 167.39 118.59 167.544C118.415 167.697 118.285 167.886 118.211 168.095Z" fill="#2F2E41"/>
<path d="M184.403 74.4554L151.798 79.7588C151.798 79.7588 146.568 83.2314 147.967 84.475C149.366 85.7187 149.583 85.526 148.664 86.3419C147.745 87.1578 145.757 88.2485 145.738 88.9624C145.718 89.6763 131.127 121.697 131.127 121.697C131.127 121.697 132.749 120.977 131.533 122.057C130.317 123.136 130.317 124.028 130.317 124.028L124.643 158.035L133.858 158.516L142.881 127.513L163.008 98.549C163.008 98.549 165.005 124.377 165.089 126.095C165.173 127.813 166.389 125.654 165.173 127.813C163.957 129.972 163.146 128.533 163.957 129.972C164.767 131.411 161.037 160.709 161.037 160.709H169.448L187.488 99.9816C187.488 99.9816 193.906 82.6202 184.403 74.4554Z" fill="#2F2E41"/>
<path d="M174.798 25.8807L161.737 24.676L158.353 28.5758L154.411 30.4395C152.743 31.2282 151.366 32.4268 150.445 33.8919C149.524 35.3569 149.098 37.0265 149.217 38.7009L153.824 62.4893C153.824 62.4893 149.933 70.2675 152.608 72.2034C155.284 74.1393 150.54 78.9339 156.256 76.5208C161.972 74.1077 186.654 76.8805 186.654 76.8805L181.385 63.5686L185.321 50.4879L185.754 39.5199C185.835 37.4703 185.15 35.4546 183.805 33.7868C182.461 32.1191 180.532 30.8931 178.321 30.2998L177.771 30.1522L174.798 25.8807Z" fill="#1DB8A5"/>
<path d="M192.779 16.9925C192.864 20.2604 191.489 23.4247 189.512 26.204C188.925 24.5815 187.869 23.1047 186.768 21.697C187.323 24.7423 186.732 27.8651 185.086 30.582C185.028 30.6189 184.968 30.6531 184.906 30.6845C183.295 31.5448 181.253 31.8932 179.51 31.2719C183.111 27.8264 183.569 22.1177 180.55 18.253C179.695 17.1564 178.59 16.1865 178.061 14.9385C177.225 12.9473 178.028 10.7549 178.535 8.67888C179.009 6.74671 179.092 4.4474 177.632 3.03136C177.788 2.83348 178 2.67596 178.247 2.57495C178.494 2.47394 178.767 2.43307 179.038 2.45653C179.938 2.56943 180.594 3.26411 181.011 3.9796C181.429 4.69506 181.704 5.48804 182.286 6.10603C183.363 7.26272 185.197 7.53619 186.743 8.1458C190.487 9.62616 192.689 13.3562 192.779 16.9925Z" fill="#2F2E41"/>
<path d="M96.3201 172.572C96.3199 172.628 96.3322 172.684 96.3564 172.736C96.3806 172.788 96.4161 172.835 96.4609 172.875C96.5058 172.915 96.559 172.946 96.6176 172.968C96.6762 172.989 96.739 173 96.8024 173H199.461C199.589 173 199.712 172.955 199.802 172.875C199.892 172.794 199.943 172.685 199.943 172.572C199.943 172.458 199.892 172.349 199.802 172.269C199.712 172.189 199.589 172.144 199.461 172.144H96.8024C96.739 172.144 96.6762 172.155 96.6176 172.176C96.559 172.197 96.5058 172.229 96.4609 172.269C96.4161 172.309 96.3806 172.356 96.3564 172.408C96.3322 172.46 96.3199 172.516 96.3201 172.572Z" fill="#CCCCCC"/>
<path d="M193.587 92.7327C195.602 92.7327 197.235 91.283 197.235 89.4947C197.235 87.7064 195.602 86.2567 193.587 86.2567C191.572 86.2567 189.939 87.7064 189.939 89.4947C189.939 91.283 191.572 92.7327 193.587 92.7327Z" fill="#1DB8A5"/>
<path d="M161.263 15.1241C161.477 14.4593 160.003 18.5227 160.714 18.596C163.955 18.9261 168.404 20.6443 170.662 21.4459C170.763 21.4354 170.865 21.425 170.964 21.4119C171.206 21.3883 171.442 21.3542 171.675 21.315C176.932 20.4321 178.953 13.2648 178.953 13.1993C178.953 12.8771 178.082 4.02743 176.709 3.89647C176.349 3.86176 175.987 3.84427 175.624 3.84408H172.219C171.514 3.70928 170.8 3.61738 170.081 3.56902H170.075C163.219 3.10535 157.813 6.81469 158.319 11.3283C158.322 11.3335 158.328 11.3388 158.331 11.344C158.477 11.5378 158.606 11.7212 158.719 11.8967C158.83 12.0618 158.923 12.2189 159.003 12.3683C159.628 13.5209 158.022 14.9713 159.087 15.242C160.504 15.602 155.361 27.4362 160.968 27.4362C158.241 28.1246 160.673 16.9578 161.263 15.1241Z" fill="#2F2E41"/>
<path d="M167.384 22.0679C171.837 22.0679 175.446 18.8634 175.446 14.9106C175.446 10.9577 171.837 7.75323 167.384 7.75323C162.931 7.75323 159.321 10.9577 159.321 14.9106C159.321 18.8634 162.931 22.0679 167.384 22.0679Z" fill="#A0616A"/>
<path d="M158.319 11.7186C158.453 11.7814 158.585 11.8391 158.719 11.8967C158.86 11.9569 159 12.0172 159.141 12.0722C161.841 13.1594 164.038 13.2798 165.372 11.7186C165.407 10.8971 165.615 10.0886 165.985 9.33472C165.919 10.1772 166.17 11.0153 166.696 11.7186H169.381C172.147 13.348 173.567 13.5182 171.647 18.8675C171.112 20.358 168.984 29.0315 169.821 30.3177C170.064 30.2942 172.64 20.794 172.873 20.7547C178.13 19.8719 181.469 12.1849 181.042 11.75C181.044 10.5134 180.723 9.29314 180.106 8.18473C179.324 6.78043 178.106 5.60414 176.596 4.79496C175.695 4.40737 174.756 4.09431 173.791 3.85976C173.767 3.85452 173.746 3.84927 173.722 3.84405C173.426 3.77331 173.124 3.70782 172.822 3.65281C172.199 3.53588 171.568 3.45104 170.933 3.39871C170.888 3.39609 170.843 3.39346 170.801 3.39346C170.548 3.39399 170.299 3.45458 170.081 3.56899C170.078 3.56899 170.078 3.5716 170.075 3.5716C169.919 3.65252 169.783 3.76028 169.674 3.88856C169.483 4.10441 169.38 4.37118 169.381 4.64563H166.391C166.281 4.64563 166.17 4.64825 166.059 4.65348C164.064 4.71402 162.166 5.43339 160.736 6.67082C159.307 7.90825 158.449 9.57468 158.331 11.344C158.322 11.4697 158.319 11.5928 158.319 11.7186Z" fill="#2F2E41"/>
<path d="M175.948 9.43057C178.881 9.43057 181.26 7.31946 181.26 4.71528C181.26 2.1111 178.881 0 175.948 0C173.014 0 170.636 2.1111 170.636 4.71528C170.636 7.31946 173.014 9.43057 175.948 9.43057Z" fill="#2F2E41"/>
<path d="M193.628 90.8299C193.887 90.467 194.055 90.0585 194.118 89.6325C194.182 89.2066 194.141 88.7734 193.998 88.363C193.855 87.9525 193.613 87.5746 193.289 87.2553C192.965 86.9361 192.567 86.6831 192.122 86.5139L192.148 71.7264L187.542 70.7143L187.655 88.2779C187.39 88.9639 187.418 89.7124 187.733 90.3816C188.048 91.0508 188.629 91.5942 189.365 91.9088C190.101 92.2233 190.942 92.2873 191.727 92.0884C192.513 91.8896 193.189 91.4418 193.628 90.8299Z" fill="#A0616A"/>
<path d="M170.819 36.5095L177.987 32.1855C178.321 31.9838 178.699 31.8464 179.097 31.7821C179.495 31.7178 179.903 31.728 180.296 31.8121C180.689 31.8962 181.058 32.0524 181.379 32.2705C181.7 32.4887 181.966 32.764 182.161 33.0788L194.483 53.0678L194.53 82.3217L186.837 81.8936L183.679 57.7418L170.819 36.5095Z" fill="#1DB8A5"/>
<path d="M115.772 102.853H39.1705C37.5043 102.853 35.9064 103.441 34.7283 104.487C33.5502 105.532 32.8883 106.951 32.8883 108.43C32.8883 109.909 33.5502 111.327 34.7283 112.373C35.9064 113.419 37.5043 114.006 39.1705 114.006H115.772C117.438 114.006 119.036 113.419 120.214 112.373C121.393 111.327 122.054 109.909 122.054 108.43C122.054 106.951 121.393 105.532 120.214 104.487C119.036 103.441 117.438 102.853 115.772 102.853Z" fill="white"/>
<path d="M115.772 114.366H39.1705C37.3969 114.366 35.6959 113.741 34.4417 112.628C33.1876 111.514 32.483 110.004 32.483 108.43C32.483 106.855 33.1876 105.346 34.4417 104.232C35.6959 103.119 37.3969 102.494 39.1705 102.494H115.772C117.546 102.494 119.247 103.119 120.501 104.232C121.755 105.346 122.46 106.855 122.46 108.43C122.46 110.004 121.755 111.514 120.501 112.628C119.247 113.741 117.546 114.366 115.772 114.366ZM39.1705 103.213C37.6119 103.213 36.117 103.763 35.0149 104.741C33.9128 105.719 33.2936 107.046 33.2936 108.43C33.2936 109.813 33.9128 111.14 35.0149 112.119C36.117 113.097 37.6119 113.647 39.1705 113.647H115.772C117.331 113.647 118.826 113.097 119.928 112.119C121.03 111.14 121.649 109.813 121.649 108.43C121.649 107.046 121.03 105.719 119.928 104.741C118.826 103.763 117.331 103.213 115.772 103.213H39.1705Z" fill="#1DB8A5"/>
<path d="M120.289 127.19H86.4846C86.0107 127.19 85.5563 127.023 85.2213 126.725C84.8862 126.428 84.698 126.025 84.698 125.604C84.698 125.183 84.8862 124.78 85.2213 124.483C85.5563 124.185 86.0107 124.018 86.4846 124.018H120.289C120.763 124.018 121.217 124.185 121.553 124.483C121.888 124.78 122.076 125.183 122.076 125.604C122.076 126.025 121.888 126.428 121.553 126.725C121.217 127.023 120.763 127.19 120.289 127.19Z" fill="#1DB8A5"/>
</g>
<defs>
<clipPath id="clip0_64_51">
<rect width="200" height="173" fill="white"/>
</clipPath>
</defs>
</svg>
