<svg width="391" height="277" viewBox="0 0 391 277" fill="none" xmlns="http://www.w3.org/2000/svg">
<g clip-path="url(#clip0_75_40)">
<path d="M119.457 234.42C120.919 220.253 129.591 206.128 143.347 201.21C138.234 215.875 138.626 231.825 144.454 246.236C146.722 251.786 149.84 257.729 147.974 263.419C146.813 266.959 143.827 269.716 140.458 271.475C137.088 273.233 133.323 274.122 129.604 274.993L128.883 275.601C122.63 262.723 117.995 248.587 119.457 234.42Z" fill="#F0F0F0"/>
<path d="M143.49 201.474C135.629 210.451 130.88 221.605 129.918 233.353C129.664 235.879 129.822 238.427 130.386 240.905C131.015 243.301 132.293 245.49 134.088 247.244C135.728 248.912 137.604 250.434 138.797 252.461C139.392 253.507 139.753 254.663 139.856 255.854C139.958 257.045 139.801 258.244 139.393 259.371C138.453 262.207 136.52 264.545 134.547 266.767C132.357 269.235 130.042 271.765 129.165 274.99C129.059 275.38 128.441 275.197 128.547 274.807C130.074 269.196 135.565 265.903 138.097 260.822C139.279 258.452 139.733 255.721 138.51 253.276C137.441 251.138 135.508 249.567 133.833 247.892C132.056 246.205 130.732 244.122 129.975 241.824C129.283 239.382 129.025 236.844 129.21 234.318C129.533 228.624 130.777 223.015 132.894 217.697C135.275 211.614 138.711 205.971 143.051 201.013C143.32 200.707 143.757 201.169 143.49 201.474Z" fill="white"/>
<path d="M129.998 229.553C127.991 229.128 126.205 228.025 124.958 226.439C123.711 224.853 123.085 222.888 123.192 220.895C123.197 220.814 123.234 220.738 123.296 220.683C123.358 220.628 123.439 220.599 123.523 220.601C123.607 220.603 123.686 220.636 123.745 220.694C123.804 220.753 123.837 220.83 123.838 220.912C123.735 222.767 124.318 224.597 125.482 226.072C126.646 227.546 128.315 228.568 130.186 228.952C130.593 229.036 130.403 229.636 129.998 229.553Z" fill="white"/>
<path d="M133.142 246.505C136.695 244.331 139.274 240.936 140.365 236.997C140.473 236.607 141.091 236.79 140.983 237.179C139.84 241.276 137.149 244.804 133.446 247.058C133.093 247.273 132.791 246.718 133.142 246.505Z" fill="white"/>
<path d="M135.89 212.194C136.631 212.516 137.443 212.653 138.253 212.594C139.062 212.536 139.844 212.283 140.528 211.858C140.879 211.639 141.18 212.194 140.833 212.411C140.075 212.877 139.211 213.156 138.316 213.223C137.422 213.289 136.524 213.143 135.702 212.795C135.621 212.768 135.554 212.713 135.514 212.64C135.474 212.568 135.465 212.483 135.487 212.403C135.512 212.324 135.568 212.257 135.644 212.218C135.719 212.179 135.808 212.17 135.89 212.194Z" fill="white"/>
<path d="M186.239 225.462C186.024 225.604 185.81 225.747 185.595 225.895C182.72 227.828 180.011 229.985 177.496 232.344C177.298 232.523 177.101 232.708 176.909 232.893C170.911 238.639 166.064 245.418 162.614 252.883C161.243 255.855 160.108 258.924 159.217 262.063C157.987 266.398 157.009 271.194 154.451 274.776C154.189 275.153 153.902 275.513 153.594 275.856L129.703 276.408C129.648 276.383 129.593 276.363 129.537 276.338L128.584 276.402C128.619 276.237 128.658 276.067 128.692 275.902C128.712 275.806 128.737 275.71 128.756 275.614C128.771 275.55 128.786 275.486 128.795 275.428C128.8 275.407 128.805 275.385 128.81 275.369C128.819 275.311 128.835 275.257 128.844 275.204C129.061 274.251 129.285 273.298 129.516 272.344C129.516 272.339 129.516 272.339 129.521 272.333C131.301 265.071 133.721 257.89 137.186 251.294C137.29 251.095 137.394 250.892 137.51 250.693C139.088 247.728 140.914 244.894 142.969 242.218C144.098 240.756 145.303 239.351 146.58 238.007C149.883 234.542 153.728 231.604 157.972 229.299C166.433 224.707 176.312 222.793 185.536 225.266C185.772 225.329 186.003 225.393 186.239 225.462Z" fill="#F0F0F0"/>
<path d="M186.192 225.757C174.352 228.328 163.646 234.456 155.595 243.273C153.827 245.142 152.374 247.269 151.288 249.577C150.305 251.858 149.969 254.353 150.315 256.804C150.59 259.094 151.144 261.407 150.841 263.723C150.668 264.906 150.239 266.04 149.583 267.051C148.927 268.062 148.058 268.927 147.034 269.589C144.526 271.303 141.533 272.039 138.58 272.66C135.302 273.35 131.886 274.016 129.187 276.078C128.859 276.327 128.48 275.82 128.806 275.57C133.503 271.984 139.929 272.565 145.1 269.99C147.513 268.788 149.567 266.873 150.107 264.206C150.579 261.874 150.009 259.489 149.71 257.171C149.337 254.786 149.57 252.348 150.391 250.071C151.352 247.716 152.719 245.538 154.432 243.63C158.22 239.273 162.689 235.522 167.676 232.513C173.348 229.049 179.589 226.553 186.127 225.133C186.532 225.045 186.594 225.67 186.192 225.757Z" fill="white"/>
<path d="M158.015 240.286C156.675 238.773 155.933 236.847 155.921 234.852C155.908 232.857 156.626 230.922 157.947 229.393C158.215 229.085 158.721 229.475 158.452 229.784C157.22 231.205 156.551 233.008 156.567 234.866C156.582 236.724 157.281 238.515 158.537 239.917C158.81 240.222 158.286 240.589 158.015 240.286Z" fill="white"/>
<path d="M150.017 255.66C154.202 256.002 158.366 254.8 161.678 252.293C162.006 252.044 162.386 252.551 162.059 252.8C158.606 255.403 154.271 256.645 149.917 256.28C149.502 256.245 149.605 255.625 150.017 255.66Z" fill="white"/>
<path d="M173.478 229.871C173.871 230.562 174.434 231.146 175.117 231.573C175.8 232 176.581 232.255 177.391 232.316C177.806 232.346 177.703 232.965 177.291 232.936C176.397 232.864 175.534 232.581 174.779 232.112C174.023 231.642 173.397 231 172.956 230.241C172.909 230.173 172.889 230.09 172.902 230.008C172.916 229.927 172.96 229.853 173.027 229.803C173.097 229.754 173.183 229.734 173.267 229.747C173.352 229.76 173.428 229.805 173.478 229.871Z" fill="white"/>
<path d="M243.627 220.834C243.228 220.833 242.832 220.765 242.457 220.633L235.408 218.161L235.411 218.153C234.617 217.81 233.986 217.187 233.645 216.41C233.305 215.634 233.279 214.761 233.573 213.967L252.862 162.081C253.475 160.431 254.717 159.071 256.332 158.283C257.946 157.495 259.81 157.337 261.54 157.843C263.27 158.349 264.735 159.48 265.633 161.003C266.531 162.526 266.794 164.325 266.368 166.031C266.307 166.271 266.233 166.508 266.147 166.741L246.858 218.627C246.618 219.272 246.179 219.83 245.601 220.225C245.023 220.62 244.334 220.832 243.627 220.834Z" fill="#1DB8A5"/>
<path d="M289.257 276.337H282.008C281.097 276.336 280.223 275.984 279.578 275.358C278.934 274.732 278.571 273.883 278.57 272.997V214.312C278.571 213.427 278.934 212.578 279.578 211.952C280.223 211.326 281.097 210.974 282.008 210.973H289.257C290.169 210.974 291.043 211.326 291.687 211.952C292.332 212.578 292.694 213.427 292.695 214.312V272.997C292.694 273.883 292.332 274.732 291.687 275.358C291.043 275.984 290.169 276.336 289.257 276.337Z" fill="#1DB8A5"/>
<path d="M272.955 276.337H265.706C264.795 276.336 263.921 275.984 263.276 275.358C262.632 274.732 262.269 273.883 262.268 272.997V214.312C262.269 213.427 262.632 212.578 263.276 211.952C263.921 211.326 264.795 210.974 265.706 210.973H272.955C273.867 210.974 274.741 211.326 275.385 211.952C276.03 212.578 276.392 213.427 276.393 214.312V272.997C276.392 273.883 276.03 274.732 275.385 275.358C274.741 275.984 273.867 276.336 272.955 276.337Z" fill="#1DB8A5"/>
<path d="M277.265 147.105C291.099 147.105 302.314 136.212 302.314 122.775C302.314 109.338 291.099 98.4446 277.265 98.4446C263.432 98.4446 252.217 109.338 252.217 122.775C252.217 136.212 263.432 147.105 277.265 147.105Z" fill="#1DB8A5"/>
<path d="M280.194 132.988C278.57 132.944 276.549 132.889 274.992 131.785C274.529 131.442 274.148 131.006 273.877 130.505C273.605 130.005 273.449 129.453 273.421 128.888C273.393 128.486 273.46 128.084 273.619 127.712C273.777 127.34 274.022 127.009 274.334 126.744C275.148 126.077 276.335 125.92 277.614 126.286L276.289 116.875L277.262 116.746L278.82 127.809L278.008 127.447C277.066 127.027 275.772 126.813 274.969 127.473C274.771 127.645 274.617 127.86 274.519 128.099C274.421 128.339 274.381 128.597 274.402 128.854C274.426 129.275 274.543 129.685 274.745 130.058C274.947 130.431 275.229 130.757 275.572 131.014C276.783 131.874 278.394 131.985 280.221 132.034L280.194 132.988Z" fill="#413F2E"/>
<path d="M271.476 117.687H266.186V118.641H271.476V117.687Z" fill="#413F2E"/>
<path d="M288.175 117.687H282.884V118.641H288.175V117.687Z" fill="#413F2E"/>
<path d="M311.078 220.424C310.388 220.423 309.715 220.221 309.145 219.845C308.575 219.468 308.134 218.935 307.879 218.313L286.971 167.022C286.63 166.185 286.461 165.29 286.476 164.389C286.491 163.489 286.688 162.6 287.056 161.773C287.424 160.946 287.957 160.198 288.623 159.571C289.289 158.944 290.075 158.45 290.937 158.119C291.8 157.787 292.721 157.624 293.648 157.638C294.576 157.652 295.491 157.843 296.342 158.201C297.193 158.559 297.964 159.076 298.609 159.723C299.255 160.37 299.763 161.134 300.104 161.971L321.012 213.262C321.192 213.699 321.273 214.169 321.252 214.639C321.221 215.283 321 215.904 320.615 216.429C320.23 216.953 319.698 217.359 319.081 217.596L312.341 220.188C311.939 220.344 311.51 220.424 311.078 220.424Z" fill="#1DB8A5"/>
<path d="M295.668 198.382L302.543 168.169C302.543 165.321 301.378 162.589 299.305 160.575C297.231 158.561 294.419 157.43 291.486 157.43H261.538C258.606 157.43 255.794 158.561 253.72 160.575C251.647 162.589 250.482 165.321 250.482 168.169L258.761 198.153C253.999 198.756 250.482 200.875 250.482 203.397L262.269 224.932L292.72 225.172L302.543 203.397C302.543 201.131 299.701 199.19 295.668 198.382Z" fill="#DB331D"/>
<path d="M304.962 114.024C303.716 107.858 300.309 102.303 295.322 98.3011C290.335 94.2994 284.076 92.0987 277.607 92.0729C271.139 92.0471 264.86 94.1978 259.84 98.1595C254.819 102.121 251.366 107.649 250.067 113.805C247.851 114.679 246.018 116.275 244.88 118.319C243.742 120.362 243.371 122.726 243.83 125.006C244.289 127.286 245.55 129.34 247.396 130.817C249.243 132.293 251.56 133.1 253.952 133.1V113.063C253.372 113.067 252.794 113.117 252.223 113.215C253.617 107.719 256.869 102.836 261.459 99.3488C266.049 95.8614 271.711 93.9712 277.539 93.9809C283.366 93.9906 289.022 95.8997 293.599 99.4023C298.177 102.905 301.412 107.798 302.786 113.299C302.061 113.144 301.321 113.065 300.578 113.063V133.1C302.923 133.101 305.198 132.326 307.028 130.903C308.858 129.479 310.134 127.492 310.645 125.269C311.155 123.046 310.871 120.721 309.838 118.677C308.805 116.632 307.085 114.991 304.962 114.024Z" fill="#FFE815"/>
<path d="M290.342 111.611C285.841 109.441 280.793 108.57 275.797 109.103C273.074 109.372 270.362 109.786 267.65 110.144C265.378 110.444 262.795 110.841 260.715 109.642C257.183 107.606 256.554 102.666 257.306 99.1064C257.699 97.1543 258.521 95.3075 259.715 93.6915C260.909 92.0756 262.448 90.7285 264.226 89.742C266.34 88.6359 268.705 88.0591 271.107 88.0637C273.508 88.0683 275.871 88.654 277.98 89.7681C278.15 89.8583 278.35 89.882 278.537 89.8343C278.724 89.7865 278.886 89.671 278.988 89.5114C281.622 86.0522 285.192 83.1211 289.392 81.6467C293.273 80.3378 297.46 80.1423 301.453 81.0834C305.507 82.0067 309.292 83.8152 312.519 86.3715C315.879 89.0991 318.618 92.477 320.559 96.2897C324.889 104.534 325.891 113.995 325.566 123.123C325.376 128.434 324.765 133.72 324.16 138.999C323.857 141.642 323.554 144.285 323.306 146.933C323.022 149.2 323.018 151.491 323.294 153.758C323.578 155.891 324.514 157.892 325.982 159.501C327.385 160.934 329.15 161.985 331.102 162.547C335.497 163.873 340.149 162.746 344.068 160.62C345.112 160.048 346.119 159.415 347.084 158.724C347.842 158.186 347.108 156.944 346.34 157.488C342.618 160.13 337.983 162.299 333.25 161.567C331.237 161.288 329.344 160.47 327.782 159.206C326.162 157.787 325.1 155.864 324.78 153.767C324.365 151.48 324.574 149.113 324.791 146.817C325.041 144.168 325.344 141.525 325.646 138.882C326.256 133.565 326.869 128.24 327.047 122.889C327.352 113.732 326.281 104.304 322.054 95.9967C320.139 92.1218 317.443 88.66 314.124 85.8168C310.939 83.1474 307.2 81.1751 303.161 80.0336C299.201 78.8897 295.002 78.7689 290.979 79.6831C286.691 80.7901 282.824 83.0803 279.846 86.2766C279.088 87.0747 278.377 87.9135 277.716 88.7891L278.724 88.5323C276.724 87.4704 274.512 86.8372 272.239 86.6755C269.966 86.5137 267.683 86.8271 265.545 87.5945C263.469 88.3667 261.589 89.5649 260.034 91.1073C258.478 92.6497 257.284 94.5 256.532 96.5318C255.065 100.377 255.069 105.264 257.605 108.706C258.266 109.624 259.133 110.384 260.141 110.929C261.149 111.474 262.271 111.789 263.423 111.85C264.711 111.903 266.001 111.828 267.273 111.625C268.695 111.441 270.116 111.25 271.537 111.063C274.667 110.65 277.798 110.188 280.963 110.456C283.971 110.718 286.9 111.529 289.598 112.847C290.444 113.259 291.191 112.024 290.342 111.611Z" fill="#FFE70C"/>
<path d="M390.415 277H72.5025C72.3477 277 72.1994 276.939 72.0901 276.833C71.9808 276.727 71.9194 276.582 71.9194 276.432C71.9194 276.282 71.9808 276.137 72.0901 276.031C72.1994 275.924 72.3477 275.864 72.5025 275.864H390.415C390.57 275.864 390.718 275.924 390.828 276.031C390.937 276.137 390.998 276.282 390.998 276.432C390.998 276.582 390.937 276.727 390.828 276.833C390.718 276.939 390.57 277 390.415 277Z" fill="#3F3D56"/>
<path d="M160.603 78.2378C160.603 81.5874 160.383 84.9336 159.945 88.2561H1.14929C0.711214 84.9336 0.491417 81.5874 0.49124 78.2378C0.482215 68.0205 2.54627 57.9017 6.56542 48.4596C10.5846 39.0175 16.48 30.4373 23.9148 23.2095C31.3496 15.9817 40.1779 10.2479 49.8952 6.33586C59.6126 2.42384 70.0283 0.410278 80.5472 0.410278C91.0661 0.410278 101.482 2.42384 111.199 6.33586C120.917 10.2479 129.745 15.9817 137.18 23.2095C144.614 30.4373 150.51 39.0175 154.529 48.4596C158.548 57.9017 160.612 68.0205 160.603 78.2378Z" fill="#F0F0F0"/>
<path d="M80.5471 156.476C40.1494 156.476 5.80625 127.174 0.662091 88.317C0.222359 84.9743 0.00122642 81.6078 2.94712e-05 78.2379C-0.00902355 67.9579 2.06771 57.777 6.11153 48.277C10.1553 38.7771 16.087 30.1443 23.5674 22.8721C31.0478 15.6 39.9303 9.83103 49.7072 5.89502C59.4841 1.95901 69.9637 -0.0668945 80.5471 -0.0668945C91.1305 -0.0668945 101.61 1.95901 111.387 5.89502C121.164 9.83103 130.047 15.6 137.527 22.8721C145.007 30.1443 150.939 38.7771 154.983 48.277C159.027 57.777 161.103 67.9579 161.094 78.2379C161.093 81.6077 160.872 84.9741 160.432 88.3168C155.288 127.174 120.945 156.476 80.5471 156.476ZM80.5471 0.954181C43.4336 0.954181 10.7458 26.4774 2.82259 61.6429C1.59702 67.0942 0.980031 72.6581 0.982311 78.2379C0.983515 81.5672 1.20199 84.8931 1.63641 88.1956C6.71775 126.578 40.642 155.522 80.5471 155.522C120.452 155.522 154.377 126.578 159.458 88.1954C159.892 84.893 160.111 81.5672 160.112 78.2379C160.114 72.6581 159.497 67.0943 158.272 61.6429C150.349 26.4774 117.661 0.954181 80.5471 0.954181Z" fill="#3F3D56"/>
<path d="M131.1 102.882H29.9942C29.5029 102.882 29.0317 103.072 28.6842 103.409C28.3368 103.747 28.1416 104.204 28.1416 104.682C28.1416 105.159 28.3368 105.617 28.6842 105.954C29.0317 106.292 29.5029 106.481 29.9942 106.481H131.1C131.59 106.481 132.061 106.291 132.408 105.953C132.755 105.616 132.949 105.159 132.949 104.682C132.949 104.205 132.755 103.748 132.408 103.41C132.061 103.073 131.59 102.883 131.1 102.882Z" fill="#CACACA"/>
<path d="M96.5173 102.882V106.481H29.9947C29.5038 106.481 29.0334 106.291 28.6866 105.953C28.3398 105.616 28.145 105.159 28.145 104.682C28.145 104.205 28.3398 103.748 28.6866 103.41C29.0334 103.073 29.5038 102.883 29.9947 102.882H96.5173Z" fill="#1DB8A5"/>
<path d="M96.5168 108.281C98.5632 108.281 100.222 106.669 100.222 104.682C100.222 102.694 98.5632 101.083 96.5168 101.083C94.4704 101.083 92.8115 102.694 92.8115 104.682C92.8115 106.669 94.4704 108.281 96.5168 108.281Z" fill="#1DB8A5"/>
<path d="M80.5469 138.693C78.7147 138.693 76.9237 138.165 75.4003 137.176C73.8769 136.187 72.6895 134.782 71.9884 133.138C71.2872 131.494 71.1038 129.684 71.4612 127.939C71.8187 126.194 72.7009 124.59 73.9965 123.332C75.292 122.073 76.9427 121.216 78.7397 120.869C80.5367 120.522 82.3993 120.7 84.092 121.381C85.7847 122.062 87.2315 123.216 88.2495 124.695C89.2674 126.175 89.8107 127.915 89.8107 129.694C89.8079 132.08 88.831 134.367 87.0943 136.054C85.3576 137.741 83.003 138.69 80.5469 138.693ZM80.5469 121.388C78.8557 121.388 77.2024 121.876 75.7962 122.788C74.3899 123.701 73.2939 124.998 72.6467 126.516C71.9995 128.034 71.8302 129.704 72.1601 131.315C72.4901 132.926 73.3045 134.406 74.5004 135.568C75.6963 136.729 77.2199 137.52 78.8787 137.841C80.5375 138.161 82.2568 137.997 83.8193 137.368C85.3818 136.74 86.7173 135.675 87.6569 134.309C88.5966 132.943 89.0981 131.337 89.0981 129.694C89.0955 127.492 88.1937 125.381 86.5907 123.824C84.9876 122.267 82.8141 121.391 80.5469 121.388Z" fill="#1DB8A5"/>
<path d="M79.3236 134.54C79.2291 134.54 79.1385 134.503 79.0716 134.438C79.0048 134.373 78.9673 134.285 78.9673 134.193V125.195C78.9673 125.15 78.9765 125.105 78.9944 125.063C79.0123 125.021 79.0385 124.983 79.0716 124.951C79.1047 124.918 79.144 124.893 79.1872 124.876C79.2305 124.858 79.2768 124.849 79.3236 124.849C79.3704 124.849 79.4167 124.858 79.4599 124.876C79.5032 124.893 79.5424 124.918 79.5755 124.951C79.6086 124.983 79.6348 125.021 79.6528 125.063C79.6707 125.105 79.6799 125.15 79.6799 125.195V134.193C79.6799 134.285 79.6423 134.373 79.5755 134.438C79.5087 134.503 79.4181 134.54 79.3236 134.54Z" fill="#1DB8A5"/>
<path d="M81.7704 134.54C81.6759 134.54 81.5852 134.503 81.5184 134.438C81.4516 134.373 81.4141 134.285 81.4141 134.193V125.195C81.4141 125.15 81.4233 125.105 81.4412 125.063C81.4591 125.021 81.4853 124.983 81.5184 124.951C81.5515 124.918 81.5908 124.893 81.634 124.876C81.6772 124.858 81.7236 124.849 81.7704 124.849C81.8172 124.849 81.8635 124.858 81.9067 124.876C81.9499 124.893 81.9892 124.918 82.0223 124.951C82.0554 124.983 82.0816 125.021 82.0995 125.063C82.1174 125.105 82.1267 125.15 82.1267 125.195V134.193C82.1267 134.285 82.0891 134.373 82.0223 134.438C81.9555 134.503 81.8649 134.54 81.7704 134.54Z" fill="#1DB8A5"/>
<path d="M38.1172 129.694C38.1172 127.915 38.6605 126.175 39.6784 124.695C40.6963 123.216 42.1431 122.062 43.8358 121.381C45.5286 120.7 47.3912 120.522 49.1882 120.869C50.9852 121.216 52.6358 122.073 53.9314 123.332C55.2269 124.59 56.1092 126.194 56.4667 127.939C56.8241 129.684 56.6406 131.494 55.9395 133.138C55.2383 134.782 54.051 136.187 52.5276 137.176C51.0042 138.165 49.2131 138.693 47.3809 138.693C44.9249 138.69 42.5702 137.741 40.8335 136.054C39.0969 134.367 38.12 132.08 38.1172 129.694ZM38.8298 129.694C38.8298 131.337 39.3313 132.943 40.2709 134.309C41.2105 135.675 42.546 136.74 44.1085 137.368C45.6711 137.997 47.3904 138.161 49.0492 137.841C50.7079 137.52 52.2316 136.729 53.4275 135.568C54.6234 134.406 55.4378 132.926 55.7678 131.315C56.0977 129.704 55.9284 128.034 55.2811 126.516C54.6339 124.998 53.5379 123.701 52.1317 122.788C50.7255 121.876 49.0722 121.388 47.3809 121.388C45.1138 121.391 42.9403 122.267 41.3372 123.824C39.7341 125.381 38.8324 127.492 38.8298 129.694Z" fill="#3F3D56"/>
<path d="M51.3822 132.724C51.4475 132.724 51.5109 132.703 51.5627 132.664C51.6145 132.626 51.6517 132.572 51.6686 132.511C51.6856 132.449 51.6812 132.384 51.6563 132.326C51.6313 132.267 51.5871 132.218 51.5306 132.187L47.0862 129.694L51.5306 127.202C51.5984 127.164 51.6478 127.101 51.6679 127.027C51.6881 126.954 51.6774 126.875 51.6382 126.809C51.599 126.743 51.5345 126.695 51.4588 126.675C51.3831 126.655 51.3024 126.665 51.2343 126.703L46.3454 129.445C46.3004 129.47 46.263 129.507 46.237 129.55C46.2109 129.594 46.1973 129.644 46.1973 129.694C46.1973 129.745 46.2109 129.794 46.237 129.838C46.263 129.882 46.3004 129.918 46.3454 129.944L51.2343 132.685C51.2793 132.711 51.3303 132.724 51.3822 132.724Z" fill="#3F3D56"/>
<path d="M44.8266 133.724C44.9052 133.724 44.9805 133.693 45.0361 133.639C45.0917 133.585 45.1229 133.512 45.1229 133.436V125.953C45.123 125.915 45.1155 125.877 45.1007 125.842C45.0859 125.807 45.0641 125.775 45.0365 125.749C45.009 125.722 44.9763 125.7 44.9402 125.686C44.9042 125.671 44.8656 125.664 44.8266 125.664C44.7876 125.664 44.7489 125.671 44.7129 125.686C44.6769 125.7 44.6442 125.722 44.6166 125.749C44.5891 125.775 44.5673 125.807 44.5525 125.842C44.5377 125.877 44.5301 125.915 44.5303 125.953V133.436C44.5303 133.512 44.5615 133.585 44.6171 133.639C44.6726 133.693 44.748 133.724 44.8266 133.724Z" fill="#3F3D56"/>
<path d="M113.713 138.693C111.881 138.693 110.09 138.165 108.567 137.176C107.043 136.187 105.856 134.782 105.155 133.138C104.454 131.494 104.27 129.684 104.628 127.939C104.985 126.194 105.867 124.59 107.163 123.332C108.459 122.073 110.109 121.216 111.906 120.869C113.703 120.522 115.566 120.7 117.259 121.381C118.951 122.062 120.398 123.216 121.416 124.695C122.434 126.175 122.977 127.915 122.977 129.694C122.974 132.08 121.998 134.367 120.261 136.054C118.524 137.741 116.169 138.69 113.713 138.693ZM113.713 121.388C112.022 121.388 110.369 121.876 108.963 122.788C107.556 123.701 106.46 124.998 105.813 126.516C105.166 128.034 104.997 129.704 105.327 131.315C105.657 132.926 106.471 134.406 107.667 135.568C108.863 136.729 110.386 137.52 112.045 137.841C113.704 138.161 115.423 137.997 116.986 137.368C118.548 136.74 119.884 135.675 120.823 134.309C121.763 132.943 122.265 131.337 122.265 129.694C122.262 127.492 121.36 125.381 119.757 123.824C118.154 122.267 115.981 121.391 113.713 121.388Z" fill="#3F3D56"/>
<path d="M109.712 132.724C109.647 132.724 109.583 132.703 109.532 132.664C109.48 132.626 109.443 132.572 109.426 132.511C109.409 132.449 109.413 132.384 109.438 132.326C109.463 132.267 109.507 132.218 109.564 132.187L114.008 129.694L109.564 127.202C109.496 127.164 109.447 127.101 109.426 127.027C109.406 126.954 109.417 126.875 109.456 126.809C109.495 126.743 109.56 126.695 109.636 126.675C109.711 126.655 109.792 126.665 109.86 126.703L114.749 129.445C114.794 129.47 114.831 129.507 114.857 129.55C114.883 129.594 114.897 129.644 114.897 129.694C114.897 129.745 114.883 129.794 114.857 129.838C114.831 129.882 114.794 129.918 114.749 129.944L109.86 132.685C109.815 132.711 109.764 132.724 109.712 132.724Z" fill="#3F3D56"/>
<path d="M116.267 133.724C116.189 133.724 116.114 133.693 116.058 133.639C116.002 133.585 115.971 133.512 115.971 133.436V125.953C115.971 125.915 115.979 125.877 115.993 125.842C116.008 125.807 116.03 125.775 116.058 125.749C116.085 125.722 116.118 125.7 116.154 125.686C116.19 125.671 116.228 125.664 116.267 125.664C116.306 125.664 116.345 125.671 116.381 125.686C116.417 125.7 116.45 125.722 116.477 125.749C116.505 125.775 116.527 125.807 116.542 125.842C116.556 125.877 116.564 125.915 116.564 125.953V133.436C116.564 133.512 116.533 133.585 116.477 133.639C116.421 133.693 116.346 133.724 116.267 133.724Z" fill="#3F3D56"/>
<path d="M98.936 70.8435H74.9281C73.3578 70.8417 71.8524 70.2351 70.7421 69.1566C69.6317 68.0781 69.0071 66.6158 69.0054 65.0905V41.771C69.0071 40.2457 69.6317 38.7835 70.7421 37.705C71.8524 36.6265 73.3578 36.0198 74.9281 36.0181H98.936C100.506 36.0198 102.012 36.6265 103.122 37.705C104.232 38.7835 104.857 40.2457 104.859 41.771V65.0905C104.857 66.6158 104.232 68.0781 103.122 69.1566C102.012 70.2351 100.506 70.8417 98.936 70.8435Z" fill="white"/>
<path d="M89.6044 63.9261H65.5965C63.9611 63.9243 62.3933 63.2925 61.2369 62.1693C60.0805 61.0461 59.4301 59.5231 59.4282 57.9347V34.6151C59.4301 33.0266 60.0805 31.5037 61.2369 30.3805C62.3933 29.2573 63.9611 28.6254 65.5965 28.6237H89.6044C91.2397 28.6254 92.8076 29.2573 93.964 30.3805C95.1203 31.5037 95.7708 33.0266 95.7727 34.6151V57.9347C95.7708 59.5231 95.1203 61.0461 93.964 62.1693C92.8076 63.2925 91.2397 63.9243 89.6044 63.9261ZM65.5965 29.5778C64.2216 29.5793 62.9034 30.1105 61.9312 31.0548C60.9589 31.9992 60.4121 33.2796 60.4105 34.6151V57.9347C60.4121 59.2702 60.9589 60.5506 61.9312 61.4949C62.9034 62.4393 64.2216 62.9705 65.5965 62.972H89.6044C90.9793 62.9705 92.2975 62.4393 93.2697 61.4949C94.2419 60.5506 94.7888 59.2702 94.7904 57.9347V34.6151C94.7888 33.2796 94.2419 31.9992 93.2697 31.0548C92.2975 30.1105 90.9793 29.5793 89.6044 29.5778H65.5965Z" fill="white"/>
</g>
<defs>
<clipPath id="clip0_75_40">
<rect width="391" height="277" fill="white"/>
</clipPath>
</defs>
</svg>
