<svg width="118" height="88" viewBox="0 0 118 88" fill="none" xmlns="http://www.w3.org/2000/svg">
<path d="M29.8803 28.8544C29.8803 28.8544 17.3669 32.5746 14.967 36.0086C12.5672 39.4427 29.8803 28.8544 29.8803 28.8544Z" fill="#3F3D56"/>
<path d="M8.25957 40.7623C8.17252 40.7679 8.08509 40.7573 8.0032 40.7312C7.9213 40.7051 7.84684 40.6642 7.78487 40.6111C7.39557 40.3084 7.71374 39.7362 7.98678 39.3319C11.6478 33.9149 30.0553 28.2064 30.837 27.9661L32.5204 27.4486L31.0789 28.3601C31.0257 28.3939 25.6706 31.7773 20.1886 34.9649C11.6659 39.9208 9.13555 40.7623 8.25957 40.7623ZM29.201 28.9786C24.3676 30.5935 11.3418 35.2618 8.43803 39.559C8.05128 40.1312 8.13312 40.2749 8.13414 40.2761C8.21241 40.3489 9.20158 40.8062 19.8332 34.6282C23.5393 32.4746 27.1957 30.2256 29.201 28.9786Z" fill="#3F3D56"/>
<path d="M29.6092 25.1386C29.6092 25.1386 18.0776 24.1154 14.5793 25.8639C11.0811 27.6124 29.6092 25.1386 29.6092 25.1386Z" fill="#3F3D56"/>
<path d="M13.8952 26.8109C9.85869 26.8109 9.58157 26.2524 9.45461 25.997C9.20095 25.486 9.90688 25.0049 10.1389 24.8468C15.1442 21.4356 30.3471 24.8829 30.9919 25.0312L32.2283 25.3158L30.9615 25.472C30.9106 25.4782 25.8168 26.1036 20.6764 26.4951C17.6785 26.7235 15.4924 26.8109 13.8952 26.8109ZM17.4325 23.805C14.5894 23.805 11.9885 24.1605 10.4626 25.2004C10.0022 25.5141 9.888 25.7258 9.93466 25.8193C10.0517 26.0548 11.1686 26.7669 20.6305 26.0462C24.1564 25.7776 27.66 25.3988 29.5209 25.1863C27.1366 24.7126 21.9753 23.805 17.4325 23.805Z" fill="#3F3D56"/>
<path d="M32.9094 23.3855C32.9094 23.3855 27.1091 11.3636 28.5144 10.1737C29.9198 8.98372 32.9094 23.3855 32.9094 23.3855Z" fill="#3F3D56"/>
<path d="M33.23 24.4429L32.5088 22.8522C32.4912 22.8133 30.7265 18.9113 29.2723 14.894C26.277 6.62063 27.5048 5.91413 27.9081 5.68196C28.0076 5.62038 28.1246 5.58317 28.2466 5.57428C28.3687 5.56539 28.4912 5.58515 28.6013 5.63146C30.8636 6.54141 32.7984 21.0894 33.0115 22.7453L33.23 24.4429ZM28.3053 6.02317C28.2663 6.02482 28.2288 6.03659 28.1977 6.05695C26.7563 6.88647 29.6784 15.0533 32.2472 20.9974C31.3661 14.8683 29.7437 6.58817 28.3808 6.03989C28.3574 6.02956 28.3316 6.02384 28.3053 6.02317Z" fill="#3F3D56"/>
<path d="M35.1017 26.029C35.1017 26.029 38.2149 13.8776 41.4764 13.8776C44.7379 13.8776 35.1017 26.029 35.1017 26.029Z" fill="#3F3D56"/>
<path d="M34.2802 26.8676L34.5881 25.867C34.8143 25.1334 40.1897 7.89752 46.0661 7.89752C46.8718 7.89752 47.2192 8.22376 47.3691 8.49741C48.936 11.3618 36.4688 24.5713 35.0422 26.0681L34.2802 26.8676ZM46.0661 8.34821C41.3757 8.34821 36.7133 21.1445 35.4348 24.9371C39.6416 20.4255 48.0266 10.7551 46.897 8.68985C46.8506 8.60535 46.7101 8.34821 46.0661 8.34821Z" fill="#3F3D56"/>
<path d="M36.9291 26.1503C36.9291 26.1503 47.6326 20.312 69.5618 22.0942C91.4909 23.8763 36.9291 26.1503 36.9291 26.1503Z" fill="#3F3D56"/>
<path d="M36.1989 26.3938L36.7592 25.9792C36.8727 25.8952 39.6013 23.9043 45.0686 22.3033C50.0996 20.8296 58.4862 19.4415 69.8686 21.1963C74.6775 21.9375 75.3019 22.4899 75.2601 22.9763C75.2188 23.457 75.1219 24.5826 55.9079 25.6261C46.5187 26.136 37.0312 26.3732 36.9364 26.3755L36.1989 26.3938ZM59.5383 20.8273C47.1746 20.8273 39.8652 24.6193 37.7458 25.903C40.2547 25.8337 48.0996 25.5986 55.8763 25.1762C73.7304 24.2065 74.7219 23.1458 74.7392 22.943C74.7413 22.9213 74.728 22.4031 69.7768 21.6399C66.3984 21.1088 62.9722 20.8369 59.5383 20.8273Z" fill="#3F3D56"/>
<path d="M43.7166 26.835C43.7166 26.835 62.4653 26.619 63.5187 28.347C64.572 30.075 43.7166 26.835 43.7166 26.835Z" fill="#3F3D56"/>
<path d="M65.9196 31.2506C59.9351 31.2506 45.5503 27.5414 43.641 27.042L42.0764 26.6328L43.7109 26.6011C46.1091 26.5548 67.1801 26.2522 68.5055 29.9139C68.6626 30.3476 68.4805 30.6259 68.3 30.783C67.9227 31.1114 67.0786 31.2506 65.9196 31.2506ZM45.4269 27.0311C54.2211 29.2559 66.4323 31.7697 67.9293 30.4657C68.0104 30.395 68.0925 30.2838 68.0074 30.0483C67.0656 27.4469 52.6945 26.9885 45.4269 27.0311Z" fill="#3F3D56"/>
<path d="M40.0616 28.629C40.0616 28.629 51.386 33.1471 49.1732 34.5372C46.9604 35.9274 40.0616 28.629 40.0616 28.629Z" fill="#3F3D56"/>
<path d="M56.2293 40.0035C50.7513 40.0035 39.5976 28.6303 39.0788 28.0981L38.3445 27.3447L39.3855 27.7474C40.1449 28.0413 57.9912 34.985 58.3817 38.4631C58.4335 38.9243 58.1989 39.3277 57.7036 39.6296C57.27 39.885 56.754 40.0159 56.2293 40.0035ZM40.2472 28.582C44.5542 32.8473 54.1369 41.2517 57.4022 39.2614C57.75 39.0496 57.8961 38.8098 57.8622 38.5065C57.5812 36.0059 45.9191 30.8495 40.2472 28.582Z" fill="#3F3D56"/>
<path d="M58.8582 34.0373C58.8582 34.0373 68.2563 37.4174 66.1679 39.6708C64.0794 41.9242 58.8582 34.0373 58.8582 34.0373Z" fill="#3F3D56"/>
<path d="M41.3672 31.3332C41.3672 31.3332 60.9468 49.8113 59.1193 50.938C57.2919 52.0647 41.3672 31.3332 41.3672 31.3332Z" fill="#3F3D56"/>
<path d="M37.7122 29.9811C37.7122 29.9811 45.9557 41.8321 44.2734 42.9843C42.591 44.1365 37.7122 29.9811 37.7122 29.9811Z" fill="#3F3D56"/>
<path d="M47.0428 47.4236C46.94 47.423 46.8379 47.4082 46.7405 47.3798C43.7184 46.5229 37.6273 31.1295 36.9428 29.377L36.334 27.8186L37.406 29.1783C37.4379 29.2189 40.642 33.2897 43.4854 37.5011C48.7418 45.2866 48.3061 46.8175 47.5211 47.2918C47.3815 47.3777 47.2143 47.4238 47.0428 47.4236ZM38.1015 30.893C40.3233 36.3371 44.7963 46.3542 46.9034 46.9518C46.955 46.9706 47.0113 46.9777 47.067 46.9726C47.1227 46.9675 47.1759 46.9502 47.2218 46.9225C47.6532 46.662 48.1088 45.2444 43.0354 37.7298C41.2355 35.0638 39.2898 32.4534 38.1015 30.893Z" fill="#3F3D56"/>
<path d="M34.2247 29.5304C34.2247 29.5304 26.8055 48.4271 31.3582 48.2323C35.9109 48.0375 34.2247 29.5304 34.2247 29.5304Z" fill="#3F3D56"/>
<path d="M29.5114 51.3904C28.7124 51.3904 28.098 51.1208 27.684 50.5883C24.7468 46.8096 33.4477 30.145 33.8194 29.4374L34.2164 28.6822L34.3168 29.5069C34.3992 30.1817 36.2834 46.0844 32.0149 50.3328C31.3401 51.0042 30.5373 51.3594 29.6289 51.3884C29.5894 51.3898 29.5501 51.3904 29.5114 51.3904ZM33.8893 30.4176C32.1692 33.8316 25.6885 47.2123 28.1176 50.3372C28.4485 50.7633 28.9365 50.9606 29.6095 50.9382C30.3785 50.9136 31.0362 50.6189 31.6205 50.0375C35.1887 46.4861 34.2248 33.8489 33.8893 30.4176Z" fill="#3F3D56"/>
<path d="M31.6622 30.4698C31.6622 30.4698 19.2084 42.765 20.3481 44.0599C21.4879 45.3549 31.6622 30.4698 31.6622 30.4698Z" fill="#3F3D56"/>
<path d="M16.6014 48.5422C16.4365 48.5445 16.2755 48.4985 16.1448 48.4117C16.056 48.3494 15.9837 48.2715 15.9326 48.1831C15.8815 48.0948 15.8529 47.998 15.8485 47.8994C15.5357 44.8449 32.1134 28.9289 32.819 28.2529L34.4879 26.6546L33.2389 28.5166C32.7066 29.3102 20.165 47.9577 16.7878 48.5259C16.7264 48.5365 16.664 48.5419 16.6014 48.5422ZM31.4459 30.2627C25.9534 35.6471 16.1514 45.7393 16.3686 47.8598C16.3667 47.8967 16.3744 47.9334 16.3912 47.9674C16.408 48.0014 16.4334 48.0317 16.4655 48.0561C16.4977 48.075 16.5344 48.0874 16.573 48.0922C16.6115 48.0969 16.6508 48.094 16.6878 48.0836C19.0218 47.691 27.1751 36.4668 31.4459 30.2627Z" fill="#3F3D56"/>
<path d="M27.9243 22.1904C27.9243 22.1904 17.0667 11.1199 7.02635 12.1928C-3.01395 13.2657 27.9243 22.1904 27.9243 22.1904Z" fill="#3F3D56"/>
<path d="M29.3715 22.7078L28.517 22.5392C28.4484 22.5257 21.5861 21.1671 14.8016 19.434C0.908761 15.8852 0.863891 14.2534 0.849366 13.7172C0.83152 13.0702 1.59456 12.5698 3.18209 12.1873C9.07355 10.7678 15.7258 13.5639 20.2673 16.1601C23.3171 17.9196 26.1623 19.93 28.763 22.163L29.3715 22.7078ZM6.55369 12.2528C5.46213 12.248 4.37493 12.3721 3.3223 12.6215C2.05319 12.9272 1.36051 13.3125 1.37122 13.7065C1.43062 15.87 16.8378 19.728 27.7335 21.9205C25.1578 19.7878 15.427 12.2528 6.55369 12.2528Z" fill="#3F3D56"/>
<path d="M19.4379 21.4181C19.4379 21.4181 5.07959 20.5168 6.12384 22.7702C7.16808 25.0236 19.4379 21.4181 19.4379 21.4181Z" fill="#3F3D56"/>
<path d="M23.0929 13.0804C23.0929 13.0804 22.3098 9.92561 21.0044 10.6016C19.6991 11.2777 23.0929 13.0804 23.0929 13.0804Z" fill="#3F3D56"/>
<path d="M36.3198 15.3126C36.3198 15.3126 39.9021 2.31907 38.2785 2.2714C36.6549 2.22373 36.3198 15.3126 36.3198 15.3126Z" fill="#3F3D56"/>
<path d="M35.653 18.1895L35.6237 16.4639C35.6143 15.9096 35.4152 2.86948 37.3792 1.14882C37.4543 1.07643 37.5457 1.01806 37.6478 0.977316C37.75 0.936574 37.8608 0.91432 37.9733 0.911926C38.0824 0.912311 38.19 0.934897 38.2872 0.977852C38.3843 1.02081 38.4684 1.08292 38.5326 1.15917C40.0439 2.83009 36.5423 15.1194 36.1379 16.5152L35.653 18.1895ZM37.9733 1.36261C37.9472 1.36261 37.8682 1.36261 37.7512 1.46516C36.4541 2.60156 36.153 10.1614 36.1354 14.6074C37.5732 9.30968 39.0387 2.45081 38.1211 1.43655C38.1058 1.41441 38.0841 1.396 38.0583 1.38306C38.0324 1.37013 38.0031 1.36309 37.9733 1.36261Z" fill="#3F3D56"/>
<path d="M52.8538 17.1365C52.8538 17.1365 54.4201 13.7564 55.9865 14.6578C57.5529 15.5591 52.8538 17.1365 52.8538 17.1365Z" fill="#3F3D56"/>
<path d="M37.9733 47.1071C37.9733 47.1071 35.8849 60.4023 39.8008 60.177C43.7167 59.9516 37.9733 47.1071 37.9733 47.1071Z" fill="#3F3D56"/>
<path d="M48.8979 44.0836C48.8979 44.0836 46.8968 41.2049 46.8968 39.1898C46.8968 39.1898 43.3951 36.0233 44.3956 35.1596C45.3961 34.296 47.5638 37.6065 47.5638 37.6065C47.5638 37.6065 43.5619 33.7203 44.7291 33.1445C45.8964 32.5688 49.7316 36.8869 49.7316 36.8869L51.0656 36.3111C51.0656 36.3111 48.2322 30.2788 50.2319 30.1219C51.149 30.0499 53.2334 35.8793 53.2334 35.8793L55.4011 40.6292C55.4011 40.6292 56.2349 42.3564 55.9014 43.364C55.6982 43.98 55.5312 44.6045 55.4011 45.2351L48.8979 44.0836Z" fill="#FFB9B9"/>
<path opacity="0.1" d="M54.0671 44.8033C54.0671 44.8033 55.2343 43.22 54.8119 40.8024C54.3895 38.3848 52.0661 37.0308 52.0661 37.0308C52.0661 37.0308 50.5653 38.0383 52.0661 40.6291C52.0661 40.6291 50.2318 42.0685 51.7326 44.3715" fill="black"/>
<path d="M54.7342 44.8033C54.7342 44.8033 55.9014 43.22 55.479 40.8024C55.0566 38.3848 52.7332 37.0308 52.7332 37.0308C52.7332 37.0308 51.2324 38.0383 52.7332 40.6291C52.7332 40.6291 50.8989 42.0685 52.3997 44.3715" fill="#FFB9B9"/>
<path opacity="0.1" d="M50.1485 36.8148L49.2314 35.5914C49.2314 35.5914 44.8959 35.0157 45.3961 36.3111C45.8964 37.6065 47.8974 37.0308 47.8974 37.0308L49.0646 38.0383L50.1485 36.8148Z" fill="black"/>
<path d="M50.8988 36.7429L49.5648 35.1596C49.5648 35.1596 45.2293 34.5838 45.7296 35.8793C46.2298 37.1747 48.2308 36.5989 48.2308 36.5989L49.3981 37.6065L50.8988 36.7429Z" fill="#FFB9B9"/>
<path d="M81.8311 55.6704L80.9973 61.4278L94.0038 62.1475V55.2386L81.8311 55.6704Z" fill="#FFB9B9"/>
<path d="M117.849 87.9119L107.301 69.7025C106.671 67.9013 104.703 64.9678 98.5894 63.0831L94.0038 59.7346L90.5854 59.6286L76.9119 57.9014C76.9119 57.9014 66.4066 57.3256 59.5699 60.924L57.7356 60.2044C57.7356 60.2044 54.7341 50.9925 56.0681 44.3715L48.3976 43.7957C48.3976 43.7957 44.2289 59.4847 46.2299 64.2345C48.2309 68.9844 55.5679 72.4389 55.5679 72.4389L62.0711 78.0523L64.5724 87.84H103.592L104.213 85.2719L107.26 87.84L117.849 87.9119Z" fill="#CFCCE0"/>
<path d="M103.101 55.2394C90.8162 58.1029 78.7417 58.3053 66.9222 55.2835C65.5329 54.9282 64.583 53.8753 64.583 52.6802V22.8775C64.583 21.544 65.7585 20.4064 67.3605 20.1896C78.5102 18.6803 90.3219 18.7972 102.676 20.2459C104.308 20.4373 105.52 21.5879 105.52 22.9422V52.6171C105.52 53.8373 104.531 54.9062 103.101 55.2394Z" fill="#CFCCE0"/>
<path d="M77.7656 34.8454C77.7656 34.8454 74.9399 31.2807 76.6788 30.3426C78.4176 29.4045 81.0259 32.0311 81.0259 32.0311C81.0259 32.0311 84.2863 29.5921 86.0251 30.5302C87.764 31.4683 84.2863 34.8454 84.2863 34.8454C84.2863 34.8454 86.8946 35.4083 87.1119 36.9092C87.3293 38.4102 88.1987 42.3501 84.5036 42.5378C82.5241 42.6383 81.4179 42.1465 80.8175 41.6682C80.5989 41.4991 80.3167 41.4042 80.0232 41.4012C79.7298 41.3982 79.445 41.4873 79.2219 41.6519C77.9689 42.5631 75.7122 43.6134 74.0705 41.0368C73.4184 37.0968 77.7656 34.8454 77.7656 34.8454Z" fill="#3F3D56"/>
<path d="M98.6318 35.2207C98.6318 35.2207 101.457 31.6559 99.7186 30.7178C97.9798 29.7797 95.3715 32.4064 95.3715 32.4064C95.3715 32.4064 92.1111 29.9673 90.3723 30.9054C88.6334 31.8435 92.1111 35.2207 92.1111 35.2207C92.1111 35.2207 89.5028 35.7835 89.2855 37.2845C89.0681 38.7854 88.1987 42.7254 91.8938 42.913C93.8733 43.0135 94.9795 42.5217 95.5799 42.0434C95.7985 41.8743 96.0807 41.7795 96.3742 41.7765C96.6676 41.7735 96.9524 41.8625 97.1755 42.0271C98.4285 42.9383 100.685 43.9887 102.327 41.4121C102.979 37.4721 98.6318 35.2207 98.6318 35.2207Z" fill="#3F3D56"/>
<path d="M74.3351 44.9633C74.3351 44.9633 78.4125 47.7969 87.1071 47.6182C95.8016 47.4396 98.6133 47.1332 100.472 45.3643C102.33 43.5954 102.881 45.6384 102.304 46.9777C101.727 48.3169 100.986 50.6022 96.6543 50.9726C93.8028 51.2165 87.6397 51.2743 83.7612 51.2853C80.7464 51.3069 77.7657 50.7345 75.0459 49.6118C75.0099 49.5967 74.9741 49.5816 74.9384 49.5664C74.1134 49.2147 73.4187 48.6708 72.9329 47.9963C72.4471 47.3217 72.1895 46.5433 72.1892 45.749C72.1895 45.1179 72.3182 44.7769 72.7942 44.6526C73.652 44.4286 74.3351 44.9633 74.3351 44.9633Z" fill="#3F3D56"/>
<path d="M86.8075 57.9454C80.1622 57.9484 73.5547 57.0832 67.2094 55.3792C66.4244 55.1717 65.7376 54.7518 65.2501 54.1816C64.7627 53.6115 64.5005 52.9211 64.5022 52.2125V17.2985C64.4995 16.5124 64.8218 15.7513 65.4111 15.152C66.0004 14.5526 66.818 14.1544 67.717 14.0289C79.6916 12.3253 92.9509 12.3474 107.127 14.0945C108.039 14.2109 108.873 14.6058 109.477 15.2076C110.081 15.8094 110.415 16.5781 110.419 17.3744V52.1387C110.415 52.8603 110.141 53.5614 109.636 54.1367C109.131 54.7119 108.424 55.1301 107.62 55.3284C100.678 57.0288 93.8155 57.909 87.2224 57.9444C87.0846 57.9451 86.9455 57.9454 86.8075 57.9454ZM86.3456 13.0121C80.1221 12.9942 73.9072 13.415 67.7631 14.2703C66.9305 14.3866 66.1732 14.7554 65.6274 15.3105C65.0816 15.8656 64.7832 16.5705 64.7856 17.2985V52.2125C64.7841 52.8689 65.027 53.5084 65.4786 54.0365C65.9302 54.5646 66.5665 54.9534 67.2937 55.1455C79.9625 58.5497 93.504 58.532 107.542 55.0931C108.287 54.9095 108.942 54.5222 109.41 53.9894C109.877 53.4566 110.132 52.8071 110.135 52.1387V17.3744C110.132 16.637 109.823 15.9249 109.263 15.3676C108.704 14.8102 107.932 14.4444 107.087 14.3367C100.218 13.4729 93.2868 13.0303 86.3456 13.0121Z" fill="#3F3D56"/>
<path d="M85.475 18.1888C82.3525 18.1888 79.6805 18.0679 77.4927 17.904C70.6116 17.3889 66.9037 16.3491 66.8671 16.3387L66.9559 16.1063C66.9923 16.1167 70.6779 17.1492 77.5305 17.6613C83.8551 18.1341 94.2483 18.2472 107.842 16.1022L107.893 16.3429C98.9624 17.752 91.4072 18.1888 85.475 18.1888Z" fill="#3F3D56"/>
</svg>
