<svg width="117" height="87" viewBox="0 0 117 87" fill="none" xmlns="http://www.w3.org/2000/svg">
<path d="M17.2112 56.0412C17.2112 56.0412 13.6649 48.8508 15.4435 42.8598C16.2065 40.3516 16.1141 37.6697 15.1802 35.217C14.7291 34.0561 14.1698 32.9379 13.5095 31.8765" stroke="#535461" stroke-width="2" stroke-miterlimit="10"/>
<path d="M14.6029 28.094C14.7583 29.0199 13.488 31.9785 13.488 31.9785C13.488 31.9785 11.3199 29.567 11.1645 28.6411C11.0901 28.1966 11.1998 27.7414 11.4696 27.3758C11.7394 27.0102 12.1471 26.764 12.6031 26.6915C13.059 26.6189 13.5259 26.7259 13.9009 26.9889C14.2759 27.252 14.5284 27.6495 14.6029 28.094Z" fill="#1CF308"/>
<path d="M18.3035 32.7708C17.9183 33.6304 15.203 35.4412 15.203 35.4412C15.203 35.4412 14.7259 32.2679 15.1123 31.4083C15.2976 30.9957 15.6435 30.6718 16.0738 30.5078C16.5041 30.3439 16.9835 30.3533 17.4067 30.5339C17.8299 30.7146 18.1621 31.0518 18.3303 31.4713C18.4985 31.8908 18.4889 32.3582 18.3035 32.7708Z" fill="#1CF308"/>
<path d="M11.6219 36.1934C12.4119 36.73 15.6971 36.8931 15.6971 36.8931C15.6971 36.8931 14.402 33.9471 13.6163 33.4073C13.429 33.2733 13.216 33.1772 12.99 33.1245C12.764 33.0719 12.5295 33.0639 12.3002 33.1009C12.071 33.138 11.8517 33.2193 11.6551 33.3402C11.4586 33.4611 11.2889 33.619 11.1559 33.8048C11.0229 33.9906 10.9293 34.2004 10.8808 34.422C10.8322 34.6435 10.8295 34.8723 10.8729 35.0948C10.9164 35.3174 11.005 35.5292 11.1336 35.7179C11.2622 35.9066 11.4283 36.0682 11.6219 36.1934Z" fill="#1CF308"/>
<path d="M11.1202 44.2392C12.0376 44.5212 15.2212 43.7184 15.2212 43.7184C15.2212 43.7184 13.0844 41.2806 12.166 40.9986C11.7287 40.8751 11.2592 40.9233 10.8579 41.1329C10.4566 41.3426 10.1554 41.6969 10.0186 42.1203C9.88188 42.5436 9.92046 43.0023 10.1261 43.3983C10.3318 43.7943 10.6882 44.0961 11.1191 44.2392H11.1202Z" fill="#1CF308"/>
<path d="M11.7321 52.1135C12.5879 52.5428 15.8655 52.2766 15.8655 52.2766C15.8655 52.2766 14.1809 49.5221 13.325 49.0928C13.1216 48.9908 12.8995 48.9289 12.6716 48.9106C12.4436 48.8923 12.2141 48.918 11.9963 48.9861C11.7785 49.0542 11.5766 49.1636 11.4021 49.3078C11.2276 49.452 11.084 49.6283 10.9794 49.8267C10.8748 50.025 10.8113 50.2415 10.7925 50.4638C10.7737 50.686 10.8 50.9097 10.8699 51.1221C10.9398 51.3344 11.052 51.5313 11.1999 51.7014C11.3478 51.8715 11.5287 52.0115 11.7321 52.1135Z" fill="#1CF308"/>
<path opacity="0.25" d="M14.6029 28.094C14.7583 29.0199 13.488 31.9785 13.488 31.9785C13.488 31.9785 11.3199 29.567 11.1645 28.6411C11.0901 28.1966 11.1998 27.7414 11.4696 27.3758C11.7394 27.0102 12.1471 26.764 12.6031 26.6915C13.059 26.6189 13.5259 26.7259 13.9009 26.9889C14.2759 27.252 14.5284 27.6495 14.6029 28.094Z" fill="black"/>
<path opacity="0.25" d="M18.3035 32.7708C17.9183 33.6304 15.203 35.4412 15.203 35.4412C15.203 35.4412 14.7259 32.2679 15.1123 31.4083C15.2976 30.9957 15.6435 30.6718 16.0738 30.5078C16.5041 30.3439 16.9835 30.3533 17.4067 30.5339C17.8299 30.7146 18.1621 31.0518 18.3303 31.4713C18.4985 31.8908 18.4889 32.3582 18.3035 32.7708Z" fill="black"/>
<path opacity="0.25" d="M11.6219 36.1934C12.4119 36.73 15.6971 36.8931 15.6971 36.8931C15.6971 36.8931 14.402 33.9471 13.6163 33.4073C13.429 33.2733 13.216 33.1772 12.99 33.1245C12.764 33.0719 12.5295 33.0639 12.3002 33.1009C12.071 33.138 11.8517 33.2193 11.6551 33.3402C11.4586 33.4611 11.2889 33.619 11.1559 33.8048C11.0229 33.9906 10.9293 34.2004 10.8808 34.422C10.8322 34.6435 10.8295 34.8723 10.8729 35.0948C10.9164 35.3174 11.005 35.5292 11.1336 35.7179C11.2622 35.9066 11.4283 36.0682 11.6219 36.1934Z" fill="black"/>
<path opacity="0.25" d="M11.1202 44.2392C12.0376 44.5212 15.2212 43.7184 15.2212 43.7184C15.2212 43.7184 13.0844 41.2806 12.166 40.9986C11.7287 40.8751 11.2592 40.9233 10.8579 41.1329C10.4566 41.3426 10.1554 41.6969 10.0186 42.1203C9.88188 42.5436 9.92046 43.0023 10.1261 43.3983C10.3318 43.7943 10.6882 44.0961 11.1191 44.2392H11.1202Z" fill="black"/>
<path opacity="0.25" d="M11.7321 52.1135C12.5879 52.5428 15.8655 52.2766 15.8655 52.2766C15.8655 52.2766 14.1809 49.5221 13.325 49.0928C13.1216 48.9908 12.8995 48.9289 12.6716 48.9106C12.4436 48.8923 12.2141 48.918 11.9963 48.9861C11.7785 49.0542 11.5766 49.1636 11.4021 49.3078C11.2276 49.452 11.084 49.6283 10.9794 49.8267C10.8748 50.025 10.8113 50.2415 10.7925 50.4638C10.7737 50.686 10.8 50.9097 10.8699 51.1221C10.9398 51.3344 11.052 51.5313 11.1999 51.7014C11.3478 51.8715 11.5287 52.0115 11.7321 52.1135Z" fill="black"/>
<path d="M17.2274 55.7771C17.2274 55.7771 10.996 50.6047 10.1327 44.4244C9.78585 41.8295 8.58502 39.4142 6.71046 37.5412C5.81603 36.6591 4.84067 35.8585 3.79657 35.1497" stroke="#535461" stroke-width="2" stroke-miterlimit="10"/>
<path d="M3.22688 31.2578C3.75354 32.0427 3.82153 35.2497 3.82153 35.2497C3.82153 35.2497 0.837493 33.9019 0.310834 33.1169C0.178148 32.9305 0.0851212 32.7201 0.0372493 32.4981C-0.0106226 32.276 -0.0123696 32.0469 0.0321123 31.8242C0.0765941 31.6015 0.166402 31.3897 0.296233 31.2014C0.426063 31.0131 0.593284 30.8521 0.788017 30.7278C0.98275 30.6036 1.20105 30.5186 1.43001 30.478C1.65898 30.4374 1.89398 30.4419 2.12112 30.4913C2.34827 30.5407 2.56295 30.634 2.7525 30.7657C2.94205 30.8973 3.10262 31.0646 3.22472 31.2578H3.22688Z" fill="#1CF308"/>
<path d="M8.55384 34.0702C8.55384 35.0087 6.82709 37.7359 6.82709 37.7359C6.82709 37.7359 5.07228 35.0234 5.06797 34.086C5.06121 33.8594 5.101 33.6338 5.185 33.4225C5.26901 33.2112 5.39553 33.0184 5.55711 32.8554C5.7187 32.6925 5.91209 32.5627 6.12589 32.4737C6.3397 32.3848 6.5696 32.3384 6.80207 32.3373C7.03454 32.3363 7.26488 32.3806 7.47952 32.4676C7.69417 32.5547 7.88878 32.6827 8.05191 32.8441C8.21505 33.0056 8.3434 33.1973 8.42941 33.4078C8.51543 33.6184 8.55737 33.8436 8.55276 34.0702H8.55384Z" fill="#1CF308"/>
<path d="M13.432 41.5699C12.9496 42.3811 10.0443 43.8846 10.0443 43.8846C10.0443 43.8846 9.93639 40.6798 10.4166 39.8675C10.6482 39.4777 11.0291 39.1935 11.4756 39.0775C11.9221 38.9615 12.3975 39.0231 12.7974 39.2489C13.1973 39.4746 13.4888 39.846 13.6078 40.2813C13.7268 40.7165 13.6635 41.1801 13.432 41.5699Z" fill="#1CF308"/>
<path d="M15.8127 48.0543C15.4781 48.9329 12.875 50.8951 12.875 50.8951C12.875 50.8951 12.2146 47.7524 12.5448 46.8696C12.711 46.4544 13.0378 46.1195 13.4549 45.937C13.872 45.7546 14.3459 45.7392 14.7745 45.8942C15.2032 46.0491 15.5522 46.3621 15.7464 46.7656C15.9405 47.169 15.9644 47.6307 15.8127 48.0512V48.0543Z" fill="#1CF308"/>
<path d="M3.86794 39.8402C4.81334 40.0191 7.88371 38.8701 7.88371 38.8701C7.88371 38.8701 5.47705 36.6838 4.53274 36.5049C4.08344 36.4292 3.62161 36.5282 3.2463 36.7807C2.87099 37.0331 2.61209 37.4188 2.52511 37.8552C2.43814 38.2916 2.53002 38.7438 2.78105 39.1149C3.03208 39.4859 3.42227 39.7463 3.86794 39.8402Z" fill="#1CF308"/>
<path d="M6.75044 47.3883C7.70662 47.2831 10.2849 45.2924 10.2849 45.2924C10.2849 45.2924 7.3181 43.9078 6.36192 44.013C6.13459 44.0379 5.91451 44.1061 5.71425 44.2139C5.51399 44.3217 5.33747 44.4669 5.19477 44.6412C4.90656 44.9932 4.77359 45.4424 4.82511 45.89C4.85062 46.1117 4.92066 46.3262 5.03122 46.5215C5.14178 46.7167 5.29071 46.8888 5.46949 47.0279C5.83056 47.3089 6.29133 47.4385 6.75044 47.3883Z" fill="#1CF308"/>
<path d="M10.5849 54.3514C11.5454 54.4051 14.4323 52.8668 14.4323 52.8668C14.4323 52.8668 11.7472 51.014 10.7867 50.9593C10.3305 50.942 9.88556 51.0998 9.54749 51.3989C9.20942 51.698 9.00522 52.1145 8.97879 52.5588C8.95235 53.0032 9.10579 53.4399 9.40612 53.7751C9.70646 54.1103 10.1297 54.3172 10.5849 54.3514Z" fill="#1CF308"/>
<path d="M11.4688 72.2264L14.1096 68.5575L14.3406 68.2419L14.4787 68.0494L15.6853 66.3722H15.6475C15.2158 66.3533 11.2497 66.1965 6.98355 66.0871C7.41524 66.7668 7.85628 67.4398 8.30667 68.1062L8.43942 68.2998L8.66389 68.6238C9.38805 69.6623 10.1478 70.6755 10.9615 71.6435L11.4688 72.2264Z" fill="#3A3768"/>
<path opacity="0.1" d="M15.6853 66.3691L14.4809 68.0462L14.3427 68.2387L14.1118 68.5544H13.979H13.6844L8.66604 68.6133L8.43725 68.2956L8.30451 68.102C7.85267 67.437 7.41163 66.764 6.98138 66.0829C11.2475 66.1881 15.2169 66.3491 15.6453 66.368L15.6853 66.3691Z" fill="black"/>
<path d="M110.775 72.1286C109.659 70.6051 110.236 68.1988 110.236 68.1988C110.236 68.1988 109.905 57.6131 108.169 55.1269C108.169 55.1269 105.687 49.3527 105.274 49.1118C104.862 48.8708 102.381 47.1874 102.628 46.2647C102.628 46.2647 102.254 46.3899 101.722 46.5803C101.708 46.5456 101.695 46.5109 101.681 46.4751C101.527 46.0637 101.357 45.5797 101.195 45.0863C101.212 45.0777 101.228 45.0667 101.241 45.0536C101.254 45.0801 101.268 45.1058 101.284 45.1304C101.451 45.3788 101.767 45.4934 102.071 45.5239C102.222 45.5473 102.377 45.5276 102.517 45.4671C102.617 45.4144 102.697 45.3327 102.747 45.2336C102.727 45.242 102.707 45.2472 102.686 45.2546C102.804 45.0763 102.858 44.8651 102.84 44.6538C102.822 44.353 102.733 44.0603 102.58 43.7983C102.427 43.5363 102.215 43.312 101.959 43.1429C102.062 43.1069 102.156 43.0503 102.235 42.9767L102.277 43.0051C102.314 42.9676 102.347 42.9271 102.377 42.8841C102.344 42.9037 102.311 42.9213 102.276 42.9367C102.371 42.8401 102.44 42.7228 102.479 42.5947C102.517 42.4665 102.524 42.3313 102.498 42.2002C102.458 42.3317 102.297 42.3812 102.159 42.4106C102.078 42.4275 102.007 42.4412 101.943 42.4517C102.111 42.1409 102.25 41.8159 102.357 41.4805C102.56 40.7661 102.452 40.0075 102.281 39.2858C102.049 38.3125 101.667 37.3109 100.849 36.6764C100.478 36.4122 100.077 36.1918 99.6528 36.0199C99.2696 35.8319 98.8679 35.6821 98.4538 35.5727C98.0329 35.477 97.5904 35.4675 97.1674 35.4117C96.3342 35.3065 95.528 35.0298 94.6852 34.9846C93.8423 34.9393 92.9088 35.1855 92.4782 35.8652C92.3408 36.0694 92.2763 36.312 92.2947 36.5554C92.2961 36.5738 92.2986 36.5921 92.3023 36.6101C92.3023 36.6101 92.3023 36.6101 92.3023 36.6154C92.3476 37.0436 92.7134 37.395 93.1322 37.5687C93.2026 37.5973 93.2747 37.6219 93.348 37.6423C92.7087 38.1675 92.2146 38.8404 91.9107 39.5997C91.6069 40.3589 91.5029 41.1803 91.6084 41.9888C91.7139 42.7973 92.0255 43.5672 92.5147 44.2281C93.0039 44.889 93.6551 45.4198 94.4089 45.7723C94.4596 45.8775 94.5168 45.9764 94.5654 46.0879C95.2129 47.3926 96.0353 49.1917 96.2986 50.428C96.2986 50.4501 96.3061 50.4712 96.3105 50.4922C96.2856 50.5522 93.1991 55.9181 93.6362 56.2338L93.5088 56.3685C92.6875 57.2459 91.8371 58.2623 91.8814 58.6716C91.8814 58.6716 91.6148 58.5664 91.2014 58.3833L91.2295 58.0898L91.0255 58.1013V58.0898L90.5852 58.114C89.138 57.4711 86.9418 56.4305 86.5058 55.8476C85.9996 55.1711 83.4559 53.3225 82.2968 52.4902V48.9319H77.9584L76.7788 49.6621L77.9594 48.9319H63.3199L62.3324 48.3742L62.014 48.1932C62.0285 48.1125 62.0285 48.0299 62.014 47.9492C62.014 47.9492 56.9902 43.3197 56.742 42.4159C56.742 42.4159 56.237 41.7499 55.6628 40.9092L62.6939 41.3932C62.3896 41.2196 62.2622 40.8671 62.232 40.4515H65.3812C65.3812 40.4515 72.5752 35.9199 72.1198 34.4764C71.6644 33.0328 64.058 38.3693 64.058 38.3693H62.5763C62.6432 38.1589 62.6928 38.0284 62.6928 38.0284C62.6928 38.0284 58.9091 37.9685 58.7289 37.7128C58.5486 37.4571 56.6784 37.0036 56.6784 37.0036L57.6378 32.7151C57.9831 32.1995 58.6512 31.1779 58.9425 30.5677C59.0591 30.3236 59.0904 29.8312 59.0753 29.2535V29.2441C60.2333 28.2845 59.753 24.5094 59.7509 24.4904C60.3455 23.7289 61.0504 23.0555 61.8435 22.4914C61.9136 22.444 61.9849 22.3977 62.0593 22.3525C62.8021 22.7192 63.618 22.9234 64.45 22.9508C65.2821 22.9783 66.1103 22.8283 66.8767 22.5114C67.6432 22.1945 68.3294 21.7183 68.8876 21.116C69.4457 20.5138 69.8623 19.8 70.1081 19.0245C70.1308 18.9519 70.1524 18.8783 70.1718 18.8046C70.229 18.8257 70.2851 18.8488 70.3412 18.8688C70.4161 18.8957 70.4947 18.9117 70.5744 18.9162C70.6351 18.9255 70.6973 18.9185 70.7543 18.8961C70.8113 18.8737 70.861 18.8366 70.8981 18.7888C70.9758 18.6731 70.9413 18.5258 70.9359 18.3859H70.9305C70.9305 18.3638 70.9305 18.3406 70.9305 18.3196C70.9396 18.1957 70.9866 18.0773 71.0654 17.9797V17.9871C71.1691 17.8553 71.3014 17.7475 71.4528 17.6715C71.7129 17.5357 72.0054 17.461 72.2558 17.3085C72.4624 17.1729 72.6353 16.994 72.7617 16.7848C72.8881 16.5756 72.9649 16.3414 72.9864 16.0996L72.9799 16.1122C72.9864 16.0522 72.9907 15.9922 72.9918 15.9323C72.9833 15.4699 72.8329 15.0206 72.5601 14.6423C72.1975 14.1163 71.8252 14.2846 71.3471 14.011C71.0697 13.8543 70.9855 13.5376 70.8247 13.284C70.5449 12.8595 70.1737 12.4994 69.7369 12.2287C69.0894 11.8078 68.349 11.5364 67.6734 11.1566C66.7453 10.6305 65.9305 9.91187 64.9268 9.54677C64.4047 9.37528 63.8664 9.25475 63.3199 9.18694C63.0101 9.13854 62.6907 9.09014 62.3853 9.15642C61.9665 9.24796 61.6298 9.54046 61.2532 9.73826C60.3477 10.2138 59.1875 10.1507 58.3652 10.7515C57.5126 11.3733 57.2859 12.4991 57.1154 13.5197C56.823 15.2652 56.496 17.056 55.5463 18.57C55.4906 18.6373 55.4628 18.7225 55.4685 18.8088C55.4916 18.8767 55.5362 18.9357 55.5959 18.9772C55.7218 19.084 55.8545 19.1831 55.993 19.2739H55.8711C55.5755 19.0968 55.3206 18.8622 55.1221 18.5847C55.0624 18.5026 54.9849 18.4343 54.8952 18.3846C54.8054 18.3348 54.7056 18.3049 54.6027 18.2969C54.4998 18.2888 54.3963 18.3029 54.2996 18.3381C54.2029 18.3733 54.1152 18.4288 54.0429 18.5006C54.031 18.5132 54.0181 18.5269 54.0084 18.5395C53.8217 18.7804 46.442 21.4308 44.8922 22.9585C43.3662 24.4673 41.7193 26.6473 41.6686 26.7157C41.6686 26.7157 41.5661 26.821 41.3826 27.0145C40.6066 27.8215 38.3543 30.0942 36.1829 31.6913C36.075 31.7703 35.9671 31.8471 35.8592 31.9218L35.8192 31.9481C35.2285 32.3422 34.6161 32.7043 33.9846 33.0328C33.9403 33.0518 33.8961 33.0739 33.8518 33.0918C33.7972 33.1143 33.7445 33.1411 33.6942 33.1717L33.6813 33.178C33.2874 33.3548 32.9377 33.4653 32.737 33.4211C32.0549 33.2706 27.2805 38.7439 26.8455 41.1502C26.4106 43.5564 25.9152 43.6753 25.9152 43.6753C25.9152 43.6753 25.1091 45.9006 25.2332 46.3215C25.3249 46.6319 24.6752 47.7945 24.5004 48.934C21.8844 48.9519 11.9135 49.0602 3.25599 49.6494C2.9126 50.3433 2.61204 51.0565 2.35592 51.7853C2.33218 51.8505 2.31167 51.9158 2.28901 51.982C2.13762 52.4382 2.01224 52.9022 1.91344 53.3719C1.64635 54.5945 1.62253 55.8557 1.84329 57.0871C2.22318 59.1482 3.34449 61 4.44421 62.8023C5.09174 63.8619 5.73927 64.9245 6.41162 65.9746C6.51955 66.145 6.62747 66.3144 6.74186 66.4849C7.0721 66.9952 7.40558 67.5033 7.74877 68.0042L7.8826 68.1988L7.94843 68.2925C8.00239 68.3703 8.05635 68.4482 8.10923 68.525C8.84202 69.5687 9.60935 70.5872 10.4317 71.5594L10.9443 72.1528C11.5131 72.7957 12.1077 73.4154 12.7337 74.0088L12.7542 74.0288L12.7758 74.0488L12.8017 74.073C12.808 74.0798 12.8148 74.0861 12.8222 74.0919C12.8438 74.114 12.8675 74.135 12.8912 74.1561C13.7405 74.9454 14.6368 75.6853 15.5753 76.3719C16.4117 75.4176 17.6679 74.2908 17.6679 74.2908L23.7449 69.2404C24.091 68.9358 24.4629 68.6602 24.8565 68.4166L25.4598 68.4303C26.2671 69.1731 27.5179 69.7981 28.9932 70.3126C29.0952 70.7375 29.2224 71.1562 29.3741 71.5667H30.4534C30.4534 71.5667 30.993 74.5738 30.6379 75.3766C30.2828 76.1794 30.7005 80.0681 33.595 81.1108C33.595 81.1108 35.0433 81.3517 35.3325 79.8272C35.6217 78.3026 35.6627 75.0157 35.6627 75.0157L36.0372 71.9645C39.9462 72.58 43.3425 72.7704 43.3425 72.7704L43.7472 76.5129H47.5719C47.6162 76.5381 47.6604 76.5623 47.7036 76.5886L47.791 76.6402C47.8935 76.7023 47.9939 76.7654 48.0921 76.8306L48.1083 76.8412C49.6818 77.8744 50.7815 79.198 51.497 80.2838C53.2173 79.6209 54.9602 79.0475 56.7485 78.6982C59.1055 78.2384 61.4971 78.1721 63.9005 78.3205L65.0067 76.8412L65.2527 76.5129H67.5752L67.7134 78.6887C68.9339 78.8423 70.1513 79.0233 71.3622 79.2032L72.5429 79.3811V76.4939L79.1261 76.2993C79.1196 76.6784 79.1687 77.0564 79.2718 77.422C79.4304 78.0532 79.4455 79.3158 79.4034 80.6321C80.161 80.8109 80.9129 81.0105 81.659 81.2307C83.4505 81.7631 85.1945 82.426 86.9288 83.113C86.8619 82.77 86.7896 82.4891 86.713 82.3934C86.4658 82.0777 88.2725 81.7126 88.2725 81.7126C88.2725 81.7126 88.4473 81.681 88.7387 81.6316V83.8348C89.2524 84.0389 89.7664 84.2409 90.2809 84.4408L90.2625 84.0147L90.5701 84.5513C90.6575 84.586 90.7471 84.6197 90.8356 84.6565H90.8485C91.4061 84.867 91.9663 85.0714 92.5289 85.2699L106.567 85.1363V86.1885H106.579C107.085 86.0134 107.578 85.8056 108.056 85.5666L108.036 85.1153L108.886 85.1068H109.325V82.7069L109.904 82.7195V81.8378L107.559 79.5326C108.789 78.653 110.305 76.979 110.116 74.1456C110.116 74.1171 110.116 74.0866 110.108 74.0582C110.108 74.0046 110.1 73.953 110.094 73.8972C110.613 74.0982 111.737 73.4406 110.775 72.1286ZM95.8388 64.7751C95.8388 65.1213 95.7989 65.4674 95.6856 65.6726C95.3953 66.1987 95.3133 67.356 95.9327 67.638C96.5522 67.92 96.6396 69.0405 96.617 69.2015H96.6105C96.5144 69.2331 95.5518 69.5613 95.1492 70.1285C94.2114 70.159 93.021 70.1768 92.8732 70.0811C92.626 69.9212 87.5116 70.2821 87.1533 70.3221C87.027 70.3357 86.4917 70.3704 85.8507 70.4083L90.0122 65.0308C90.0341 65.0634 90.0511 65.0988 90.0629 65.136C90.228 65.7862 93.2876 65.3464 93.7009 64.4837C93.8127 64.2841 93.9678 64.1107 94.1553 63.9755L95.8388 64.7751ZM74.1239 51.3076L70.733 53.4056L74.1228 51.3087L74.1239 51.3076ZM37.6949 48.9319L37.9313 48.6025L38.2345 48.6983L38.9662 48.9319H37.6949ZM57.8342 48.9319H55.884C55.3919 47.5641 54.3591 45.4598 52.5838 45.0621C49.917 44.4602 46.756 43.4986 46.756 43.4986C46.756 43.4986 45.7729 42.4717 45.1944 42.2654C45.1198 42.2336 45.0375 42.2231 44.957 42.2349L45.9164 40.3411C46.3681 39.9649 46.8556 39.6316 47.3723 39.3457C47.5687 39.2405 47.8158 39.1216 48.0824 38.9922C48.2399 38.9144 48.4061 38.8344 48.5723 38.7544C48.5799 39.391 48.6241 39.9044 48.7364 40.0675C49.1087 40.6094 49.4195 41.0302 49.9149 41.4511C50.2959 41.7741 55.4189 46.6371 57.8342 48.9319ZM58.7343 25.9035L58.8303 25.7572C59.1044 25.3364 59.4109 24.9155 59.7466 24.4947L58.7343 25.9035ZM72.0691 56.7409V69.8602V74.7705V56.7409Z" fill="url(#paint0_linear_83_366)"/>
<path opacity="0.1" d="M115.942 73.1102C114.855 77.6344 112.717 82.2639 108.835 84.8438C108.693 84.9395 108.548 85.031 108.403 85.1205C108.187 85.2488 107.971 85.373 107.755 85.4898C107.699 85.5203 107.648 85.5487 107.587 85.5771C107.115 85.8148 106.627 86.0215 106.126 86.1958C102.424 87.4973 98.1742 87.0733 94.3505 85.9601C93.6339 85.7497 92.9238 85.5213 92.2212 85.2741C91.6633 85.0794 91.1096 84.8743 90.5571 84.6638H90.5441C90.4567 84.6312 90.3682 84.5976 90.2819 84.5586L89.9948 84.4534C89.4854 84.2556 88.9771 84.0543 88.4699 83.8495C87.872 83.6106 87.2752 83.3697 86.6784 83.1319C84.9613 82.448 83.2357 81.7894 81.4625 81.2601C80.7254 81.0402 79.9797 80.8393 79.2307 80.6646C76.9956 80.1312 74.7206 79.7608 72.4435 79.4147L71.2639 79.2379C70.066 79.058 68.8605 78.8791 67.6528 78.7255C66.3966 78.5656 65.1372 78.433 63.8756 78.3594C61.5013 78.2173 59.127 78.2783 56.7981 78.735C55.0281 79.0822 53.3036 79.6525 51.6005 80.3132C46.1224 82.4364 40.8699 85.4771 35.0885 84.9637C32.207 84.708 29.4949 83.5675 26.8681 82.3859C23.0984 80.692 19.3373 78.8549 16.0522 76.4255C15.1248 75.7439 14.2398 75.0092 13.4016 74.2255C13.3779 74.2055 13.3552 74.1834 13.3326 74.1623L13.3131 74.1434L13.2872 74.1192L13.2451 74.0792C12.6257 73.49 12.0375 72.8724 11.4742 72.2327L10.9669 71.6435C10.1532 70.6755 9.39342 69.6623 8.66926 68.6238L8.43723 68.2956L8.30449 68.102C7.85266 67.437 7.41162 66.764 6.98137 66.0829C6.31873 65.0381 5.67551 63.9786 5.03878 62.9264C3.94984 61.1378 2.84041 59.2902 2.46484 57.2448C2.24644 56.0197 2.26988 54.7652 2.53391 53.5486C2.63228 53.0817 2.7562 52.6202 2.90516 52.1661C2.92782 52.0998 2.94833 52.0356 2.97207 51.9704C3.22479 51.245 3.52248 50.5353 3.86351 49.8451C6.20865 45.0315 10.3798 40.4199 10.2309 35.0992C10.1133 30.9958 7.4368 27.4638 5.40787 23.8675C3.37894 20.2713 1.98891 15.6376 4.32865 12.2234C6.30793 9.32577 10.2093 8.43565 13.7513 7.9927C17.357 7.53312 20.9891 7.29907 24.6255 7.29197C27.3807 7.2825 29.9978 7.89906 32.698 7.98638C36.0026 8.0916 39.6644 6.59439 42.8427 5.81685C46.5264 4.91762 50.2058 4.01908 53.8809 3.12125C60.1641 1.58721 66.5197 0.0489733 72.996 0.00478309C79.4724 -0.0394072 86.183 1.58301 91.0859 5.70848C92.7652 7.12362 94.234 8.85967 94.9117 10.9208C96.3212 15.2083 94.0969 20.0188 95.4513 24.322C96.6223 28.0288 100.125 30.4603 103.08 33.0549C114.264 42.8872 119.381 58.821 115.942 73.1102Z" fill="#1CF308"/>
<path d="M89.5405 77.3872L89.0624 77.6923L89.9668 84.0263L92.2105 85.2762L108.836 85.1163L108.535 81.3864L89.5405 77.3872Z" fill="#3A3768"/>
<path d="M89.9841 84.4502C89.4747 84.2524 88.9664 84.0511 88.4592 83.8463V80.7835L89.8514 81.4032V81.4243L89.9647 84.0262L89.9841 84.4502Z" fill="#3A3768"/>
<path opacity="0.1" d="M89.9841 84.4502C89.4747 84.2524 88.9664 84.0511 88.4592 83.8463V80.7835L89.8514 81.4032V81.4243L89.9647 84.0262L89.9841 84.4502Z" fill="black"/>
<path d="M107.576 85.5781C107.104 85.8158 106.616 86.0225 106.115 86.1968H106.103V83.1287L107.494 83.7484V83.7705L107.554 85.1299L107.576 85.5781Z" fill="#3A3768"/>
<path opacity="0.1" d="M107.576 85.5781C107.104 85.8158 106.616 86.0225 106.115 86.1968H106.103V83.1287L107.494 83.7484V83.7705L107.554 85.1299L107.576 85.5781Z" fill="black"/>
<path d="M108.835 82.3796V85.1152H108.403L92.2148 85.2688C91.6569 85.0742 91.1032 84.869 90.5507 84.6586H90.5377L90.2636 81.459L108.835 82.3796Z" fill="#3A3768"/>
<path d="M90.5462 84.6649H90.5333C90.4459 84.6323 90.3574 84.5986 90.271 84.5597L89.9656 84.0262L88.6015 81.6305L88.459 81.3801L88.05 80.6636L89.0612 77.6976L90.2289 81.3727L90.2591 81.4664L90.3347 82.3081L90.5462 84.6649Z" fill="#3A3768"/>
<path d="M88.4592 75.7974H103.271L109.409 81.8609L90.2604 81.4621L88.4592 75.7974Z" fill="#3A3768"/>
<path d="M109.409 81.8609V82.7384L90.3348 82.2997L90.2604 81.4622L109.409 81.8609Z" fill="#3A3768"/>
<path opacity="0.1" d="M109.409 81.8609V82.7384L90.3348 82.2997L90.2604 81.4622L109.409 81.8609Z" fill="black"/>
<path d="M95.9467 70.1674C95.9467 70.1674 92.7964 70.3273 92.5504 70.1674C92.3043 70.0074 87.2439 70.3662 86.8899 70.4062C86.5359 70.4462 82.9356 70.6482 82.9356 70.6482L82.6486 76.273L95.4966 74.3181L95.9467 70.1674Z" fill="#F3B4B3"/>
<path opacity="0.1" d="M95.9467 70.1674C95.9467 70.1674 92.7964 70.3273 92.5504 70.1674C92.3043 70.0074 87.2439 70.3662 86.8899 70.4062C86.5359 70.4462 82.9356 70.6482 82.9356 70.6482L82.6486 76.273L95.4966 74.3181L95.9467 70.1674Z" fill="black"/>
<path d="M66.6481 64.3605L81.156 67.6717L81.7431 76.3624L64.6375 76.4276L66.6481 64.3605Z" fill="#3A3768"/>
<path d="M77.7371 49.1265L67.2881 55.049L69.8329 62.4414L70.4113 71.9844L77.9594 70.4104L81.7431 62.8444L85.1178 58.237L82.0151 52.6585L77.7371 49.1265Z" fill="#3A3768"/>
<path d="M19.6472 41.5531C18.8691 42.1045 15.5872 42.3317 15.5872 42.3317C15.5872 42.3317 16.8197 39.3573 17.5978 38.806C17.9715 38.5409 18.4379 38.4314 18.8943 38.5015C19.3508 38.5716 19.7601 38.8157 20.032 39.18C20.3039 39.5443 20.4162 39.999 20.3443 40.444C20.2723 40.8891 20.022 41.288 19.6483 41.5531H19.6472Z" fill="#1CF308"/>
<path d="M19.1281 48.4215C18.4568 49.0939 15.2623 49.8567 15.2623 49.8567C15.2623 49.8567 15.9606 46.7234 16.6319 46.051C16.7915 45.8912 16.9819 45.7637 17.1921 45.6756C17.4023 45.5875 17.6283 45.5407 17.8571 45.5378C18.0859 45.5348 18.313 45.5759 18.5255 45.6585C18.7381 45.7412 18.9318 45.8638 19.0957 46.0195C19.2596 46.1751 19.3905 46.3607 19.4808 46.5657C19.5711 46.7706 19.6192 46.9909 19.6222 47.214C19.6252 47.437 19.5831 47.6585 19.4983 47.8657C19.4135 48.0728 19.2877 48.2617 19.1281 48.4215Z" fill="#1CF308"/>
<path opacity="0.25" d="M19.6472 41.5531C18.8691 42.1045 15.5872 42.3317 15.5872 42.3317C15.5872 42.3317 16.8197 39.3573 17.5978 38.806C17.9715 38.5409 18.4379 38.4314 18.8943 38.5015C19.3508 38.5716 19.7601 38.8157 20.032 39.18C20.3039 39.5443 20.4162 39.999 20.3443 40.444C20.2723 40.8891 20.022 41.288 19.6483 41.5531H19.6472Z" fill="black"/>
<path opacity="0.25" d="M19.1281 48.4215C18.4568 49.0939 15.2623 49.8567 15.2623 49.8567C15.2623 49.8567 15.9606 46.7234 16.6319 46.051C16.7915 45.8912 16.9819 45.7637 17.1921 45.6756C17.4023 45.5875 17.6283 45.5407 17.8571 45.5378C18.0859 45.5348 18.313 45.5759 18.5255 45.6585C18.7381 45.7412 18.9318 45.8638 19.0957 46.0195C19.2596 46.1751 19.3905 46.3607 19.4808 46.5657C19.5711 46.7706 19.6192 46.9909 19.6222 47.214C19.6252 47.437 19.5831 47.6585 19.4983 47.8657C19.4135 48.0728 19.2877 48.2617 19.1281 48.4215Z" fill="black"/>
<path d="M72.435 74.923V79.4115L71.2554 79.2347C70.0575 79.0548 68.852 78.876 67.6443 78.7223L67.5073 76.557L67.4965 76.3624L67.3411 73.9098L71.9612 74.8262L72.095 74.8525L72.435 74.923Z" fill="#3A3768"/>
<path opacity="0.1" d="M72.435 74.923V79.4115L71.2554 79.2347C70.0575 79.0548 68.852 78.876 67.6443 78.7223L67.5073 76.557L67.4965 76.3624L67.3411 73.9098L71.9612 74.8262L72.095 74.8525L72.435 74.923Z" fill="black"/>
<path d="M66.7355 74.5011L65.3509 76.3624L65.2041 76.557L64.9613 76.8842L63.8659 78.3573C61.4916 78.2152 59.1173 78.2762 56.7884 78.7329C55.0184 79.0801 53.2938 79.6503 51.5908 80.3111C50.8829 79.2305 49.7939 77.9143 48.2377 76.8863C48.0683 76.7738 47.8924 76.6654 47.7111 76.5591C47.5956 76.4928 47.479 76.4276 47.3592 76.3645C46.623 75.9761 45.8394 75.6799 45.027 75.4828L66.7355 74.5011Z" fill="#3A3768"/>
<path d="M77.791 49.1254L76.6223 49.8514L73.9944 51.4854L69.7627 54.1157L69.4498 54.3093L69.5501 57.3532L50.9585 58.2328H30.4587L24.9288 56.885L24.8133 56.8566L24.6979 56.8282L23.6046 56.5609L18.7978 55.392L2.5318 53.5455C2.63017 53.0785 2.75409 52.617 2.90305 52.1629C2.92571 52.0967 2.94622 52.0325 2.96996 51.9673C3.22268 51.2419 3.52037 50.5321 3.8614 49.8419C12.4293 49.2559 22.2966 49.1485 24.8856 49.1307L25.5332 49.1254H77.791Z" fill="#3A3768"/>
<path opacity="0.1" d="M66.7366 74.5011L45.0292 75.4796C46.1764 75.7595 47.2638 76.235 48.241 76.8842H64.9689L66.7366 74.5011Z" fill="black"/>
<path d="M71.9611 54.3177V76.557H43.9241L43.5226 72.8345C43.5226 72.8345 40.1619 72.6451 36.2919 72.0328C36.0695 71.9959 35.8451 71.9602 35.6184 71.9212C34.6968 71.7655 33.7557 71.5856 32.833 71.3773L32.6484 71.3352C32.3031 71.2566 31.9617 71.1735 31.6243 71.0858C31.2929 71.0017 30.967 70.9112 30.6476 70.8186C30.1932 70.685 29.754 70.545 29.332 70.3977C27.8718 69.8822 26.6339 69.2646 25.8342 68.526L25.2374 68.5112L18.5668 68.3471H18.4459H18.4081H18.2873L14.3406 68.2482L13.9769 68.2398L8.44373 68.305L8.31099 68.1114C7.85916 67.4465 7.41812 66.7734 6.98787 66.0923C6.32523 65.0476 5.68201 63.988 5.04528 62.9359C3.95634 61.1472 2.84691 59.2997 2.47134 57.2543C2.25294 56.0292 2.27638 54.7747 2.54041 53.5581C2.63878 53.0911 2.7627 52.6296 2.91166 52.1756H24.9309L25.0648 52.2145L25.7954 52.4249L25.9109 52.4586L26.0264 52.4923C28.0175 53.0709 32.1142 54.2252 33.1675 54.2252H35.013L44.5684 54.2483L53.4083 54.2725C59.8102 54.2872 66.0869 54.3041 69.4465 54.3125L71.9611 54.3177Z" fill="#3A3768"/>
<path opacity="0.1" d="M71.9611 54.1231V76.3624H43.9241L43.5226 72.6399C43.5226 72.6399 40.177 72.4505 36.3156 71.8402C36.1872 71.8182 36.0566 71.7982 35.926 71.7771C34.9698 71.6182 33.9834 71.4352 33.0229 71.2237L32.8901 71.1942L32.8027 71.1742L32.5685 71.1195C32.2513 71.048 31.9361 70.9712 31.6253 70.8902C31.2843 70.8032 30.949 70.7109 30.6195 70.6134C30.1586 70.4798 29.7129 70.3357 29.2856 70.1842C27.8459 69.6718 26.6264 69.0594 25.8321 68.3292L25.5623 68.3219L18.7373 68.1535H18.6186H18.5819H18.4621L14.4798 68.0483L14.1452 68.0399H13.9779L8.30772 68.1072C7.85589 67.4423 7.41485 66.7692 6.9846 66.0881C6.32196 65.0434 5.67875 63.9838 5.04201 62.9317C3.95308 61.143 2.84364 59.2955 2.46808 57.2501C2.24968 56.025 2.27312 54.7705 2.53715 53.5539C2.63551 53.0869 2.75944 52.6254 2.9084 52.1714C2.93106 52.1051 2.95157 52.0409 2.97531 51.9757H24.9309L25.0863 52.023C25.2407 52.0683 25.5018 52.1461 25.8418 52.244L25.9562 52.2776C25.9929 52.2882 26.0306 52.3008 26.0706 52.3113C28.079 52.8868 32.125 54.0242 33.1707 54.0242H35.1133L44.7745 54.0484L53.5906 54.0705L69.7605 54.1126L71.9611 54.1231Z" fill="black"/>
<path opacity="0.1" d="M71.9611 54.3177V76.557H43.9241L43.5226 72.8345C43.5226 72.8345 40.1619 72.6451 36.2919 72.0328C36.0695 71.9959 35.8451 71.9602 35.6184 71.9212C34.6968 71.7655 33.7557 71.5856 32.833 71.3773L32.6484 71.3352C32.3031 71.2566 31.9617 71.1735 31.6243 71.0858C31.2929 71.0017 30.967 70.9112 30.6476 70.8186C30.1932 70.685 29.754 70.545 29.332 70.3977C27.8718 69.8822 26.6339 69.2646 25.8342 68.526L25.2374 68.5112L18.5668 68.3471H18.4459H18.4081H18.2873L14.3406 68.2482L13.9769 68.2398L8.44373 68.305L8.31099 68.1114C7.85916 67.4465 7.41812 66.7734 6.98787 66.0923C6.32523 65.0476 5.68201 63.988 5.04528 62.9359C3.95634 61.1472 2.84691 59.2997 2.47134 57.2543C2.25294 56.0292 2.27638 54.7747 2.54041 53.5581C2.63878 53.0911 2.7627 52.6296 2.91166 52.1756H24.9309L25.0648 52.2145L25.7954 52.4249L25.9109 52.4586L26.0264 52.4923C28.0175 53.0709 32.1142 54.2252 33.1675 54.2252H35.013L44.5684 54.2483L53.4083 54.2725C59.8102 54.2872 66.0869 54.3041 69.4465 54.3125L71.9611 54.3177Z" fill="black"/>
<path d="M77.7911 49.1265V52.6491L71.9622 56.8945L69.4498 54.3115L77.7911 49.1265Z" fill="#3A3768"/>
<path opacity="0.1" d="M77.7911 49.1265V52.6491L71.9622 56.8945L69.4498 54.3115L77.7911 49.1265Z" fill="black"/>
<path d="M80.8075 53.0099L77.7911 52.649L71.9622 56.8945V59.1156L80.8075 53.0099Z" fill="#3A3768"/>
<path d="M82.081 49.1265V56.5031L84.0236 58.5927L71.9622 69.9453V59.1156L80.8075 53.0099L77.7911 52.6491V49.1265H82.081Z" fill="#3A3768"/>
<path opacity="0.1" d="M82.081 49.1265V56.5031L84.0236 58.5927L71.9622 69.9453V59.1156L80.8075 53.0099L77.7911 52.6491V49.1265H82.081Z" fill="black"/>
<path opacity="0.1" d="M82.818 58.6579L90.7233 58.237L90.12 64.3605L80.9413 76.2856L81.21 67.6716H74.1757L82.818 58.6579Z" fill="black"/>
<path d="M83.0187 58.6579L90.9239 58.237L90.3217 64.3605L81.143 76.2856L81.4106 67.6716H74.3774L83.0187 58.6579Z" fill="#3A3768"/>
<path opacity="0.1" d="M88.1775 62.1857H84.1574L79.0657 67.6716H81.5446L81.4907 69.4298L88.1775 62.1857Z" fill="black"/>
<path opacity="0.1" d="M87.9097 62.1857H83.8897L78.7979 67.6716H81.2769L81.2218 69.4298L87.9097 62.1857Z" fill="black"/>
<path d="M88.0437 62.1857H84.0236L78.9319 67.6716H81.4108L81.3558 69.4298L88.0437 62.1857Z" fill="#DCE6F2"/>
<path opacity="0.1" d="M81.2769 76.1551L72.096 76.4276V69.8149L74.5113 67.5412H81.5446L81.2769 76.1551Z" fill="black"/>
<path d="M81.1431 76.2856L71.9622 76.5581V69.9453L74.3775 67.6716H81.4108L81.1431 76.2856Z" fill="#3A3768"/>
<path opacity="0.1" d="M81.1431 76.2856L71.9622 76.5581V69.9453L74.3775 67.6716H81.4108L81.1431 76.2856Z" fill="black"/>
<path d="M107.088 79.5672C106.636 79.9005 106.14 80.1733 105.614 80.3784C105.614 80.3784 95.1698 80.9771 93.6966 80.9771C92.9412 80.9771 91.4832 81.1728 90.2291 81.3675L89.8525 81.4243C89.3657 81.5011 88.9287 81.5737 88.6017 81.6347L88.4592 81.66C88.17 81.7084 87.9973 81.7399 87.9973 81.7399C87.9973 81.7399 86.209 82.0987 86.454 82.4175C86.5296 82.5133 86.6019 82.7921 86.6699 83.133C84.9528 82.4491 83.2271 81.7904 81.454 81.2612C80.7169 81.0413 79.9711 80.8403 79.2222 80.6657C79.2632 79.3537 79.2492 78.0984 79.0916 77.4714C78.9891 77.1079 78.9407 76.7319 78.948 76.355C78.948 76.3108 78.948 76.2688 78.9578 76.2277C79.0182 75.669 79.2815 75.4575 79.3366 75.0388C79.3776 74.7231 80.146 74.4885 81.0061 74.2791L81.2079 74.2307L81.3407 74.1992C81.8598 74.0771 82.3821 73.9593 82.775 73.8299C82.8052 73.8204 82.8332 73.8109 82.8602 73.8004C82.9604 73.7661 83.0584 73.726 83.1538 73.6805C83.1775 73.6668 83.2012 73.6552 83.2228 73.6415C84.042 73.1628 92.3487 71.8866 93.0027 71.6877C93.6567 71.4888 94.6388 70.6103 94.6388 70.6103C94.6626 70.4688 94.7195 70.3345 94.805 70.2178C95.2032 69.6539 96.1562 69.3277 96.2511 69.2962H96.2576L97.053 68.6975C97.053 68.6975 100.228 68.2367 103.376 68.6975C103.615 68.7322 103.851 68.7722 104.087 68.8185C104.953 68.9765 105.795 69.2421 106.592 69.6087C107.494 70.04 108.268 70.6261 108.797 71.4183C109.086 71.8539 109.294 72.3358 109.411 72.8419C109.499 73.2111 109.562 73.5854 109.6 73.9624C109.609 74.0466 109.616 74.1287 109.621 74.2108C109.805 77.0263 108.305 78.6929 107.088 79.5672Z" fill="#F3B4B3"/>
<path d="M65.3413 40.6882H61.3719L62.0195 38.6134H64.0311C64.0311 38.6134 71.5598 33.3085 72.0098 34.7447C72.4598 36.1808 65.3413 40.6882 65.3413 40.6882Z" fill="#FFCACE"/>
<path d="M71.8056 51.4991C71.1106 52.6564 62.1909 51.1003 62.1909 51.1003L59.8587 48.8266L61.3696 48.028L62.3236 48.5699L63.3338 49.1443C63.3338 49.1443 72.5017 50.3417 71.8056 51.4991Z" fill="#FFCACE"/>
<path d="M45.2516 62.6676C45.2516 62.6676 44.5847 63.0727 43.7278 63.5914C42.464 64.351 40.7923 65.3422 40.2549 65.5799C39.3548 65.9787 38.4558 67.3749 37.3086 68.4923C36.6481 69.1352 36.2877 70.1368 36.0999 70.8712C36.0196 71.1779 35.959 71.4893 35.9186 71.8034L34.1994 72.4799L31.6222 72.2411V68.0178C31.6222 68.0178 31.9902 66.2617 32.6863 66.1828C32.7507 66.1742 32.8136 66.1569 32.873 66.1313C33.6155 65.8261 34.9041 64.3352 35.9186 63.7481C36.8262 63.2221 37.5277 61.6344 37.7478 61.0862C37.7953 60.9663 37.8201 60.8968 37.8201 60.8968L40.9499 59.3186L45.2516 62.6676Z" fill="#FFCACE"/>
<path opacity="0.1" d="M45.2515 62.6676C45.2515 62.6676 44.5845 63.0727 43.7276 63.5914C42.6203 62.8959 41.3922 62.0595 40.913 61.4871C40.1112 60.5339 38.311 60.9253 37.7477 61.0778C37.7952 60.9579 37.82 60.8884 37.82 60.8884L40.9497 59.3102L45.2515 62.6676Z" fill="black"/>
<path d="M56.2984 50.3017C56.2984 50.3017 55.8074 51.1435 55.8074 51.4991C55.8074 51.8547 53.541 54.1295 53.541 54.1295L49.1238 59.0377C49.1238 59.0377 47.5222 60.2319 47.6453 61.4314C47.7683 62.6308 46.0782 64.6025 46.0782 64.6025C46.0782 64.6025 42.1207 62.393 41.1624 61.2515C40.2224 60.1351 37.9107 60.8653 37.8276 60.8916C37.9625 60.7548 44.467 54.2389 45.8041 53.1141C47.1413 51.9894 45.8041 51.9778 45.8041 51.558C45.8041 51.2792 41.4052 49.8283 38.4784 48.8929C37.0171 48.4268 35.9228 48.088 35.9228 48.088L38.3154 42.942L42.3085 41.9245C42.3085 41.9245 44.6526 42.5727 45.1318 42.4632C45.2112 42.452 45.2923 42.4625 45.3659 42.4937C45.939 42.6989 46.9114 43.7195 46.9114 43.7195C46.9114 43.7195 50.0411 44.677 52.6809 45.2756C55.3207 45.8743 56.2984 50.3017 56.2984 50.3017Z" fill="#575988"/>
<path opacity="0.1" d="M36.1042 70.8712C36.0239 71.178 35.9633 71.4893 35.9229 71.8034L34.2037 72.4799L31.6265 72.2411V68.0178C31.6265 68.0178 31.9945 66.2618 32.6906 66.1828C32.755 66.1743 32.8179 66.1569 32.8773 66.1313C30.9941 66.9288 32.8331 71.2489 32.8331 71.2489C34.6278 69.6644 35.6337 70.2736 36.1042 70.8712Z" fill="black"/>
<path d="M36.3307 71.7234L35.9228 75.0735C35.9228 75.0735 35.8818 78.3446 35.599 79.8608C35.3163 81.3769 33.8787 81.137 33.8787 81.137C31.0156 80.0996 30.6066 76.2309 30.953 75.4323C31.2994 74.6337 30.7695 71.6445 30.7695 71.6445H29.6979C29.6979 71.6445 29.0438 69.9295 29.0849 68.3745C29.0989 67.8337 29.5403 67.4023 30.108 67.0719C31.1721 66.4522 32.6862 66.1807 32.6862 66.1807C30.803 66.9772 32.7056 71.4857 32.7056 71.4857C35.4296 69.0899 36.3307 71.7234 36.3307 71.7234Z" fill="#575988"/>
<path opacity="0.1" d="M62.4706 40.6882H61.3719L62.0195 38.6134H62.8105C62.6605 39.09 62.4199 39.9801 62.4706 40.6882Z" fill="black"/>
<path d="M58.7592 26.2254L59.7737 24.8081C59.7737 24.8081 60.2539 28.5811 59.1045 29.5428L57.6789 32.9918L56.7281 37.2582C56.7281 37.2582 58.58 37.7127 58.7592 37.9642C58.9383 38.2157 62.6821 38.2746 62.6821 38.2746C62.6821 38.2746 61.6385 41.027 62.6821 41.6257L54.0279 41.027L51.9418 39.5908L53.5369 30.7359L55.923 27.3112L58.7592 26.2254Z" fill="#575988"/>
<path opacity="0.1" d="M58.7592 26.2254L59.7737 24.8081C59.7737 24.8081 60.2539 28.5811 59.1045 29.5428L57.6789 32.9918L56.7281 37.2582C56.7281 37.2582 58.58 37.7127 58.7592 37.9642C58.9383 38.2157 62.6821 38.2746 62.6821 38.2746C62.6821 38.2746 61.6385 41.027 62.6821 41.6257L54.0279 41.027L51.9418 39.5908L53.5369 30.7359L55.923 27.3112L58.7592 26.2254Z" fill="black"/>
<path d="M96.2553 65.2507L86.2499 60.516C86.2499 60.516 82.7305 64.2637 82.1575 61.9153C81.5844 59.5669 83.9587 57.9656 83.9587 57.9656L100.939 61.8354L96.2553 65.2507Z" fill="#FFCACE"/>
<path opacity="0.05" d="M96.2553 65.2507L86.2499 60.516C86.2499 60.516 82.7305 64.2637 82.1575 61.9153C81.5844 59.5669 83.9587 57.9656 83.9587 57.9656L100.939 61.8354L96.2553 65.2507Z" fill="black"/>
<path d="M53.5368 34.3259L52.0378 36.2114L51.8554 36.4407L50.4913 38.1557C50.4913 38.1557 49.2145 38.7523 48.2249 39.2395C47.9616 39.3689 47.7177 39.4909 47.5234 39.5909C47.012 39.8756 46.5296 40.2071 46.0827 40.5809C45.7675 40.8356 45.5592 41.0271 45.5592 41.0271L43.7181 41.3869C43.7181 41.3869 31.1366 34.6247 34.1433 33.3685C34.8458 33.0749 35.6412 32.573 36.4485 31.9754C38.5972 30.3867 40.8258 28.1256 41.5942 27.3228C41.7766 27.1334 41.8769 27.0261 41.8769 27.0261L43.7116 26.0097L49.6009 30.998L53.5368 34.3259Z" fill="#FFCACE"/>
<path d="M63.9091 21.94C63.1629 22.0857 62.4584 22.3884 61.8446 22.827C60.6326 23.6571 59.6214 24.906 58.8595 26.0707C58.2364 27.0204 57.698 28.0205 57.2503 29.0599C57.2503 29.0599 49.0569 18.5289 53.9663 19.4264C54.7002 19.5662 55.4472 19.6297 56.1949 19.6158C57.1098 19.6081 58.0133 19.4176 58.8497 19.0561C60.0552 18.5163 60.5333 17.783 60.5333 17.783C60.5333 17.783 67.9605 21.2214 63.9091 21.94Z" fill="#FFCACE"/>
<path d="M101.716 47.8281C101.716 47.8281 95.9468 53.1741 96.0288 51.3791C96.0331 51.1211 96.0052 50.8635 95.9457 50.6121C95.6856 49.3811 94.874 47.5924 94.2308 46.2983C93.7538 45.3366 93.3674 44.6422 93.3674 44.6422C93.3674 44.6422 100.569 41.531 100.282 42.6073C100.188 42.9588 100.309 43.6353 100.512 44.3886C100.721 45.1641 101.02 46.0216 101.267 46.6876C101.514 47.3536 101.716 47.8281 101.716 47.8281Z" fill="#FFCACE"/>
<path opacity="0.1" d="M63.9092 21.94C63.163 22.0857 62.4584 22.3884 61.8446 22.827C60.4762 22.1588 60.3985 20.8216 59.9441 19.3728C59.8966 19.2234 60.0272 18.5037 59.9938 18.349C61.1992 17.8093 60.5334 17.783 60.5334 17.783C60.5334 17.783 67.9605 21.2214 63.9092 21.94Z" fill="black"/>
<path d="M70.2625 17.783C70.2625 18.8717 69.9314 19.936 69.3109 20.8413C68.6905 21.7466 67.8086 22.4521 66.7769 22.8688C65.7451 23.2854 64.6098 23.3944 63.5145 23.182C62.4192 22.9696 61.4131 22.4453 60.6234 21.6755C59.8338 20.9056 59.296 19.9247 59.0781 18.8569C58.8602 17.7891 58.9721 16.6822 59.3994 15.6764C59.8268 14.6705 60.5505 13.8107 61.4791 13.2059C62.4076 12.601 63.4993 12.2781 64.6161 12.2781C65.3589 12.2736 66.0952 12.413 66.7823 12.688C67.4694 12.9631 68.0937 13.3684 68.619 13.8805C69.1442 14.3925 69.5599 15.0012 69.8421 15.6711C70.1242 16.341 70.2671 17.0588 70.2625 17.783Z" fill="#FFCACE"/>
<path opacity="0.1" d="M53.5368 34.3259L52.0378 36.2113L51.8554 36.4407C51.7928 36.446 51.7313 36.4502 51.6698 36.4512C50.9877 36.4639 50.433 36.1798 50.1589 35.3991C49.9529 34.8694 49.6666 34.3729 49.3095 33.9261C49.1282 33.6851 48.9253 33.441 48.7073 33.1896C46.3784 30.5592 42.232 27.7489 41.5909 27.3186C41.7733 27.1292 41.8737 27.0219 41.8737 27.0219L43.7084 26.0055L49.5977 30.9937L53.5368 34.3259Z" fill="black"/>
<path opacity="0.1" d="M58.8595 26.0707C58.2364 27.0204 57.698 28.0205 57.2503 29.0599C57.2503 29.0599 49.0569 18.5289 53.9663 19.4264C54.7002 19.5662 55.4472 19.6296 56.1949 19.6158C56.6924 20.1356 57.4014 21.8474 57.8299 22.9658C58.0099 23.456 58.139 23.9625 58.2152 24.4778C58.3252 25.1774 58.7569 25.9055 58.8595 26.0707Z" fill="black"/>
<path d="M58.9696 30.8548C58.5724 31.6965 57.4652 33.3084 57.4652 33.3084C56.7171 33.9376 55.9236 34.5136 55.0909 35.0318C54.7995 35.2118 54.4941 35.3854 54.1876 35.5421C53.4408 35.9272 52.6853 36.2008 52.0378 36.2113C51.3557 36.225 50.801 35.9399 50.5269 35.1592C50.3208 34.6277 50.0341 34.1294 49.6764 33.6809C49.4951 33.441 49.2922 33.1969 49.0742 32.9496C46.5446 30.0952 41.8726 27.0218 41.8726 27.0218C41.9233 26.9534 43.553 24.785 45.0628 23.2846C46.5974 21.7611 53.9005 19.1244 54.085 18.8856C54.0956 18.8715 54.1071 18.8581 54.1196 18.8456C54.1909 18.7745 54.2774 18.7196 54.373 18.6848C54.4685 18.65 54.5708 18.6361 54.6724 18.6442C54.7741 18.6522 54.8727 18.682 54.9612 18.7313C55.0498 18.7807 55.1261 18.8484 55.1848 18.9298C55.3811 19.2053 55.6335 19.4384 55.9262 19.6147C56.4237 19.9072 57.232 21.8537 57.7026 23.0815C57.8831 23.5719 58.0122 24.0788 58.0879 24.5945C58.2131 25.3889 58.7548 26.2222 58.7548 26.2222C58.7548 26.2222 59.3678 30.0173 58.9696 30.8548Z" fill="#575988"/>
<path opacity="0.1" d="M62.3258 48.5699C62.124 49.0454 61.4624 49.4631 60.8246 49.7683L59.8587 48.8266L61.3696 48.028L62.3258 48.5699Z" fill="black"/>
<path opacity="0.1" d="M55.5009 29.7196C55.5009 29.7196 54.7357 33.0865 54.1886 35.5432C53.4407 35.9273 52.6852 36.2008 52.0377 36.2114L50.4912 38.1557C50.4912 38.1557 49.2145 38.7523 48.2248 39.2394C48.2248 39.0827 48.2194 38.9154 48.2194 38.7418C48.2276 36.9063 48.4834 35.0799 48.9803 33.3095C49.0126 33.1938 49.045 33.0749 49.0785 32.9539C49.2479 32.3468 49.4303 31.6755 49.6073 30.9969C49.8933 29.909 50.1663 28.8042 50.3466 27.9236C50.8991 25.2311 53.3543 25.6499 53.3543 25.6499C56.1765 25.35 55.5009 29.7196 55.5009 29.7196Z" fill="black"/>
<path opacity="0.1" d="M56.237 29.9574C56.237 29.9574 55.6165 32.693 55.092 35.0319C54.8006 35.2118 54.4952 35.3854 54.1887 35.5422C53.4408 35.9273 52.6853 36.2008 52.0378 36.2113C51.3557 36.225 50.801 35.9399 50.5269 35.1592C50.3208 34.6278 50.0341 34.1295 49.6765 33.6809C49.6894 33.6315 49.7034 33.581 49.7175 33.5305C50.1697 31.9091 50.7632 29.6943 51.0784 28.1582C51.6309 25.4657 54.0861 25.8845 54.0861 25.8845C56.9126 25.5899 56.237 29.9574 56.237 29.9574Z" fill="black"/>
<path d="M53.8432 25.6499C53.8432 25.6499 51.3891 25.229 50.8365 27.9236C50.5214 29.4587 49.9268 31.6745 49.4746 33.2958C48.97 35.0885 48.7124 36.9386 48.7083 38.7975C48.7083 39.5246 48.7493 40.1296 48.8724 40.3095C49.2404 40.8482 49.5479 41.2669 50.039 41.6857C50.53 42.1044 59.1044 50.3017 59.1044 50.3017C59.1044 50.3017 62.2525 49.3443 62.0064 48.148C62.0064 48.148 57.0356 43.5406 56.7895 42.6431C56.7895 42.6431 53.9663 38.9091 54.1508 37.9642C54.3354 37.0194 55.992 29.7196 55.992 29.7196C55.992 29.7196 56.6665 25.35 53.8432 25.6499Z" fill="#575988"/>
<path opacity="0.1" d="M46.2014 40.3463L46.0816 40.5841C45.7664 40.8387 45.5581 41.0302 45.5581 41.0302L43.717 41.39C43.717 41.39 31.1355 34.6279 34.1422 33.3716C34.8447 33.078 35.6401 32.5762 36.4474 31.9785C38.5519 32.1406 41.5078 34.329 41.5078 34.329C44.0602 35.8704 46.2014 40.3463 46.2014 40.3463Z" fill="black"/>
<path opacity="0.1" d="M45.3627 42.4938L42.6118 43.125L38.4784 48.8961C37.0171 48.43 35.9228 48.0912 35.9228 48.0912L38.3154 42.9451L42.3085 41.9277C42.3085 41.9277 44.6526 42.5758 45.1318 42.4664C45.2099 42.4547 45.2897 42.4642 45.3627 42.4938Z" fill="black"/>
<path d="M11.4687 72.2264C12.0321 72.8661 12.6202 73.489 13.2397 74.0729L13.2818 74.1129L13.3077 74.1371L13.3271 74.156C13.3498 74.1771 13.3725 74.1992 13.3962 74.2192C14.236 75.0045 15.1228 75.7406 16.0522 76.4234C16.8799 75.4765 18.1232 74.3538 18.1232 74.3538L24.1377 69.3277C24.4799 69.0245 24.8478 68.75 25.2374 68.507C25.3453 68.4418 25.4532 68.3787 25.5611 68.3198C25.6945 68.2492 25.8317 68.186 25.9723 68.1304C26.8951 67.7716 27.7552 65.5 27.7552 65.5L32.2965 59.5164L32.957 58.2328L35.0162 54.2189L35.1155 54.0242L36.8422 50.6573L37.9419 49.1222L38.1772 48.794L42.2437 43.1187L45.1306 42.4632L46.0803 40.583C46.0803 40.583 43.9391 36.1103 41.3868 34.5647C41.3868 34.5647 38.2452 32.2384 36.1332 32.2047L36.0932 32.231C35.503 32.6262 34.8905 32.9887 34.2586 33.3169C34.1636 33.3653 34.0686 33.4105 33.978 33.4515C33.5873 33.6272 33.2409 33.7377 33.0434 33.6935C32.3688 33.5431 27.6473 38.989 27.2156 41.3816C26.7839 43.7742 26.295 43.8952 26.295 43.8952C26.295 43.8952 25.4964 46.1047 25.6194 46.5255C25.7101 46.8349 25.0669 47.987 24.8942 49.1243C24.8227 49.5136 24.84 49.9134 24.9449 50.2954C25.1102 50.8511 25.1612 51.4333 25.0949 52.0083C25.0949 52.0714 25.082 52.1335 25.0733 52.1956C24.9957 52.7857 24.8061 53.3565 24.5143 53.879C24.2229 54.3662 23.9596 55.6266 23.6088 56.5525C23.4448 56.9923 23.2592 57.3553 23.0422 57.5289C22.3667 58.0676 21.3846 60.5212 21.3846 60.5212C21.3846 60.5212 19.2369 63.2137 18.6865 63.3925C18.3185 63.5125 16.6975 65.2254 15.6582 66.3554C15.1348 66.9215 14.7582 67.3423 14.7582 67.3423L14.1549 68.0252L13.9725 68.2282L13.6822 68.5586L10.9615 71.6372L11.4687 72.2264Z" fill="#575988"/>
<path d="M35.7178 33.7419C35.707 33.7524 35.0152 34.3732 34.2597 35.0298C33.7201 35.4959 33.1481 35.9767 32.7683 36.2608C31.8833 36.9205 29.1043 41.7319 28.9834 41.9476L27.7553 46.6076C27.71 46.8233 27.4186 48.1774 27.1358 49.1254C26.9944 49.5968 26.8574 49.9671 26.7527 50.0492C26.6113 50.1607 26.321 51.2065 26.0696 52.3039C26.0555 52.365 26.0404 52.426 26.0275 52.487C25.9195 52.9647 25.8116 53.4424 25.7307 53.8443L24.9267 56.8892L23.1546 63.5988C23.1254 63.664 22.5157 65.0107 21.58 65.3159C21.3124 65.4032 20.2029 66.5448 18.7395 68.1514L18.5668 68.3429C17.0225 70.0474 15.1177 72.2264 13.4017 74.2255C13.378 74.2055 13.3553 74.1834 13.3326 74.1623L13.3132 74.1434C14.8511 72.36 16.7937 70.1305 18.4136 68.345L18.5863 68.1535C20.068 66.5237 21.2498 65.3043 21.5466 65.2075C22.4294 64.9202 23.037 63.5777 23.0434 63.564L24.809 56.865L25.613 53.8138C25.6422 53.6717 25.7598 53.1057 25.9109 52.446C25.9239 52.386 25.939 52.325 25.953 52.2629C26.1904 51.2476 26.4926 50.0934 26.6782 49.9482C26.7592 49.885 26.879 49.5631 27.0117 49.118C27.2276 48.3973 27.4715 47.3557 27.6377 46.5729L28.8723 41.8887C28.9899 41.6783 31.7732 36.8384 32.6938 36.1577C33.0715 35.8767 33.6413 35.397 34.1799 34.9298C34.8004 34.3953 35.3767 33.8777 35.5688 33.7051C35.6088 33.6683 35.6325 33.6483 35.6347 33.6462L35.7178 33.7419Z" fill="#575988"/>
<path d="M35.5958 33.7419C35.5839 33.7514 34.9353 34.3385 34.2069 34.9698C33.6478 35.4538 33.0424 35.9651 32.6463 36.2608C31.7603 36.9205 28.977 41.7319 28.8604 41.9476L27.6355 46.6076C27.5902 46.8233 27.2977 48.1774 27.0149 49.1254C26.8736 49.5967 26.7365 49.9671 26.6318 50.0492C26.4926 50.1544 26.212 51.1876 25.9573 52.2703C25.9422 52.3313 25.9292 52.3923 25.9141 52.4533C25.8008 52.9426 25.6983 53.4318 25.6098 53.8443L24.8133 56.865L23.0316 63.5987C23.0024 63.664 22.3927 65.0107 21.457 65.3158C21.1893 65.4032 20.081 66.5427 18.6208 68.1472L18.446 68.3387C16.9178 70.0221 15.0356 72.1769 13.3272 74.156L13.3078 74.1371L13.2819 74.1129L13.2398 74.0729C14.7712 72.3 16.6868 70.1 18.2873 68.3355L18.4611 68.144C19.9428 66.5163 21.1224 65.298 21.4181 65.198C22.302 64.9108 22.9096 63.5682 22.915 63.5546L24.6935 56.8261L25.4889 53.8138C25.517 53.6696 25.6379 53.0867 25.7933 52.4144C25.8073 52.3544 25.8213 52.2934 25.8364 52.2313C26.0728 51.2244 26.3706 50.0934 26.553 49.9513C26.634 49.8882 26.7538 49.5662 26.8865 49.1212C27.1024 48.4004 27.3473 47.3588 27.5125 46.576L28.7471 41.8919C28.8658 41.6814 31.648 36.8415 32.5686 36.1608C32.9636 35.8662 33.569 35.3559 34.1281 34.8719C34.8522 34.2406 35.4987 33.6598 35.5095 33.6493L35.5667 33.7082L35.5958 33.7419Z" fill="#DCE6F2"/>
<path opacity="0.1" d="M40.4641 37.1383C40.4641 37.1383 39.073 40.2495 40.1403 41.3869L40.4641 37.1383Z" fill="black"/>
<path opacity="0.1" d="M42.5502 38.8932C42.5502 38.8932 41.7321 41.087 42.1822 41.3868L42.5502 38.8932Z" fill="black"/>
<path opacity="0.1" d="M43.608 40.1359C43.608 40.1359 43.2734 41.2427 43.608 41.6215V40.1359Z" fill="black"/>
<path opacity="0.1" d="M24.7518 63.4651C24.7518 63.4651 27.698 62.4688 27.616 63.0264C27.534 63.584 24.7518 63.4651 24.7518 63.4651Z" fill="black"/>
<path opacity="0.1" d="M24.1787 66.1786C24.1787 66.1786 25.777 66.8962 26.185 66.1786C26.5929 65.4611 24.1787 66.1786 24.1787 66.1786Z" fill="black"/>
<path opacity="0.1" d="M47.8287 58.2002C47.8287 58.2002 44.5555 58.7589 44.5145 59.3176C44.4735 59.8763 47.8287 58.2002 47.8287 58.2002Z" fill="black"/>
<path opacity="0.1" d="M46.1722 44.0793C46.1722 44.0793 44.8426 45.5523 45.0465 46.1131C45.2505 46.6739 46.1722 44.0793 46.1722 44.0793Z" fill="black"/>
<path opacity="0.1" d="M70.2625 17.7829C70.2632 18.3233 70.1817 18.8608 70.0208 19.378C69.9123 19.3332 69.7917 19.3244 69.6776 19.3527C69.6517 19.5382 69.5521 19.7064 69.4002 19.8209L68.6512 18.9276C68.6306 18.8975 68.6018 18.8735 68.5681 18.8582C68.4926 18.8308 68.4181 18.8929 68.3523 18.9361C68.1008 19.096 67.7555 19.0139 67.5019 18.8571C67.2483 18.7004 67.04 18.4763 66.7777 18.3311C66.5272 18.198 66.2416 18.1407 65.9575 18.1665C65.6734 18.1924 65.4036 18.3002 65.1826 18.4763C64.9774 18.6671 64.7962 18.8811 64.643 19.1139C64.4303 19.4238 64.1526 19.6863 63.8282 19.884C63.6655 19.9821 63.4818 20.0426 63.2914 20.0608C63.101 20.0791 62.9088 20.0546 62.7296 19.9893C62.6206 19.9295 62.5065 19.8792 62.3885 19.8388C62.0195 19.7504 61.6881 20.0671 61.4507 20.3575C61.2133 20.6479 60.9111 20.9762 60.5301 20.9215C59.8308 20.8162 59.8934 19.6157 59.2221 19.398H59.2156C58.978 18.6409 58.9107 17.8428 59.0182 17.0581C59.1258 16.2733 59.4057 15.5205 59.8389 14.8508C60.272 14.1811 60.8483 13.6105 61.5283 13.1777C62.2082 12.7449 62.976 12.4602 63.7791 12.343C64.5822 12.2258 65.4018 12.2788 66.182 12.4986C66.9622 12.7183 67.6845 13.0995 68.2999 13.6161C68.9152 14.1328 69.4089 14.7728 69.7474 15.4924C70.086 16.212 70.2613 16.9944 70.2614 17.7861L70.2625 17.7829Z" fill="black"/>
<path d="M69.6538 12.6127C69.0063 12.1971 68.28 11.9246 67.6109 11.5469C66.6935 11.0271 65.8841 10.3085 64.8923 9.94447C64.3757 9.77468 63.8433 9.65486 63.3026 9.58674C62.9961 9.53834 62.6799 9.48994 62.3777 9.55728C61.9633 9.64776 61.6298 9.9392 61.2564 10.136C60.3607 10.6084 59.2135 10.5463 58.3987 11.1429C57.5558 11.7615 57.3313 12.8821 57.1619 13.8974C56.8726 15.6345 56.5489 17.4158 55.6089 18.9172C55.554 18.9845 55.5267 19.0692 55.5323 19.155C55.5553 19.2223 55.5995 19.2808 55.6585 19.3223C56.2068 19.7894 56.9655 20.204 57.6324 19.9178C57.913 19.7968 58.1267 19.5685 58.3706 19.3864C58.6145 19.2044 58.9307 19.0634 59.2221 19.1571C59.8945 19.3738 59.8308 20.5764 60.5312 20.6795C60.9078 20.7343 61.2154 20.407 61.4518 20.1166C61.6881 19.8262 62.0194 19.5096 62.3896 19.5979C62.5077 19.6383 62.6222 19.6883 62.7317 19.7473C63.0803 19.8967 63.498 19.8294 63.8293 19.6421C64.1542 19.4446 64.432 19.1816 64.6441 18.8709C64.7977 18.6388 64.9788 18.4251 65.1837 18.2343C65.4045 18.0581 65.6742 17.9501 65.9584 17.9241C66.2425 17.898 66.5281 17.9551 66.7788 18.0881C67.041 18.2333 67.2482 18.4563 67.5029 18.6142C67.7576 18.772 68.1019 18.853 68.3534 18.692C68.4214 18.6489 68.4958 18.5868 68.5692 18.6142C68.6026 18.63 68.6312 18.6539 68.6523 18.6836L69.4002 19.5769C69.5524 19.4625 69.6524 19.2943 69.6786 19.1087C69.8686 19.0508 70.065 19.1508 70.2517 19.2139C70.4384 19.277 70.6899 19.297 70.7978 19.1339C70.8852 19.0024 70.8269 18.8278 70.8345 18.671C70.8496 18.3859 71.0892 18.1586 71.346 18.0239C71.6029 17.8892 71.8932 17.8135 72.1403 17.663C72.6066 17.3768 72.8699 16.8308 72.8742 16.2952C72.867 15.8356 72.719 15.3885 72.449 15.0116C72.0907 14.4919 71.7227 14.656 71.25 14.3866C70.9737 14.2299 70.8906 13.9153 70.732 13.6628C70.4548 13.2408 70.087 12.8825 69.6538 12.6127Z" fill="#FFDFCF"/>
<path opacity="0.1" d="M99.6701 43.9594C98.7927 45.3556 98.0577 46.7118 96.2565 46.7118C95.5584 46.7122 94.8681 46.5687 94.2308 46.2909C93.7538 45.3293 93.3674 44.6348 93.3674 44.6348C93.3674 44.6348 100.569 41.5236 100.282 42.6C100.19 42.9546 99.4661 43.2071 99.6701 43.9594Z" fill="black"/>
<path d="M96.2564 46.4719C99.0131 46.4719 101.248 44.2932 101.248 41.6057C101.248 38.9182 99.0131 36.7395 96.2564 36.7395C93.4997 36.7395 91.265 38.9182 91.265 41.6057C91.265 44.2932 93.4997 46.4719 96.2564 46.4719Z" fill="#FFCACE"/>
<path opacity="0.1" d="M109.618 74.2087C109.573 74.1949 109.532 74.1725 109.496 74.1429C109.46 74.1132 109.43 74.077 109.409 74.0361C109.122 73.4785 103.802 72.6799 103.802 72.6799L102.653 70.6061C102.653 70.6061 99.8709 70.8049 99.3798 70.2904C98.8888 69.7759 96.2285 69.6918 96.2501 69.5329C96.2549 69.4536 96.2524 69.374 96.2426 69.2951H96.2501L97.0455 68.6964C97.0455 68.6964 108.054 67.1003 109.403 72.8451C109.512 73.2931 109.584 73.7492 109.618 74.2087Z" fill="black"/>
<path opacity="0.1" d="M101.716 47.8281C101.716 47.8281 95.9468 53.1741 96.0288 51.3791C96.0331 51.1211 96.0052 50.8635 95.9457 50.6121L95.9619 50.5521C95.9619 50.5521 97.4231 49.0633 97.7911 48.3847C98.0458 47.9175 100.058 47.1221 101.273 46.6813C101.52 47.3536 101.716 47.8281 101.716 47.8281Z" fill="black"/>
<path d="M102.207 46.4719C102.207 46.4719 98.1559 47.8292 97.7825 48.5067C97.4091 49.1843 95.9619 50.6742 95.9619 50.6742L94.6409 56.2053L95.418 63.825C95.418 63.825 95.623 65.2612 95.3359 65.7788C95.0489 66.2965 94.9679 67.4549 95.582 67.7337C96.1961 68.0125 96.2813 69.1299 96.2587 69.2898C96.236 69.4498 98.8963 69.5287 99.3884 70.0474C99.8805 70.5661 102.662 70.363 102.662 70.363L103.802 72.4368C103.802 72.4368 109.122 73.2344 109.409 73.793C109.696 74.3517 111.372 73.7131 110.272 72.1969C109.173 70.6808 109.74 68.2882 109.74 68.2882C109.74 68.2882 109.417 57.7572 107.69 55.2836C107.69 55.2836 105.235 49.54 104.826 49.3001C104.416 49.0602 101.961 47.3894 102.207 46.4719Z" fill="#DCE6F2"/>
<path opacity="0.1" d="M102.207 64.6025C102.207 64.6025 109.49 70.2841 108.999 71.3236C108.508 72.3632 102.207 64.6025 102.207 64.6025Z" fill="black"/>
<path opacity="0.1" d="M102.639 68.0115C102.639 68.0115 106.89 70.0789 106.299 71.4194L102.639 68.0115Z" fill="black"/>
<path opacity="0.1" d="M97.543 62.8623C97.543 62.8623 99.8341 62.7571 99.9172 63.1716L97.543 62.8623Z" fill="black"/>
<path opacity="0.1" d="M97.0519 64.6025C97.0519 64.6025 100.407 65.42 100.407 65.8988L97.0519 64.6025Z" fill="black"/>
<path d="M100.083 59.4312L96.2564 62.8444C96.2564 62.8444 93.7742 63.744 93.3695 64.6025C92.9647 65.4611 89.9321 65.8988 89.7692 65.2506C89.6062 64.6025 85.1048 61.0326 85.1048 61.0326C85.1048 61.0326 82.6496 58.8788 82.0765 57.2859C81.5035 55.6929 79.3785 54.3525 79.3785 54.3525C79.3785 54.3525 72.914 52.6585 73.896 50.3049C74.8781 47.9512 81.5002 52.2566 81.5002 52.2566C81.5002 52.2566 85.5926 55.1279 86.2488 56.0065C86.9049 56.885 91.5672 58.8157 91.5672 58.8157C91.524 58.4075 92.3647 57.3974 93.1774 56.5252C93.9188 55.7287 94.6365 55.0522 94.6365 55.0522L100.04 59.4007L100.083 59.4312Z" fill="#FFCACE"/>
<path opacity="0.1" d="M102.861 73.5184C102.861 73.5184 106.299 77.5471 106.099 78.3446C105.899 79.1422 102.861 73.5184 102.861 73.5184Z" fill="black"/>
<path opacity="0.1" d="M82.6486 77.3872C82.7306 77.5072 83.0576 78.8602 84.6127 79.6609L82.6486 77.3872Z" fill="black"/>
<path opacity="0.1" d="M86.1679 78.5245C86.1679 78.5245 86.0859 80.1028 87.273 80.4984C88.4602 80.894 86.1679 78.5245 86.1679 78.5245Z" fill="black"/>
<path d="M102.416 44.8705C102.398 44.5717 102.311 44.2808 102.16 44.0203C102.009 43.7597 101.798 43.5366 101.545 43.368C101.732 43.2965 101.887 43.1636 101.984 42.9923C102.082 42.821 102.115 42.622 102.078 42.4295C102.038 42.56 101.878 42.6094 101.742 42.6399C101.662 42.6578 101.592 42.6705 101.526 42.681C101.693 42.3719 101.83 42.0486 101.936 41.7151C102.137 41.0049 102.03 40.2495 101.86 39.5319C101.631 38.5629 101.253 37.5665 100.444 36.9352C100.076 36.6728 99.6775 36.4538 99.2567 36.2829C98.8777 36.0951 98.4799 35.946 98.0696 35.8378C97.653 35.7431 97.2213 35.7326 96.7961 35.6779C95.9716 35.5727 95.1773 35.298 94.343 35.257C93.5088 35.216 92.5861 35.4569 92.1587 36.1324C92.0233 36.3365 91.9597 36.578 91.9774 36.8205C92.0227 37.2466 92.3853 37.5949 92.7987 37.7674C93.212 37.94 93.6534 37.9432 94.0711 38.0736C94.5621 38.2272 95.0424 38.4219 95.5334 38.5881C95.7957 38.6765 96.0676 38.7722 96.2619 38.9616C96.5716 39.2625 96.6094 39.7202 96.6839 40.1348C96.7975 40.7663 97.0338 41.3709 97.38 41.9161C97.5019 42.1086 97.6411 42.3022 97.6724 42.5242C97.7113 42.7946 97.6066 43.1292 97.83 43.3028C98.0037 43.4364 98.2617 43.3701 98.4559 43.2565C98.6502 43.1429 98.8142 42.9861 99.0333 42.9409C99.2966 42.8861 99.5729 43.0114 99.7672 43.185C99.9209 43.3215 100.043 43.4889 100.124 43.6756C100.205 43.8623 100.244 44.0639 100.238 44.2666C100.227 44.518 100.147 44.779 100.238 45.0157C100.323 45.2335 100.661 45.364 100.818 45.2135C100.831 45.24 100.845 45.2656 100.86 45.2903C101.026 45.5365 101.339 45.6512 101.64 45.6807C101.789 45.7043 101.942 45.685 102.08 45.6249C102.349 45.4881 102.43 45.1588 102.416 44.8705Z" fill="#FFDFCF"/>
<path opacity="0.1" d="M30.7663 71.6424H29.6979C29.6979 71.6424 29.0438 69.9274 29.0849 68.3724C29.0989 67.8316 29.5403 67.4002 30.108 67.0698L30.7663 71.6424Z" fill="black"/>
<g opacity="0.1">
<path d="M57.2902 13.4187C57.3301 13.1798 57.3733 12.9336 57.4273 12.6906C57.3158 13.0874 57.229 13.4904 57.1672 13.8974C57.0495 14.6065 56.9254 15.322 56.756 16.0227C56.9794 15.1641 57.1577 14.295 57.2902 13.4187Z" fill="black"/>
<path d="M72.2676 17.1927C72.0205 17.3442 71.728 17.4189 71.4733 17.5536C71.2186 17.6882 70.9769 17.9155 70.9617 18.2006C70.9586 18.25 70.9586 18.2996 70.9617 18.349C71.0639 18.217 71.1952 18.1091 71.3459 18.0333C71.6028 17.8987 71.892 17.8229 72.1392 17.6725C72.3443 17.5375 72.5158 17.3594 72.641 17.1513C72.7661 16.9432 72.8417 16.7103 72.8623 16.4698C72.7465 16.7655 72.5385 17.0183 72.2676 17.1927Z" fill="black"/>
<path d="M70.3843 18.7435C70.1976 18.6762 70.0012 18.5762 69.8113 18.6383C69.785 18.8239 69.685 18.9921 69.5328 19.1065L68.7849 18.2132C68.7638 18.1835 68.7352 18.1596 68.7018 18.1438C68.6263 18.1175 68.5518 18.1785 68.486 18.2217C68.2345 18.3826 67.8903 18.3006 67.6356 18.1438C67.3809 17.987 67.1737 17.7629 66.9114 17.6177C66.6607 17.4833 66.3744 17.4249 66.0894 17.4503C65.8044 17.4756 65.5337 17.5834 65.312 17.7598C65.1074 17.9489 64.9263 18.1608 64.7724 18.3911C64.5603 18.7018 64.2825 18.9648 63.9576 19.1623C63.6263 19.3454 63.2086 19.4127 62.86 19.2675C62.7505 19.2085 62.636 19.1585 62.5179 19.1181C62.1478 19.0297 61.8175 19.3464 61.5801 19.6368C61.3427 19.9272 61.0405 20.2544 60.6595 20.1997C59.9591 20.0945 60.0228 18.894 59.3504 18.6772C59.059 18.5836 58.7428 18.7246 58.4989 18.9066C58.255 19.0886 58.0413 19.317 57.7607 19.4327C57.0938 19.7189 56.3351 19.3043 55.7868 18.8372C55.7572 18.8132 55.7301 18.7864 55.7059 18.7572C55.6757 18.8088 55.6465 18.8624 55.6153 18.9108C55.5594 18.9776 55.532 19.0627 55.5386 19.1486C55.5608 19.216 55.6047 19.2747 55.6638 19.3159C56.2121 19.7831 56.9707 20.1976 57.6377 19.9114C57.9183 19.7904 58.132 19.5621 58.3759 19.3801C58.6198 19.1981 58.936 19.0571 59.2274 19.1507C59.8997 19.3675 59.8361 20.5701 60.5365 20.6732C60.9131 20.7279 61.2207 20.4007 61.4571 20.1103C61.6934 19.8199 62.0258 19.5032 62.3949 19.5916C62.5132 19.6316 62.6276 19.6816 62.737 19.741C63.0856 19.8904 63.5033 19.823 63.8357 19.6358C64.1599 19.4378 64.4373 19.1749 64.6494 18.8645C64.803 18.6324 64.9841 18.4188 65.189 18.228C65.4097 18.0519 65.6792 17.9439 65.9631 17.9178C66.247 17.8918 66.5325 17.9488 66.783 18.0817C67.0452 18.2269 67.2535 18.45 67.5072 18.6078C67.7608 18.7656 68.1061 18.8466 68.3576 18.6857C68.4256 18.6425 68.5 18.5804 68.5734 18.6078C68.6068 18.6236 68.6354 18.6475 68.6565 18.6772L69.4044 19.5705C69.5566 19.4561 69.6566 19.2879 69.6829 19.1023C69.8728 19.0444 70.0703 19.1444 70.257 19.2075C70.4437 19.2707 70.6887 19.2906 70.7966 19.1276C70.8722 19.0129 70.8387 18.8677 70.8333 18.7277C70.7637 18.7605 70.6878 18.7788 70.6105 18.7815C70.5332 18.7843 70.4562 18.7713 70.3843 18.7435Z" fill="black"/>
</g>
<path opacity="0.1" d="M100.041 59.3975C99.9764 59.4522 99.9087 59.5035 99.8383 59.5511C99.8383 59.5511 94.1185 56.5788 93.1785 56.5251C93.9199 55.7287 94.6376 55.0521 94.6376 55.0521L100.041 59.3975Z" fill="black"/>
<path opacity="0.1" d="M100.329 49.3863C100.329 49.3863 105.402 52.6196 103.598 55.6098C101.795 58.6 100.329 59.5511 100.329 59.5511C100.329 59.5511 94.3516 56.4441 93.6145 56.5252C92.8774 56.6062 96.2047 50.7941 96.2047 50.7941L100.329 49.3863Z" fill="black"/>
<path d="M100.083 49.2664C100.083 49.2664 105.156 52.4996 103.352 55.4898C101.549 58.4801 100.083 59.4312 100.083 59.4312C100.083 59.4312 94.1057 56.3253 93.3718 56.4052C92.6379 56.4852 95.9619 50.6742 95.9619 50.6742L100.083 49.2664Z" fill="#DCE6F2"/>
<g opacity="0.1">
<path d="M101.897 45.5018C101.597 45.4713 101.284 45.3566 101.118 45.1104C101.102 45.0852 101.089 45.0589 101.076 45.0336C100.919 45.1841 100.581 45.0536 100.496 44.8358C100.403 44.5991 100.484 44.3381 100.496 44.0867C100.502 43.8839 100.463 43.6822 100.382 43.4955C100.301 43.3088 100.179 43.1414 100.025 43.0051C99.8286 42.8315 99.5556 42.7063 99.2912 42.761C99.0753 42.8062 98.9027 42.963 98.7138 43.0766C98.5249 43.1902 98.2616 43.2565 98.0879 43.1229C97.8655 42.9493 97.9691 42.6147 97.9303 42.3443C97.899 42.1223 97.7598 41.9287 97.6378 41.7362C97.2921 41.1908 97.0559 40.5863 96.9417 39.9549C96.8673 39.5403 96.8338 39.0826 96.5208 38.7817C96.3266 38.5923 96.0546 38.4966 95.7924 38.4082C95.3045 38.242 94.8211 38.0473 94.3289 37.8937C93.9124 37.7633 93.4656 37.7559 93.0576 37.5875C92.6497 37.4192 92.2806 37.0615 92.2352 36.6406C92.2174 36.398 92.2814 36.1563 92.4176 35.9525C92.4502 35.9004 92.4862 35.8505 92.5256 35.8031C92.3853 35.9122 92.2652 36.0438 92.1705 36.1924C92.0343 36.3958 91.9706 36.6372 91.9892 36.8794C92.0345 37.3056 92.3971 37.6538 92.8105 37.8264C93.2238 37.9989 93.6652 38.0021 94.0829 38.1326C94.5739 38.2862 95.0542 38.4808 95.5452 38.6471C95.8075 38.7365 96.0848 38.8312 96.2737 39.0206C96.5834 39.3225 96.6212 39.7802 96.6957 40.1948C96.8093 40.826 97.0456 41.4302 97.3918 41.975C97.5137 42.1676 97.6518 42.3611 97.6842 42.5842C97.7231 42.8546 97.6184 43.1892 97.8418 43.3617C98.0145 43.4964 98.2735 43.4301 98.4677 43.3165C98.662 43.2029 98.826 43.045 99.0451 43.0009C99.3084 42.9461 99.5847 43.0713 99.779 43.246C99.9329 43.3825 100.055 43.5498 100.136 43.7365C100.217 43.9233 100.256 44.1249 100.25 44.3276C100.239 44.5791 100.159 44.84 100.25 45.0757C100.335 45.2935 100.671 45.425 100.83 45.2735C100.842 45.3002 100.856 45.3258 100.872 45.3503C101.037 45.5965 101.35 45.7112 101.65 45.7417C101.8 45.7651 101.953 45.7453 102.092 45.6849C102.191 45.6326 102.271 45.5513 102.321 45.4524C102.187 45.5054 102.041 45.5225 101.897 45.5018Z" fill="black"/>
<path d="M101.798 43.1871L101.86 43.2292C101.896 43.192 101.928 43.1519 101.957 43.1092C101.907 43.141 101.854 43.1671 101.798 43.1871Z" fill="black"/>
</g>
<path opacity="0.1" d="M22.5028 14.3582C22.5028 14.3582 26.442 14.1267 25.9779 16.8181C25.9779 16.8181 26.0696 17.2937 25.6282 17.5094C25.6282 17.5094 25.6207 17.3105 25.2235 17.3779C25.081 17.4014 24.9361 17.4082 24.7919 17.3979C24.5988 17.3854 24.4153 17.3115 24.2695 17.1874C24.2695 17.1874 23.1612 16.7413 22.7305 14.9779C22.7305 14.9779 22.4068 14.5928 22.4251 14.4939L23.0899 14.7706C23.0899 14.7706 22.8622 15.2378 23.0414 15.6271C23.0414 15.6271 23.0629 14.7854 23.1903 14.8075C23.2162 14.8075 23.5356 14.9695 23.5356 14.9695C23.5356 14.9695 23.145 15.7839 23.4396 16.3762C23.4396 16.3762 23.3317 15.3725 23.6554 15.0284L24.1238 15.2946C24.1238 15.2946 23.6673 16.1363 23.977 16.8223C23.977 16.8223 23.8972 15.7702 24.222 15.3598L24.6462 15.6818C24.6462 15.6818 24.2145 16.5109 24.4789 17.0801C24.4789 17.0801 24.5134 15.8544 24.7379 15.7618C24.7379 15.7618 25.1091 16.0774 25.1696 16.2121C25.1696 16.2121 24.875 16.8139 25.0617 17.1317C25.0617 17.1317 25.1696 16.3152 25.2656 16.312C25.2656 16.312 25.6347 16.8528 25.6736 17.2232C25.6553 16.8804 25.5455 16.5482 25.3552 16.2594C25.5683 16.299 25.7649 16.3985 25.9207 16.5456C25.9207 16.5456 25.8635 16.1626 25.2635 16.1248C25.2635 16.1248 24.9581 15.7144 24.876 15.6902C24.876 15.6902 25.4728 15.6408 25.8344 15.7954C25.8344 15.7954 25.516 15.4345 24.767 15.5987L24.3483 15.2651C24.3483 15.2651 25.134 15.1599 25.4664 15.2767C25.4664 15.2767 25.0832 14.9611 24.2361 15.1894L23.7795 14.9243C23.7795 14.9243 24.4497 14.7833 24.848 14.8338C24.848 14.8338 24.4271 14.6128 23.6457 14.8527L23.322 14.7096C23.322 14.7096 23.813 14.616 23.9565 14.6044C24.1001 14.5928 24.1076 14.5507 24.1076 14.5507C23.7968 14.5002 23.4778 14.5348 23.186 14.6507C23.186 14.6507 22.491 14.395 22.5028 14.3582Z" fill="#1CF308"/>
<path opacity="0.1" d="M103.84 10.7041C103.84 10.7041 107.78 10.4726 107.316 13.164C107.316 13.164 107.408 13.6396 106.966 13.8564C106.966 13.8564 106.959 13.6564 106.562 13.7238C106.419 13.7471 106.275 13.7542 106.13 13.7448C105.937 13.7321 105.753 13.6582 105.607 13.5344C105.607 13.5344 104.5 13.0883 104.069 11.3249C104.069 11.3249 103.751 10.9398 103.764 10.8409L104.428 11.1176C104.428 11.1176 104.201 11.5858 104.38 11.9741C104.38 11.9741 104.401 11.1323 104.529 11.1544C104.555 11.1544 104.874 11.3165 104.874 11.3165C104.874 11.3165 104.483 12.1319 104.778 12.7232C104.778 12.7232 104.67 11.7194 104.994 11.3754L105.462 11.6416C105.462 11.6416 105.006 12.4833 105.315 13.1704C105.315 13.1704 105.236 12.1182 105.56 11.7068L105.985 12.0298C105.985 12.0298 105.553 12.8589 105.817 13.4281C105.817 13.4281 105.852 12.2024 106.076 12.1098C106.076 12.1098 106.448 12.4254 106.508 12.5601C106.508 12.5601 106.213 13.1619 106.4 13.4797C106.4 13.4797 106.508 12.6622 106.604 12.659C106.604 12.659 106.973 13.1998 107.012 13.5712C106.992 13.2279 106.881 12.8956 106.688 12.6075C106.901 12.6464 107.098 12.7455 107.254 12.8926C107.254 12.8926 107.197 12.5107 106.597 12.4717C106.597 12.4717 106.291 12.0614 106.209 12.0361C106.209 12.0361 106.806 11.9877 107.167 12.1413C107.167 12.1413 106.849 11.7805 106.1 11.9446L105.686 11.6226C105.686 11.6226 106.471 11.5174 106.804 11.6332C106.804 11.6332 106.421 11.3175 105.573 11.5469L105.117 11.2807C105.117 11.2807 105.786 11.1397 106.185 11.1913C106.185 11.1913 105.764 10.9693 104.983 11.2091L104.659 11.0671C104.659 11.0671 105.15 10.9724 105.294 10.9619C105.437 10.9514 105.445 10.9082 105.445 10.9082C105.134 10.8577 104.815 10.8923 104.523 11.0082C104.523 11.0082 103.829 10.7473 103.84 10.7041Z" fill="#1CF308"/>
<path opacity="0.1" d="M41.3007 7.01944C41.3007 7.01944 44.2351 9.59405 41.9428 11.1596C41.9428 11.1596 41.659 11.5574 41.1873 11.4027C41.1873 11.4027 41.3276 11.2575 40.9996 11.0292C40.8836 10.9471 40.7779 10.8521 40.6844 10.7462C40.5571 10.6033 40.4813 10.4237 40.4686 10.2348C40.4686 10.2348 40.0164 9.15215 41.0082 7.61496C41.0082 7.61496 41.0665 7.1236 41.1474 7.06258L41.4118 7.71912C41.4118 7.71912 40.9111 7.88957 40.7524 8.28623C40.7524 8.28623 41.3805 7.71175 41.455 7.81486C41.4712 7.83591 41.5791 8.16839 41.5791 8.16839C41.5791 8.16839 40.7136 8.46614 40.4902 9.08902C40.4902 9.08902 41.1442 8.30622 41.6277 8.29464L41.7615 8.80599C41.7615 8.80599 40.8258 9.07955 40.542 9.77607C40.542 9.77607 41.2553 8.98275 41.7831 8.92067L41.8446 9.44675C41.8446 9.44675 40.938 9.72977 40.7049 10.3116C40.7049 10.3116 41.6255 9.46989 41.8511 9.56669C41.8511 9.56669 41.878 10.0475 41.8219 10.179C41.8219 10.179 41.1744 10.3979 41.0719 10.7472C41.0719 10.7472 41.7475 10.2516 41.8144 10.3127C41.8144 10.3127 41.6784 10.9492 41.4345 11.2365C41.672 10.9832 41.8376 10.6738 41.9147 10.339C42.0358 10.5146 42.1014 10.7208 42.1036 10.9324C42.1036 10.9324 42.3421 10.6241 41.946 10.1843C41.946 10.1843 42.0313 9.68348 41.9924 9.60983C41.9924 9.60983 42.4468 9.98966 42.586 10.3463C42.586 10.3463 42.627 9.87182 41.9806 9.46674L41.9309 8.94066C41.9309 8.94066 42.558 9.41308 42.7069 9.72557C42.7069 9.72557 42.6713 9.23527 41.9061 8.80915L41.7809 8.30622C41.7809 8.30622 42.354 8.67237 42.5968 8.98591C42.5968 8.98591 42.463 8.53769 41.7388 8.16313L41.6126 7.83486C41.6126 7.83486 42.0259 8.10947 42.1371 8.1989C42.2482 8.28833 42.2828 8.26624 42.2828 8.26624C42.1016 8.01508 41.8524 7.81799 41.5629 7.69702C41.5629 7.69702 41.2618 7.04153 41.3007 7.01944Z" fill="#1CF308"/>
<path opacity="0.1" d="M82.3022 22.5997C82.3022 22.5997 85.2366 25.1732 82.9433 26.7399C82.9433 26.7399 82.6605 27.1376 82.1878 26.9819C82.1878 26.9819 82.3292 26.8367 82.0011 26.6084C81.8845 26.5271 81.7786 26.432 81.686 26.3253C81.5587 26.1824 81.4829 26.0028 81.4702 25.814C81.4702 25.814 81.019 24.7324 82.0098 23.1941C82.0098 23.1941 82.067 22.7028 82.1479 22.6418L82.4123 23.2983C82.4123 23.2983 81.9116 23.4687 81.7529 23.8654C81.7529 23.8654 82.381 23.292 82.4566 23.394C82.4717 23.4151 82.5807 23.7476 82.5807 23.7476C82.5807 23.7476 81.7162 24.0474 81.4885 24.6692C81.4885 24.6692 82.1436 23.8875 82.626 23.8749L82.7598 24.3873C82.7598 24.3873 81.8252 24.6598 81.5403 25.3574C81.5403 25.3574 82.2537 24.563 82.7814 24.5009L82.844 25.0217C82.844 25.0217 81.9364 25.3058 81.7044 25.8866C81.7044 25.8866 82.6238 25.0501 82.8494 25.1417C82.8494 25.1417 82.8775 25.6235 82.8213 25.7551C82.8213 25.7551 82.1738 25.9729 82.0659 26.3222C82.0659 26.3222 82.7415 25.8266 82.8084 25.8887C82.8084 25.8887 82.6724 26.52 82.4285 26.8114C82.6664 26.5582 82.8323 26.2489 82.9098 25.9139C83.0306 26.0896 83.0959 26.2959 83.0976 26.5074C83.0976 26.5074 83.3372 26.1991 82.9401 25.7593C82.9401 25.7593 83.0264 25.2595 82.9865 25.1848C82.9865 25.1848 83.4408 25.5646 83.5811 25.9213C83.5811 25.9213 83.621 25.4468 82.9757 25.0417L82.9249 24.5156C82.9249 24.5156 83.5531 24.987 83.702 25.2995C83.702 25.2995 83.6664 24.8092 82.9012 24.3841L82.7749 23.8801C82.7749 23.8801 83.348 24.2473 83.5908 24.5598C83.5908 24.5598 83.457 24.1116 82.7339 23.7381L82.6098 23.4109C82.6098 23.4109 83.0221 23.6855 83.1343 23.776C83.2466 23.8665 83.2789 23.8433 83.2789 23.8433C83.0977 23.592 82.8485 23.3946 82.5591 23.273C82.5591 23.273 82.2623 22.6207 82.3022 22.5997Z" fill="#1CF308"/>
<path opacity="0.1" d="M114.163 7.31512C114.163 7.31512 117.096 9.88868 114.804 11.4553C114.804 11.4553 114.521 11.853 114.048 11.6973C114.048 11.6973 114.189 11.5521 113.861 11.3238C113.744 11.242 113.639 11.147 113.546 11.0408C113.418 10.898 113.342 10.7184 113.33 10.5294C113.33 10.5294 112.877 9.44783 113.869 7.90959C113.869 7.90959 113.928 7.41824 114.008 7.35826L114.273 8.01375C114.273 8.01375 113.772 8.1842 113.614 8.58086C113.614 8.58086 114.242 8.00744 114.317 8.1095C114.332 8.13054 114.441 8.46302 114.441 8.46302C114.441 8.46302 113.571 8.76393 113.346 9.38365C113.346 9.38365 114 8.6019 114.483 8.58928L114.617 9.10167C114.617 9.10167 113.681 9.37523 113.398 10.0718C113.398 10.0718 114.111 9.27738 114.639 9.21531L114.7 9.73612C114.7 9.73612 113.794 10.0202 113.562 10.601C113.562 10.601 114.481 9.76453 114.707 9.85607C114.707 9.85607 114.734 10.3379 114.678 10.4695C114.678 10.4695 114.03 10.6873 113.922 11.0376C113.922 11.0376 114.598 10.5421 114.665 10.6031C114.665 10.6031 114.529 11.2396 114.285 11.5258C114.523 11.2727 114.688 10.9633 114.765 10.6283C114.886 10.804 114.951 11.0103 114.954 11.2218C114.954 11.2218 115.192 10.9135 114.796 10.4737C114.796 10.4737 114.882 9.9739 114.843 9.8992C114.843 9.8992 115.297 10.279 115.436 10.6357C115.436 10.6357 115.477 10.1612 114.831 9.75506L114.781 9.22898C114.781 9.22898 115.408 9.70035 115.557 10.0128C115.557 10.0128 115.522 9.52253 114.757 9.09746L114.631 8.59454C114.631 8.59454 115.204 8.96069 115.447 9.27317C115.447 9.27317 115.313 8.82601 114.584 8.45145L114.46 8.12423C114.46 8.12423 114.873 8.39989 114.984 8.48932C115.095 8.57876 115.13 8.55666 115.13 8.55666C114.949 8.30534 114.699 8.10794 114.41 7.9864C114.41 7.9864 114.123 7.33617 114.163 7.31512Z" fill="#1CF308"/>
<path opacity="0.1" d="M37.2438 18.7088C37.2438 18.7088 36.961 22.5471 34.2846 21.7443C34.2846 21.7443 33.7892 21.7717 33.6273 21.315C33.6273 21.315 33.8313 21.335 33.8151 20.9426C33.8096 20.8014 33.8215 20.6601 33.8507 20.5217C33.8891 20.3367 33.9883 20.1689 34.1335 20.044C34.1335 20.044 34.7324 19.0319 36.5844 18.8477C36.5844 18.8477 37.0161 18.59 37.1164 18.6152L36.7473 19.2212C36.7473 19.2212 36.3016 18.9403 35.884 19.0624C35.884 19.0624 36.7344 19.1928 36.6977 19.3138C36.6901 19.3391 36.4818 19.6295 36.4818 19.6295C36.4818 19.6295 35.7048 19.1455 35.0648 19.3528C35.0648 19.3528 36.0998 19.3759 36.4063 19.74L36.0739 20.1608C36.0739 20.1608 35.2785 19.6084 34.5393 19.8178C34.5393 19.8178 35.6185 19.8788 35.9951 20.2471L35.6109 20.6143C35.6109 20.6143 34.8242 20.0882 34.2079 20.2692C34.2079 20.2692 35.4501 20.4628 35.5149 20.69C35.5149 20.69 35.1415 21.0057 35.0001 21.0436C35.0001 21.0436 34.427 20.6806 34.0806 20.8152C34.0806 20.8152 34.8954 21.0309 34.8878 21.1193C34.8878 21.1193 34.2889 21.4055 33.9068 21.3939C34.2579 21.4219 34.6103 21.3595 34.9289 21.213C34.8608 21.4137 34.734 21.5907 34.5641 21.7222C34.5641 21.7222 34.9602 21.7169 35.0735 21.1425C35.0735 21.1425 35.53 20.9005 35.5667 20.8268C35.5667 20.8268 35.5375 21.4097 35.3314 21.739C35.3314 21.739 35.7404 21.4792 35.6714 20.7332L36.0653 20.3723C36.0653 20.3723 36.0653 21.1456 35.9077 21.4518C35.9077 21.4518 36.2822 21.1235 36.157 20.2734L36.4872 19.8673C36.4872 19.8673 36.5423 20.5333 36.4387 20.912C36.4387 20.912 36.7182 20.5343 36.5779 19.7484L36.7657 19.4517C36.7657 19.4517 36.797 19.9378 36.7927 20.083C36.7883 20.2281 36.8272 20.2366 36.8272 20.2366C36.9191 19.9428 36.9259 19.63 36.8466 19.3328C36.8466 19.3328 37.2017 18.692 37.2438 18.7088Z" fill="#1CF308"/>
<path opacity="0.1" d="M82.5612 14.3993C82.5612 14.3993 82.2784 18.2375 79.603 17.4347C79.603 17.4347 79.1066 17.461 78.9458 17.0054C78.9458 17.0054 79.1487 17.0244 79.1325 16.6319C79.1276 16.4908 79.1395 16.3495 79.1681 16.2111C79.2065 16.026 79.3057 15.8583 79.4509 15.7334C79.4509 15.7334 80.0509 14.7212 81.9018 14.5371C81.9018 14.5371 82.3335 14.2804 82.4338 14.3046L82.0647 14.9116C82.0647 14.9116 81.619 14.6307 81.2014 14.7517C81.2014 14.7517 82.0518 14.8832 82.0151 15.0042C82.0075 15.0284 81.8057 15.3199 81.8057 15.3199C81.8057 15.3199 81.0287 14.8348 80.3876 15.0421C80.3876 15.0421 81.4226 15.0653 81.7291 15.4304L81.3967 15.8512C81.3967 15.8512 80.6013 15.2988 79.8631 15.5082C79.8631 15.5082 80.9424 15.5703 81.3179 15.9375L80.9348 16.3057C80.9348 16.3057 80.148 15.7797 79.5318 15.9596C79.5318 15.9596 80.774 16.1542 80.8387 16.3804C80.8387 16.3804 80.4653 16.6961 80.325 16.735C80.325 16.735 79.7509 16.372 79.4045 16.5057C79.4045 16.5057 80.2204 16.7213 80.2117 16.8108C80.2117 16.8108 79.6128 17.097 79.2307 17.0854C79.5817 17.1128 79.934 17.0504 80.2527 16.9044C80.1844 17.1051 80.0576 17.282 79.888 17.4137C79.888 17.4137 80.284 17.4137 80.3973 16.8329C80.3973 16.8329 80.8549 16.5919 80.8905 16.5172C80.8905 16.5172 80.8614 17.1001 80.6553 17.4284C80.6553 17.4284 81.0643 17.1685 80.9952 16.4225L81.3891 16.0616C81.3891 16.0616 81.3891 16.835 81.2316 17.1411C81.2316 17.1411 81.6061 16.8129 81.4809 15.9627L81.8111 15.5577C81.8111 15.5577 81.8662 16.2226 81.7626 16.6014C81.7626 16.6014 82.0432 16.2237 81.9018 15.4377L82.0896 15.141C82.0896 15.141 82.1209 15.6282 82.1165 15.7723C82.1122 15.9164 82.1511 15.9259 82.1511 15.9259C82.2437 15.6323 82.2504 15.3193 82.1705 15.0221C82.1705 15.0221 82.5191 14.3814 82.5612 14.3993Z" fill="#1CF308"/>
<path opacity="0.1" d="M108.589 0.0963029C108.589 0.0963029 108.307 3.93454 105.63 3.13175C105.63 3.13175 105.135 3.15806 104.973 2.70248C104.973 2.70248 105.177 2.72141 105.16 2.32896C105.155 2.18775 105.167 2.04644 105.197 1.9081C105.235 1.72309 105.334 1.55535 105.479 1.43043C105.479 1.43043 106.078 0.41826 107.929 0.234134C107.929 0.234134 108.361 -0.0225901 108.461 0.0016093L108.093 0.608699C108.093 0.608699 107.648 0.327775 107.23 0.448773C107.23 0.448773 108.08 0.580291 108.044 0.701288C108.036 0.725488 107.828 1.01693 107.828 1.01693C107.828 1.01693 107.051 0.531893 106.41 0.739166C106.41 0.739166 107.445 0.762313 107.751 1.12741L107.42 1.54827C107.42 1.54827 106.632 0.99589 105.891 1.20632C105.891 1.20632 106.97 1.2684 107.345 1.6356L106.962 2.00385C106.962 2.00385 106.175 1.47777 105.559 1.65769C105.559 1.65769 106.8 1.85234 106.865 2.07855C106.865 2.07855 106.492 2.3942 106.351 2.43313C106.351 2.43313 105.778 2.07013 105.431 2.20376C105.431 2.20376 106.247 2.41945 106.238 2.50888C106.238 2.50888 105.639 2.79506 105.257 2.78349C105.608 2.81089 105.96 2.74851 106.279 2.60252C106.211 2.80341 106.084 2.98048 105.914 3.11176C105.914 3.11176 106.311 3.11176 106.424 2.53098C106.424 2.53098 106.881 2.29003 106.917 2.21533C106.917 2.21533 106.889 2.79822 106.682 3.12649C106.682 3.12649 107.091 2.86661 107.023 2.12064L107.417 1.75975C107.417 1.75975 107.417 2.53308 107.258 2.83925C107.258 2.83925 107.633 2.51098 107.508 1.66085L107.839 1.25577C107.839 1.25577 107.894 1.92073 107.789 2.2995C107.789 2.2995 108.069 1.92178 107.928 1.13583L108.116 0.83912C108.116 0.83912 108.147 1.32626 108.144 1.47041C108.141 1.61455 108.178 1.62402 108.178 1.62402C108.27 1.33028 108.277 1.01746 108.198 0.720227C108.198 0.720227 108.552 0.0784163 108.589 0.0963029Z" fill="#1CF308"/>
<path opacity="0.1" d="M83.4527 62.8444L87.3271 63.0054" stroke="black" stroke-miterlimit="10"/>
<path opacity="0.1" d="M82.8223 63.5188L86.6967 63.6798" stroke="black" stroke-miterlimit="10"/>
<path opacity="0.1" d="M82.1921 64.1922L86.0665 64.3532" stroke="black" stroke-miterlimit="10"/>
<path opacity="0.1" d="M81.5607 64.8666L85.4351 65.0276" stroke="black" stroke-miterlimit="10"/>
<path opacity="0.1" d="M80.9305 65.54L84.8049 65.702" stroke="black" stroke-miterlimit="10"/>
<path opacity="0.1" d="M80.3003 66.2144L84.1747 66.3754" stroke="black" stroke-miterlimit="10"/>
<path opacity="0.1" d="M79.6689 66.8888L83.5433 67.0498" stroke="black" stroke-miterlimit="10"/>
<path opacity="0.1" d="M79.0388 67.5622L82.9132 67.7232" stroke="black" stroke-miterlimit="10"/>
<defs>
<linearGradient id="paint0_linear_83_366" x1="56.4237" y1="86.1969" x2="56.4237" y2="9.12381" gradientUnits="userSpaceOnUse">
<stop stop-color="#808080" stop-opacity="0.25"/>
<stop offset="0.54" stop-color="#808080" stop-opacity="0.12"/>
<stop offset="1" stop-color="#808080" stop-opacity="0.1"/>
</linearGradient>
</defs>
</svg>
