<svg width="618" height="591" viewBox="0 0 618 591" fill="none" xmlns="http://www.w3.org/2000/svg">
<path d="M371.107 413.502C371.324 416.969 372.149 420.306 373.508 423.213C374.868 426.12 376.718 428.506 378.894 430.157C380.011 430.999 378.938 433.321 377.828 432.485C375.43 430.645 373.389 428.006 371.882 424.799C370.375 421.592 369.449 417.914 369.185 414.087C369.138 413.729 369.191 413.36 369.331 413.054C369.471 412.748 369.688 412.529 369.939 412.441C370.193 412.365 370.459 412.435 370.678 412.633C370.897 412.832 371.051 413.144 371.107 413.502Z" fill="white"/>
<path opacity="0.2" d="M57.1089 462.122L73.6804 589.774L83.6237 591L57.1089 462.122Z" fill="black"/>
<path d="M221.139 339.773C242.491 286.075 283.221 244.844 326.337 248.816C294.533 298.259 275.988 362.191 273.982 429.3C273.274 455.185 274.372 484.081 262.35 503.464C254.87 515.524 243.436 521.365 232.194 522.591C220.952 523.816 209.712 520.912 198.62 518.02L195.929 519.201C194.905 457.451 199.787 393.47 221.139 339.773Z" fill="#F0F0F0"/>
<path d="M325.763 251.25C294.04 273.067 266.991 309.503 250.386 353.941C246.796 363.548 243.739 373.74 242.406 384.517C241.072 395.298 242.004 405.56 244.582 415.8C246.938 425.162 250.107 434.347 250.83 444.364C251.591 454.922 248.872 464.794 243.977 472.629C237.988 482.215 229.946 488.155 221.939 493.574C213.05 499.59 203.749 505.638 197.453 516.866C196.69 518.227 195.257 516.456 196.019 515.098C206.973 495.562 225.725 491.89 238.728 476.152C244.796 468.809 249.351 458.809 249.064 447.092C248.812 436.846 245.55 427.37 243.106 417.921C240.541 407.999 239.262 398.023 240.182 387.445C241.123 376.624 243.907 366.24 247.309 356.544C254.982 334.676 265.483 314.6 277.512 297.246C291.337 277.298 307.448 260.875 325.15 248.688C326.246 247.935 326.852 250.501 325.763 251.25Z" fill="white"/>
<path d="M255.36 338.495C250.403 333.488 246.896 326.21 245.465 317.961C244.034 309.711 244.772 301.028 247.548 293.461C248.113 291.933 249.859 293.075 249.293 294.605C246.699 301.645 246.012 309.733 247.356 317.411C248.7 325.089 251.986 331.851 256.622 336.475C257.628 337.482 256.36 339.496 255.36 338.495Z" fill="white"/>
<path d="M243.529 411.44C255.406 408.805 266.191 399.471 273.736 385.298C274.483 383.893 275.88 385.727 275.134 387.13C267.265 401.856 256.027 411.535 243.665 414.236C242.486 414.492 242.357 411.694 243.529 411.44Z" fill="white"/>
<path d="M293.106 280.156C294.587 282.524 296.452 284.324 298.535 285.395C300.617 286.466 302.851 286.774 305.036 286.292C306.156 286.04 306.278 288.572 305.165 288.823C302.749 289.339 300.282 288.995 297.979 287.819C295.677 286.643 293.609 284.672 291.957 282.077C291.787 281.851 291.683 281.541 291.666 281.208C291.649 280.876 291.72 280.547 291.866 280.287C292.019 280.034 292.235 279.878 292.467 279.854C292.699 279.829 292.929 279.938 293.106 280.156Z" fill="white"/>
<path d="M412 418.386C411.252 418.584 410.505 418.783 409.75 419.002C399.709 421.743 389.841 425.648 380.241 430.677C379.495 431.049 378.742 431.442 378.005 431.844C354.968 444.312 333.75 462.794 315.427 486.349C308.142 495.732 301.366 505.895 295.159 516.749C286.586 531.739 278.125 548.969 266.922 558.743C265.762 559.782 264.557 560.717 263.316 561.542L198.783 523.231C198.667 523.039 198.544 522.867 198.427 522.674L195.802 521.313C196.095 520.721 196.407 520.116 196.7 519.525C196.869 519.18 197.052 518.844 197.221 518.5C197.338 518.273 197.456 518.047 197.553 517.833C197.592 517.757 197.631 517.682 197.664 517.627C197.761 517.413 197.866 517.228 197.957 517.035C199.698 513.648 201.458 510.272 203.238 506.907C203.245 506.886 203.245 506.886 203.265 506.874C216.875 481.29 232.097 457.107 249.4 437C249.92 436.395 250.446 435.769 250.997 435.181C258.831 426.18 267.166 418.11 275.919 411.052C280.72 407.21 285.655 403.717 290.703 400.589C303.758 392.541 317.616 387.483 331.768 385.599C359.983 381.849 388.721 391.056 410.36 416.425C410.913 417.074 411.453 417.715 412 418.386Z" fill="#F0F0F0"/>
<path d="M410.763 419.818C376.326 409.855 339.465 415.739 307.56 437.147C300.662 441.776 293.943 447.339 288.351 454.87C282.756 462.405 279.184 471.49 276.932 481.985C274.874 491.581 273.536 501.74 269.901 510.445C266.069 519.62 259.753 525.218 252.561 527.284C243.762 529.811 234.859 527.615 226.204 525.03C216.595 522.159 206.645 518.957 196.91 522.542C195.731 522.976 195.334 520.304 196.511 519.87C213.449 513.633 229.927 526.96 246.899 525.566C254.819 524.915 262.651 520.808 267.347 511.111C271.454 502.63 272.84 492.155 274.866 482.414C276.994 472.185 280.168 463.03 285.348 455.299C290.646 447.392 297.229 441.437 304.015 436.573C319.319 425.606 336.121 418.539 352.998 414.994C372.394 410.918 392.13 411.671 411.352 417.22C412.541 417.564 411.945 420.16 410.763 419.818Z" fill="white"/>
<path d="M317.273 429.787C315.452 421.21 315.833 411.992 318.349 403.778C320.866 395.565 325.353 388.89 331.01 384.948C332.157 384.155 333.076 386.652 331.928 387.445C326.655 391.103 322.476 397.321 320.144 404.976C317.811 412.631 317.48 421.22 319.21 429.192C319.584 430.925 317.646 431.51 317.273 429.787Z" fill="white"/>
<path d="M276.855 477.026C287.878 485.162 300.772 487.399 312.964 483.291C314.172 482.883 314.579 485.43 313.372 485.838C300.678 490.081 287.264 487.716 275.807 479.216C274.715 478.405 275.769 476.22 276.855 477.026Z" fill="white"/>
<path d="M287.817 481.966C278.789 419.064 267.505 398.092 267.505 398.092L263.195 393.275L258.01 387.472L258.036 386.726L256.806 386.123L256.517 385.8L256.044 385.276L255.968 385.394L255.807 385.634L232.348 374.143L202.587 359.574L188.806 333.76C186.562 329.556 183.672 326.158 180.364 323.832C177.055 321.507 173.418 320.317 169.738 320.356L125.725 320.825C119.774 320.889 114.054 324.158 109.691 329.991L80.7619 368.661L35.6849 399.686L35.6088 399.577L35.1354 400.064L28.1706 404.863L28.458 407.019L24.1473 411.502C24.1473 411.502 12.8632 431.016 3.83598 489.545C1.53954 504.437 0.409156 536.384 0.00114659 575.751C-0.0193477 577.742 0.235079 579.72 0.749627 581.568C1.26417 583.417 2.02858 585.099 2.9984 586.518C3.96822 587.937 5.1241 589.064 6.39883 589.834C7.67357 590.603 9.04172 590.999 10.4237 591H251.189L281.24 591C282.621 590.999 283.988 590.603 285.262 589.834C286.536 589.066 287.691 587.94 288.661 586.523C289.63 585.106 290.395 583.425 290.91 581.579C291.426 579.732 291.681 577.757 291.662 575.766C291.264 532.929 290.134 498.116 287.817 481.966Z" fill="black"/>
<path d="M318.892 55.2336C309.507 55.2336 300.506 60.5679 293.87 70.0631C287.233 79.5582 283.505 92.4363 283.505 105.864C283.505 119.293 287.233 132.171 293.87 141.666C300.506 151.161 309.507 156.495 318.892 156.495H582.613C591.998 156.495 600.999 151.161 607.635 141.666C614.272 132.171 618 119.293 618 105.864C618 92.4363 614.272 79.5582 607.635 70.0631C600.999 60.5679 591.998 55.2336 582.613 55.2336H318.892Z" fill="#E5E5E5"/>
<path d="M319.713 64.4393C312.274 64.4393 305.139 68.7068 299.879 76.3029C294.619 83.899 291.663 94.2015 291.663 104.944C291.663 115.687 294.619 125.989 299.879 133.585C305.139 141.181 312.274 145.449 319.713 145.449H581.792C589.231 145.449 596.365 141.181 601.626 133.585C606.886 125.989 609.842 115.687 609.842 104.944C609.842 94.2015 606.886 83.899 601.626 76.3029C596.365 68.7068 589.231 64.4393 581.792 64.4393H319.713Z" fill="white"/>
<path d="M155.01 296.421C186.55 296.421 212.119 259.327 212.119 213.57C212.119 167.813 186.55 130.72 155.01 130.72C123.47 130.72 97.901 167.813 97.901 213.57C97.901 259.327 123.47 296.421 155.01 296.421Z" fill="#9E616A"/>
<path d="M140.733 292.738C140.051 292.127 139.371 291.513 138.693 290.897C138.954 290.901 139.213 290.916 139.474 290.919L140.733 292.738Z" fill="#2F2E41"/>
<path d="M95.8395 134.814C98.7324 131.487 102.113 128.426 105.812 128.598C109.511 128.77 113.261 133.586 112.495 138.806C119.289 121.464 130.102 108.126 143.037 101.133C155.972 94.1404 170.202 93.9397 183.23 100.566C192.422 105.242 201.437 114.596 203.549 128.316C204.091 131.838 204.207 135.7 205.732 138.56C207.656 142.166 211.335 142.981 214.365 141.713C214.395 141.7 214.426 141.687 214.456 141.674C214.968 141.422 215.52 141.398 216.042 141.603C216.564 141.809 217.031 142.236 217.382 142.828C217.734 143.42 217.954 144.151 218.015 144.926C218.075 145.701 217.973 146.484 217.721 147.174L215.12 154.168C218.399 155.222 221.806 155.117 225.051 153.864C225.59 153.66 226.159 153.701 226.681 153.983C227.203 154.264 227.652 154.771 227.966 155.435C228.28 156.098 228.444 156.886 228.435 157.689C228.427 158.492 228.246 159.272 227.918 159.921C219.341 176.898 205.013 187.86 190.391 187.731C179.998 187.64 169.499 182.476 159.385 185.922C155.472 187.255 151.816 189.834 148.684 193.469C145.553 197.105 143.026 201.706 141.289 206.933C139.552 212.16 138.648 217.882 138.645 223.679C138.642 229.475 139.538 235.199 141.27 240.431C138.162 235.531 132.156 236.691 128.978 241.495C125.8 246.299 124.977 253.469 125.297 260.092C125.787 270.222 128.539 279.767 131.442 289.056C107.111 287.952 84.0974 263.345 76.3512 230.064C68.5724 196.643 76.7248 156.798 95.8395 134.814Z" fill="black"/>
<path opacity="0.2" d="M234.554 452.916L219.258 589.686L210.079 591L234.554 452.916Z" fill="black"/>
<path d="M108.681 91.3715C105.707 93.2333 102.603 91.1929 101.301 86.5203C99.98 81.7761 101.214 76.9602 104.236 75.0686C107.258 73.1768 110.307 75.2221 111.649 80.0428C112.972 84.7911 111.751 89.4495 108.681 91.3715ZM102.983 65.7306L100.619 67.2109C100.028 67.5763 99.367 67.596 98.767 67.2661C98.1669 66.9362 97.6714 66.2808 97.3783 65.4294L97.2614 65.0864C94.7168 58.207 94.4254 49.846 96.4 40.2488C98.2292 31.6396 98.9889 25.5849 97.461 20.0996C95.6945 13.7575 91.9222 11.7709 87.1118 14.6487C85.2461 15.8166 84.6524 15.798 83.1841 17.9814C82.8647 18.4622 82.4841 18.8416 82.0648 19.097C81.6455 19.3524 81.1962 19.4786 80.7436 19.4681C80.3062 19.4604 79.8742 19.3207 79.4735 19.0573C79.0728 18.794 78.7116 18.4123 78.4115 17.9352C77.8332 17.0157 77.5092 15.8015 77.5049 14.5377C77.5007 13.274 77.8165 12.0549 78.3885 11.1267C80.8564 7.25403 83.833 4.19024 87.1304 2.12868C97.466 -4.34108 102.669 5.21059 105.05 13.7584C107.379 22.1192 106.069 29.8766 103.964 39.9232C102.2 48.2713 102.303 54.4571 104.306 60.6078C104.451 61.0728 104.532 61.5768 104.543 62.0896C104.555 62.6024 104.497 63.1133 104.373 63.5918C104.25 64.0703 104.063 64.5064 103.824 64.8739C103.585 65.2414 103.299 65.5329 102.983 65.7306Z" fill="#2C5AFF"/>
<path d="M378.109 130.72H325.571C325.404 130.721 325.239 130.675 325.084 130.583C324.93 130.491 324.789 130.356 324.671 130.185C324.552 130.014 324.458 129.81 324.394 129.586C324.33 129.362 324.297 129.121 324.297 128.878C324.297 128.636 324.33 128.395 324.394 128.171C324.458 127.947 324.552 127.743 324.671 127.572C324.789 127.401 324.93 127.266 325.084 127.174C325.239 127.082 325.404 127.036 325.571 127.037H378.109C378.444 127.041 378.763 127.236 378.999 127.581C379.234 127.926 379.366 128.392 379.366 128.878C379.366 129.365 379.234 129.831 378.999 130.176C378.763 130.521 378.444 130.716 378.109 130.72Z" fill="#2C5AFF"/>
<path d="M443.36 130.72H390.838C390.671 130.721 390.506 130.675 390.351 130.583C390.197 130.491 390.056 130.356 389.938 130.185C389.82 130.014 389.726 129.81 389.661 129.586C389.597 129.362 389.564 129.121 389.564 128.878C389.564 128.636 389.597 128.395 389.661 128.171C389.726 127.947 389.82 127.743 389.938 127.572C390.056 127.401 390.197 127.266 390.351 127.174C390.506 127.082 390.671 127.036 390.838 127.037H443.36C443.527 127.036 443.692 127.082 443.847 127.174C444.001 127.266 444.142 127.401 444.26 127.572C444.378 127.743 444.472 127.947 444.537 128.171C444.601 128.395 444.634 128.636 444.634 128.878C444.634 129.121 444.601 129.362 444.537 129.586C444.472 129.81 444.378 130.014 444.26 130.185C444.142 130.356 444.001 130.491 443.847 130.583C443.692 130.675 443.527 130.721 443.36 130.72Z" fill="#2C5AFF"/>
<path d="M510.667 130.72H458.128C457.794 130.716 457.474 130.521 457.239 130.176C457.003 129.831 456.871 129.365 456.871 128.878C456.871 128.392 457.003 127.926 457.239 127.581C457.474 127.236 457.794 127.041 458.128 127.037H510.667C510.833 127.036 510.999 127.082 511.153 127.174C511.308 127.266 511.449 127.401 511.567 127.572C511.685 127.743 511.779 127.947 511.844 128.171C511.908 128.395 511.941 128.636 511.941 128.878C511.941 129.121 511.908 129.362 511.844 129.586C511.779 129.81 511.685 130.014 511.567 130.185C511.449 130.356 511.308 130.491 511.153 130.583C510.999 130.675 510.833 130.721 510.667 130.72Z" fill="#2C5AFF"/>
<path d="M575.997 132.561H525.389C525.067 132.557 524.759 132.362 524.532 132.017C524.306 131.672 524.178 131.206 524.178 130.72C524.178 130.233 524.306 129.767 524.532 129.422C524.759 129.077 525.067 128.882 525.389 128.878H575.997C576.319 128.882 576.627 129.077 576.854 129.422C577.081 129.767 577.208 130.233 577.208 130.72C577.208 131.206 577.081 131.672 576.854 132.017C576.627 132.362 576.319 132.557 575.997 132.561Z" fill="#2C5AFF"/>
<path d="M350.812 114.149C356.444 114.149 361.01 107.555 361.01 99.4205C361.01 91.2859 356.444 84.6915 350.812 84.6915C345.18 84.6915 340.614 91.2859 340.614 99.4205C340.614 107.555 345.18 114.149 350.812 114.149Z" fill="#2C5AFF"/>
<path d="M418.119 114.149C423.751 114.149 428.317 107.555 428.317 99.4205C428.317 91.2859 423.751 84.6915 418.119 84.6915C412.487 84.6915 407.921 91.2859 407.921 99.4205C407.921 107.555 412.487 114.149 418.119 114.149Z" fill="#2C5AFF"/>
<path d="M484.406 114.149C489.475 114.149 493.584 107.555 493.584 99.4205C493.584 91.2859 489.475 84.6915 484.406 84.6915C479.337 84.6915 475.228 91.2859 475.228 99.4205C475.228 107.555 479.337 114.149 484.406 114.149Z" fill="#2C5AFF"/>
<path d="M551.713 114.149C556.782 114.149 560.891 107.555 560.891 99.4205C560.891 91.2859 556.782 84.6915 551.713 84.6915C546.644 84.6915 542.535 91.2859 542.535 99.4205C542.535 107.555 546.644 114.149 551.713 114.149Z" fill="#2C5AFF"/>
</svg>
