<svg width="291" height="190" viewBox="0 0 291 190" fill="none" xmlns="http://www.w3.org/2000/svg">
<g clip-path="url(#clip0_64_22)">
<path d="M264.886 173.45C259.308 178.417 252.916 182.705 245.899 186.189C245.738 186.272 245.574 186.349 245.41 186.429L234.05 178.067C234.169 177.975 234.301 177.872 234.443 177.758C242.908 171.074 284.929 124.34 287.729 112.96C287.536 113.908 290.256 151.089 264.886 173.45Z" fill="#F0F0F0"/>
<path d="M248.09 187.803C247.876 187.845 247.657 187.885 247.438 187.922L238.915 181.649C239.082 181.6 239.277 181.543 239.499 181.479C243.156 180.402 254.047 177.152 264.885 173.449C276.531 169.47 288.121 164.973 290.614 162.092C290.079 162.761 273.608 183.057 248.09 187.803Z" fill="#F0F0F0"/>
<path d="M264.728 49.7605H263.515V22.1104C263.515 20.0088 263.017 17.9278 262.05 15.9862C261.083 14.0447 259.665 12.2805 257.879 10.7945C256.092 9.30842 253.97 8.12964 251.636 7.3254C249.301 6.52117 246.798 6.10724 244.271 6.10724H173.83C171.303 6.10723 168.8 6.52116 166.465 7.32539C164.131 8.12962 162.009 9.3084 160.222 10.7944C158.436 12.2804 157.018 14.0446 156.051 15.9862C155.084 17.9278 154.586 20.0088 154.586 22.1103V173.801C154.586 175.902 155.084 177.983 156.051 179.925C157.018 181.867 158.436 183.631 160.222 185.117C162.009 186.603 164.131 187.782 166.465 188.586C168.8 189.39 171.302 189.804 173.83 189.804H244.271C246.798 189.804 249.301 189.39 251.635 188.586C253.97 187.782 256.092 186.603 257.878 185.117C259.665 183.631 261.083 181.867 262.05 179.925C263.017 177.984 263.515 175.903 263.515 173.801V69.4423H264.728V49.7605Z" fill="#464373"/>
<path d="M259.419 22.2203V173.69C259.419 175.26 259.047 176.814 258.324 178.264C257.602 179.714 256.543 181.031 255.209 182.141C253.874 183.25 252.289 184.13 250.546 184.73C248.802 185.331 246.933 185.639 245.046 185.639H174.265C172.378 185.639 170.51 185.33 168.766 184.729C167.023 184.129 165.439 183.249 164.105 182.139C162.771 181.03 161.712 179.712 160.99 178.263C160.268 176.813 159.897 175.259 159.897 173.69V22.2203C159.897 20.6512 160.268 19.0974 160.99 17.6477C161.712 16.1979 162.771 14.8807 164.105 13.7712C165.439 12.6616 167.023 11.7815 168.766 11.1811C170.51 10.5806 172.378 10.2717 174.265 10.2718H182.854C182.433 11.134 182.272 12.0691 182.387 12.9949C182.502 13.9207 182.889 14.8089 183.513 15.5813C184.138 16.3537 184.981 16.9866 185.969 17.4245C186.956 17.8623 188.058 18.0916 189.177 18.0922H229.531C230.651 18.0931 231.754 17.8648 232.743 17.4273C233.731 16.9899 234.575 16.3569 235.2 15.584C235.825 14.8112 236.212 13.9224 236.326 12.9959C236.44 12.0695 236.278 11.1339 235.855 10.2718H245.046C246.933 10.2712 248.802 10.5799 250.546 11.1801C252.289 11.7803 253.874 12.6603 255.209 13.7699C256.543 14.8795 257.602 16.1969 258.324 17.6468C259.047 19.0967 259.419 20.6508 259.419 22.2203Z" fill="white"/>
<path d="M237.401 100.932H175.187C174.097 100.931 173.052 100.571 172.282 99.9299C171.511 99.2891 171.078 98.4203 171.077 97.514V95.8127C171.078 94.9065 171.511 94.0376 172.282 93.3968C173.052 92.7561 174.097 92.3956 175.187 92.3946H237.401C238.491 92.3956 239.536 92.7561 240.306 93.3968C241.077 94.0376 241.51 94.9065 241.511 95.8127V97.514C241.51 98.4203 241.077 99.2891 240.306 99.9299C239.536 100.571 238.491 100.931 237.401 100.932Z" fill="#F0F0F0"/>
<path d="M237.401 115.598H175.187C174.097 115.597 173.052 115.237 172.282 114.596C171.511 113.955 171.078 113.086 171.077 112.18V110.479C171.078 109.573 171.511 108.704 172.282 108.063C173.052 107.422 174.097 107.062 175.187 107.061H237.401C238.491 107.062 239.536 107.422 240.306 108.063C241.077 108.704 241.51 109.573 241.511 110.479V112.18C241.51 113.086 241.077 113.955 240.306 114.596C239.536 115.237 238.491 115.597 237.401 115.598Z" fill="#F0F0F0"/>
<path d="M240.513 97.6521H178.299C177.155 97.651 176.058 97.2725 175.249 96.5997C174.44 95.9269 173.985 95.0146 173.983 94.0631V92.3617C173.985 91.4102 174.44 90.498 175.249 89.8251C176.058 89.1523 177.155 88.7738 178.299 88.7727H240.513C241.658 88.7738 242.754 89.1523 243.564 89.8251C244.373 90.498 244.828 91.4102 244.829 92.3617V94.0631C244.828 95.0146 244.373 95.9269 243.564 96.5997C242.754 97.2725 241.658 97.651 240.513 97.6521ZM178.299 89.4564C177.373 89.4572 176.485 89.7636 175.83 90.3083C175.175 90.8529 174.806 91.5914 174.805 92.3617V94.0631C174.806 94.8334 175.175 95.5719 175.83 96.1165C176.485 96.6612 177.373 96.9676 178.299 96.9685H240.513C241.44 96.9676 242.328 96.6612 242.983 96.1165C243.638 95.5719 244.006 94.8334 244.007 94.0631V92.3617C244.006 91.5914 243.638 90.8529 242.983 90.3083C242.328 89.7636 241.44 89.4572 240.513 89.4564H178.299Z" fill="#464373"/>
<path d="M240.513 112.318H178.299C177.155 112.317 176.058 111.939 175.249 111.266C174.44 110.593 173.985 109.681 173.983 108.729V107.028C173.985 106.076 174.44 105.164 175.249 104.491C176.058 103.818 177.155 103.44 178.299 103.439H240.513C241.658 103.44 242.754 103.818 243.564 104.491C244.373 105.164 244.828 106.076 244.829 107.028V108.729C244.828 109.681 244.373 110.593 243.564 111.266C242.754 111.939 241.658 112.317 240.513 112.318ZM178.299 104.122C177.373 104.123 176.485 104.43 175.83 104.974C175.175 105.519 174.806 106.257 174.805 107.028V108.729C174.806 109.499 175.175 110.238 175.83 110.783C176.485 111.327 177.373 111.634 178.299 111.634H240.513C241.44 111.634 242.328 111.327 242.983 110.783C243.638 110.238 244.006 109.499 244.007 108.729V107.028C244.006 106.257 243.638 105.519 242.983 104.974C242.328 104.43 241.44 104.123 240.513 104.122H178.299Z" fill="#464373"/>
<path d="M259.419 22.2203V55.1671C253.123 56.5444 246.532 56.7024 240.152 55.629C233.772 54.5556 227.773 52.2793 222.617 48.9754C217.461 45.6714 213.285 41.4279 210.41 36.5711C207.535 31.7144 206.038 26.374 206.035 20.9607C206.035 19.9945 206.081 19.0383 206.175 18.0922H229.531C230.651 18.0931 231.754 17.8648 232.743 17.4273C233.731 16.9899 234.575 16.3569 235.2 15.584C235.825 14.8112 236.212 13.9224 236.326 12.9959C236.44 12.0695 236.278 11.1339 235.854 10.2718H245.046C246.933 10.2712 248.802 10.5799 250.545 11.1801C252.289 11.7803 253.874 12.6603 255.209 13.7699C256.543 14.8795 257.602 16.1969 258.324 17.6468C259.047 19.0967 259.419 20.6508 259.419 22.2203Z" fill="#F0F0F0"/>
<path d="M195.661 183.581C195.661 184.275 195.63 184.961 195.562 185.639H174.265C172.378 185.639 170.51 185.33 168.766 184.729C167.023 184.129 165.439 183.249 164.105 182.139C162.771 181.03 161.712 179.712 160.99 178.263C160.268 176.813 159.897 175.259 159.897 173.69V157.488C164.361 157.006 168.898 157.32 173.205 158.41C177.512 159.499 181.49 161.34 184.874 163.809C188.258 166.278 190.97 169.319 192.83 172.728C194.691 176.137 195.655 179.837 195.661 183.581Z" fill="#1DB8A5"/>
<path d="M23.8888 155.153C24.4873 155.372 25.1657 155.385 25.7752 155.188C26.3848 154.992 26.8757 154.602 27.1404 154.105L46.3264 117.944C46.7655 117.116 46.8997 116.199 46.7119 115.308C46.5242 114.417 46.023 113.592 45.2716 112.938C44.5203 112.284 43.5526 111.83 42.491 111.634C41.4293 111.437 40.3214 111.506 39.3073 111.833C38.1357 112.206 37.1552 112.904 36.5328 113.809C36.4338 113.952 36.344 114.1 36.2638 114.251L17.0778 150.412C16.9471 150.659 16.876 150.924 16.8686 151.193C16.8612 151.463 16.9176 151.731 17.0347 151.982C17.1517 152.233 17.3272 152.462 17.5509 152.657C17.7746 152.852 18.0423 153.008 18.3386 153.117L23.8888 155.153Z" fill="#1DB8A5"/>
<path d="M45.5388 132.789L26.5614 129.282L31.2585 118.949C32.0587 116.423 33.9209 114.219 36.5073 112.738C39.0937 111.256 42.2331 110.594 45.356 110.872L45.5388 110.889L45.5388 132.789Z" fill="#B5BAA1"/>
<path d="M83.87 155.67C83.3119 155.67 82.7659 155.534 82.2982 155.281C81.8305 155.028 81.4611 154.667 81.2347 154.243L62.0487 118.081C61.4386 116.931 61.3818 115.63 61.8902 114.445C62.3986 113.261 63.4335 112.284 64.7818 111.715C66.1302 111.146 67.6896 111.028 69.1391 111.386C70.5887 111.744 71.8182 112.55 72.5746 113.639C72.681 113.793 72.7774 113.951 72.8634 114.113L92.0494 150.275C92.3574 150.855 92.3755 151.514 92.0996 152.105C91.8238 152.697 91.2766 153.173 90.5785 153.429L84.8401 155.535L84.8372 155.529C84.527 155.623 84.1998 155.67 83.87 155.67Z" fill="#1DB8A5"/>
<path d="M57.3308 143.253C56.677 143.253 56.0502 143.47 55.5879 143.854C55.1255 144.239 54.8655 144.76 54.8647 145.304V187.351C54.8655 187.895 55.1255 188.416 55.5879 188.8C56.0502 189.185 56.677 189.401 57.3308 189.402H63.3973C64.0511 189.401 64.6779 189.185 65.1403 188.8C65.6026 188.416 65.8626 187.895 65.8634 187.351V145.304C65.8626 144.76 65.6026 144.239 65.1403 143.854C64.6779 143.47 64.0511 143.253 63.3973 143.253H57.3308Z" fill="#1DB8A5"/>
<path d="M45.3323 143.253C44.6785 143.253 44.0516 143.47 43.5893 143.854C43.127 144.239 42.8669 144.76 42.8662 145.304V187.351C42.8669 187.895 43.127 188.416 43.5893 188.8C44.0516 189.185 44.6785 189.401 45.3323 189.402H51.3988C52.0526 189.401 52.6795 189.185 53.1418 188.8C53.6041 188.416 53.8642 187.895 53.8649 187.351V145.304C53.8642 144.76 53.6041 144.239 53.1418 143.854C52.6795 143.47 52.0526 143.253 51.3988 143.253H45.3323Z" fill="#1DB8A5"/>
<path d="M54.1835 99.2009C65.7605 99.2009 75.1454 91.3962 75.1454 81.7687C75.1454 72.1412 65.7605 64.3365 54.1835 64.3365C42.6066 64.3365 33.2217 72.1412 33.2217 81.7687C33.2217 91.3962 42.6066 99.2009 54.1835 99.2009Z" fill="#1DB8A5"/>
<path d="M61.1593 89.0865C62.5181 89.0551 64.2092 89.0159 65.512 88.2244C65.8999 87.9791 66.2187 87.6662 66.4459 87.3076C66.6731 86.9491 66.8033 86.5535 66.8273 86.1487C66.8509 85.861 66.7941 85.5727 66.6614 85.3063C66.5288 85.0398 66.3239 84.8025 66.0626 84.6129C65.3822 84.1347 64.3886 84.0226 63.3178 84.2843L64.4272 77.5419L63.6128 77.4491L62.3086 85.3756L62.9887 85.1161C63.7771 84.8154 64.8595 84.6623 65.532 85.135C65.6972 85.2586 65.8259 85.4121 65.908 85.5838C65.9902 85.7554 66.0237 85.9405 66.0058 86.1247C65.9859 86.426 65.8881 86.7201 65.7192 86.9872C65.5504 87.2543 65.3143 87.4879 65.0271 87.6723C64.0132 88.2882 62.6653 88.3676 61.1365 88.4032L61.1593 89.0865Z" fill="#B5BAA1"/>
<path d="M72.8821 78.1234H68.4548V78.807H72.8821V78.1234Z" fill="#B5BAA1"/>
<path d="M58.9075 78.1234H54.4802V78.807H58.9075V78.1234Z" fill="#B5BAA1"/>
<path d="M74.9538 155.883L67.4091 110.08C67.3282 109.589 67.0362 109.139 66.587 108.813C66.1377 108.487 65.5618 108.308 64.9657 108.308H59.2709C59.2946 108.195 59.307 108.081 59.3078 107.966V106.257C59.3078 105.713 59.048 105.191 58.5855 104.807C58.123 104.422 57.4958 104.206 56.8417 104.206H51.9095C51.2555 104.206 50.6282 104.422 50.1658 104.807C49.7033 105.191 49.4435 105.713 49.4434 106.257V107.966C49.4443 108.081 49.4566 108.195 49.4804 108.308H43.7855C43.1895 108.308 42.6135 108.487 42.1643 108.813C41.7151 109.139 41.4231 109.589 41.3421 110.08L33.7975 155.883C33.7497 156.173 33.7772 156.468 33.8781 156.749C33.9789 157.029 34.1509 157.289 34.3824 157.509C34.6138 157.73 34.8995 157.907 35.22 158.028C35.5405 158.149 35.8886 158.212 36.2407 158.212H72.5105C72.8627 158.212 73.2107 158.149 73.5312 158.028C73.8518 157.907 74.1374 157.73 74.3689 157.509C74.6004 157.289 74.7723 157.029 74.8732 156.749C74.9741 156.468 75.0016 156.173 74.9538 155.883Z" fill="#B5BAA1"/>
<path d="M63.2125 132.789V110.889L63.3954 110.872C66.522 110.594 69.6649 111.258 72.253 112.744C74.8411 114.229 76.7027 116.437 77.4996 118.966L82.1898 129.282L63.2125 132.789Z" fill="#B5BAA1"/>
<path d="M53.1281 99.7449L38.6293 95.0649C36.2584 94.2996 33.8743 93.5576 31.516 92.766C30.5058 92.4732 29.5753 92.0172 28.778 91.424C28.0839 90.8129 27.6108 90.0516 27.413 89.2272C26.9101 87.4596 27.001 85.5271 27.0369 83.7232C27.0647 81.7499 27.26 79.7807 27.6212 77.8302C28.2544 74.165 29.7413 70.6377 31.9987 67.446C36.0648 61.8979 43.0703 57.7237 51.1286 58.0568C54.8593 58.2111 58.6114 59.3244 61.3832 61.4455C61.6724 61.7329 61.9968 61.9944 62.3512 62.2257C62.5975 62.3025 62.8656 62.3175 63.1221 62.2687C63.4604 62.2506 63.7989 62.2368 64.1377 62.2273C65.3133 62.1861 66.491 62.2271 67.6583 62.3501C69.7855 62.5412 71.8017 63.2374 73.4661 64.3556C74.8513 65.3465 75.9783 66.7454 76.0943 68.3C76.1503 69.0137 76.0084 69.7285 75.6796 70.3893C75.3508 71.0501 74.8438 71.6393 74.1978 72.1114C72.468 73.3238 70 72.8976 67.9251 72.8062L60.3238 72.4713L56.4725 72.3016C55.6795 72.2667 55.6819 73.2922 56.4725 73.3271L66.7089 73.7781C68.3539 73.8505 70.0492 74.0281 71.6955 73.9461C72.9605 73.8985 74.1684 73.4944 75.1206 72.8002C75.9903 72.1359 76.6381 71.2954 77.0009 70.3609C77.3637 69.4263 77.4291 68.4295 77.1907 67.4676C76.663 65.3698 74.7855 63.6344 72.5846 62.602C69.5899 61.1972 66.0133 61.0626 62.6624 61.2703L63.0983 61.4205C59.3078 58.0372 53.5017 56.6087 48.0509 57.1086C42.2957 57.6364 37.177 60.3065 33.4992 63.9576C29.3987 68.0283 27.1642 73.1042 26.2955 78.3237C25.8434 81.1418 25.6946 83.9878 25.8508 86.8278C25.8443 88.0803 26.102 89.3241 26.6121 90.5026C27.1941 91.6496 28.2463 92.5878 29.5817 93.1503C31.1128 93.765 32.6867 94.3027 34.2952 94.7605L39.6369 96.4847L50.1295 99.8716L52.8003 100.734C53.5405 100.973 53.8611 99.9815 53.1281 99.7449Z" fill="#B5BAA1"/>
<path d="M30.3311 64.8982C29.0711 64.8982 27.8393 64.5875 26.7917 64.0054C25.744 63.4232 24.9275 62.5958 24.4453 61.6277C23.9631 60.6596 23.8369 59.5943 24.0827 58.5666C24.3286 57.5389 24.9353 56.5949 25.8263 55.8539C26.7172 55.113 27.8524 54.6084 29.0882 54.404C30.324 54.1996 31.605 54.3045 32.7691 54.7055C33.9332 55.1065 34.9282 55.7855 35.6282 56.6568C36.3282 57.528 36.7019 58.5524 36.7019 59.6002C36.7 61.0049 36.0281 62.3515 34.8338 63.3447C33.6395 64.338 32.0201 64.8967 30.3311 64.8982ZM30.3311 55.3276C29.315 55.3276 28.3216 55.5782 27.4767 56.0477C26.6318 56.5172 25.9733 57.1844 25.5845 57.9652C25.1956 58.7459 25.0939 59.605 25.2921 60.4338C25.4903 61.2626 25.9797 62.0239 26.6982 62.6214C27.4167 63.2189 28.3322 63.6259 29.3288 63.7907C30.3254 63.9556 31.3584 63.871 32.2972 63.5476C33.236 63.2242 34.0384 62.6766 34.6029 61.9739C35.1675 61.2713 35.4688 60.4453 35.4688 59.6002C35.4673 58.4674 34.9255 57.3814 33.9623 56.5804C32.9991 55.7794 31.6932 55.3289 30.3311 55.3276Z" fill="#B5BAA1"/>
<path d="M136.827 97.7307L123.038 88.9601L112.492 100.427L126.281 109.198L136.827 97.7307Z" fill="#F0F0F0"/>
<path d="M58.8968 19.4377C61.0755 19.4363 63.2243 19.8592 65.1712 20.6725C67.1181 21.4858 68.8089 22.6669 70.1083 24.1213L78.16 15.3663L54.0009 0L35.5234 20.0911L45.9359 26.714C46.9779 24.5648 48.7686 22.7238 51.0781 21.4273C53.3876 20.1307 56.1104 19.4379 58.8968 19.4377Z" fill="#F0F0F0"/>
<path d="M290.589 190H0.411017C0.302008 190 0.197464 189.964 0.120384 189.9C0.0433031 189.836 0 189.749 0 189.658C0 189.568 0.0433031 189.481 0.120384 189.417C0.197464 189.352 0.302008 189.316 0.411017 189.316H290.589C290.698 189.316 290.803 189.352 290.88 189.417C290.957 189.481 291 189.568 291 189.658C291 189.749 290.957 189.836 290.88 189.9C290.803 189.964 290.698 190 290.589 190Z" fill="#464373"/>
<path d="M219.766 133.284H190.229C189.139 133.283 188.095 132.922 187.324 132.281C186.554 131.64 186.12 130.772 186.119 129.865V128.164C186.12 127.258 186.554 126.389 187.324 125.748C188.095 125.108 189.139 124.747 190.229 124.746H219.766C220.855 124.747 221.9 125.108 222.671 125.748C223.441 126.389 223.875 127.258 223.876 128.164V129.865C223.875 130.772 223.441 131.64 222.671 132.281C221.9 132.922 220.855 133.283 219.766 133.284Z" fill="#1DB8A5"/>
<path d="M222.878 130.004H193.341C192.197 130.003 191.1 129.624 190.291 128.951C189.482 128.278 189.027 127.366 189.026 126.415V124.713C189.027 123.762 189.482 122.85 190.291 122.177C191.1 121.504 192.197 121.125 193.341 121.124H222.878C224.022 121.125 225.119 121.504 225.928 122.177C226.737 122.85 227.192 123.762 227.193 124.713V126.415C227.192 127.366 226.737 128.278 225.928 128.951C225.119 129.624 224.022 130.003 222.878 130.004ZM193.341 121.808C192.415 121.809 191.527 122.115 190.872 122.66C190.217 123.205 189.849 123.943 189.848 124.713V126.415C189.849 127.185 190.217 127.923 190.872 128.468C191.527 129.013 192.415 129.319 193.341 129.32H222.878C223.804 129.319 224.692 129.013 225.347 128.468C226.002 127.923 226.37 127.185 226.371 126.415V124.713C226.37 123.943 226.002 123.205 225.347 122.66C224.692 122.115 223.804 121.809 222.878 121.808H193.341Z" fill="#464373"/>
</g>
<defs>
<clipPath id="clip0_64_22">
<rect width="291" height="190" fill="white"/>
</clipPath>
</defs>
</svg>
