<svg width="694" height="574" viewBox="0 0 694 574" fill="none" xmlns="http://www.w3.org/2000/svg">
<g clip-path="url(#clip0_32_32)">
<path d="M531.343 567.509C522.458 557.123 517.061 540.715 518.476 524.742C519.891 508.77 528.658 494.086 540.029 490.694C551.4 487.302 564.362 496.691 567.816 512.058C569.716 482.431 571.907 451.564 583.292 426.334C593.602 403.489 611.458 387.143 630.811 384.219C650.163 381.294 670.538 392.339 682.607 413.47C694.677 434.601 697.632 465.321 689.179 489.581C682.952 507.453 671.479 520.753 659.459 531.573C620.618 566.243 574.032 580.342 528.274 571.276L531.343 567.509Z" fill="#F2F2F2"/>
<path d="M663.47 392.952C647.502 410.944 632.853 431.068 619.735 453.031C599.206 487.286 582.593 525.692 570.476 566.911C569.589 569.918 573.118 571.227 573.995 568.254C593.821 501.264 625.471 442.22 666.051 396.522C667.874 394.469 665.278 390.916 663.47 392.952Z" fill="white"/>
<path d="M223.41 564.687C235.613 550.421 243.026 527.886 241.082 505.947C239.138 484.008 227.098 463.84 211.48 459.181C195.862 454.522 178.058 467.419 173.314 488.525C170.704 447.833 167.695 405.436 152.057 370.783C137.897 339.406 113.371 316.954 86.7908 312.938C60.2105 308.921 32.2249 324.091 15.6478 353.115C-0.929399 382.138 -4.98824 424.332 6.62196 457.653C15.1748 482.2 30.9321 500.468 47.4419 515.329C100.114 562.744 165.453 582.519 227.624 569.861" fill="#F2F2F2"/>
<path d="M41.9326 324.932C63.8646 349.645 83.9849 377.285 102.003 407.452C120.023 437.588 135.888 470.07 149.375 504.444C156.913 523.726 163.685 543.563 169.661 563.866C170.879 567.996 166.031 569.794 164.826 565.71C154.243 529.915 141.149 495.642 125.732 463.381C110.39 431.237 92.8305 401.227 73.3 373.774C62.2534 358.254 50.5983 343.586 38.3876 329.836C35.8847 327.017 39.4504 322.136 41.9326 324.932Z" fill="white"/>
<path d="M498.164 572.744H207.003V159.463C207.003 71.5348 258.712 0 322.271 0H382.897C446.456 0 498.164 71.5348 498.164 159.463V572.744Z" fill="#F2F2F2"/>
<path d="M437.539 572.744H207.003V159.463C206.94 125.771 214.652 92.9304 229.017 65.7227C229.546 64.7243 230.074 63.7387 230.619 62.764C237.567 50.157 245.836 39.0543 255.152 29.8223C255.678 29.2926 256.206 28.7721 256.742 28.2516C264.538 20.7887 272.97 14.688 281.848 10.0882C282.375 9.81177 282.912 9.53479 283.448 9.26914C291.477 5.30526 299.8 2.59003 308.264 1.17356C308.788 1.07441 309.327 0.996821 309.866 0.91923C318.113 -0.300713 326.431 -0.300713 334.678 0.91923C335.216 0.996821 335.754 1.0744 336.285 1.17463C344.746 2.59118 353.067 5.30608 361.094 9.26919C361.631 9.53485 362.168 9.8118 362.696 10.0888C371.464 14.6305 379.798 20.6402 387.51 27.9838C388.046 28.493 388.582 29.0135 389.11 29.534C394.332 34.6906 399.237 40.4354 403.775 46.7097C407.414 51.7424 410.805 57.1069 413.925 62.7673C414.468 63.7388 414.996 64.7243 415.525 65.7212C429.89 92.9291 437.603 125.77 437.539 159.463V572.744Z" fill="#CCCCCC"/>
<path d="M418.793 387.899C425.842 387.899 431.556 379.993 431.556 370.242C431.556 360.49 425.842 352.585 418.793 352.585C411.744 352.585 406.03 360.49 406.03 370.242C406.03 379.993 411.744 387.899 418.793 387.899Z" fill="#FFD600"/>
<path d="M474.312 560.365H464.533L459.88 508.18L474.314 508.181L474.312 560.365Z" fill="#FFB8B8"/>
<path d="M457.547 556.499H476.407V572.928H445.671C445.671 570.77 445.979 568.634 446.575 566.641C447.172 564.647 448.047 562.836 449.15 561.311C450.252 559.785 451.561 558.575 453.002 557.75C454.443 556.924 455.987 556.499 457.547 556.499Z" fill="#2F2E41"/>
<path d="M522.972 560.365H513.192L508.539 508.18L522.974 508.181L522.972 560.365Z" fill="#FFB8B8"/>
<path d="M506.207 556.499H525.067V572.928H494.331C494.331 570.77 494.638 568.634 495.235 566.641C495.832 564.647 496.707 562.836 497.81 561.311C498.912 559.785 500.221 558.575 501.662 557.75C503.103 556.924 504.647 556.499 506.207 556.499Z" fill="#2F2E41"/>
<path d="M425.253 373.74C424.549 372.306 424.081 370.676 423.882 368.964C423.683 367.253 423.758 365.503 424.101 363.836C424.444 362.169 425.047 360.626 425.868 359.317C426.688 358.007 427.707 356.962 428.851 356.256L462.095 229.495L478.454 241.845L440.496 362.983C441.226 365.72 441.205 368.733 440.437 371.451C439.669 374.168 438.207 376.402 436.328 377.727C434.449 379.053 432.284 379.38 430.243 378.645C428.201 377.91 426.426 376.165 425.253 373.74Z" fill="#FFB8B8"/>
<path d="M517.976 397.559C516.89 396.697 515.953 395.515 515.231 394.098C514.51 392.681 514.023 391.062 513.803 389.356C513.583 387.65 513.636 385.898 513.958 384.223C514.28 382.548 514.864 380.992 515.669 379.663L505.37 245.571L523.986 246.747L528.267 378.644C529.791 380.662 530.727 383.382 530.898 386.291C531.069 389.199 530.463 392.093 529.194 394.425C527.926 396.756 526.083 398.363 524.016 398.94C521.948 399.518 519.799 399.026 517.976 397.559Z" fill="#FFB8B8"/>
<path d="M488.278 206.015C499.098 206.015 507.87 193.88 507.87 178.911C507.87 163.941 499.098 151.806 488.278 151.806C477.457 151.806 468.685 163.941 468.685 178.911C468.685 193.88 477.457 206.015 488.278 206.015Z" fill="#FFB8B8"/>
<path d="M517.851 367.062H458.784L458.855 366.426C458.961 365.476 469.382 271.036 461.696 240.14C460.925 237.104 460.993 233.78 461.887 230.809C462.781 227.838 464.437 225.429 466.538 224.047C477.524 216.89 498.612 208.077 516.41 229.464C519.03 232.663 521.075 236.661 522.384 241.142C523.694 245.623 524.232 250.464 523.956 255.283L517.851 367.062Z" fill="#FFD600"/>
<path d="M470.129 284.993L443.536 277.529L456.001 236.665C456.747 232.707 458.597 229.32 461.146 227.247C463.695 225.174 466.734 224.583 469.596 225.606C472.459 226.628 474.912 229.18 476.417 232.701C477.922 236.221 478.355 240.424 477.623 244.387L470.129 284.993Z" fill="#FFD600"/>
<path d="M504.187 298.851L502.589 248.152C501.376 238.622 505.32 229.612 511.385 228.139C517.452 226.672 523.376 233.282 524.594 242.883L530.603 290.256L504.187 298.851Z" fill="#FFD600"/>
<path d="M515.886 360.992C525.39 411.068 526.427 474.735 523.863 544.182L511.1 541.975L487.967 409.549L475.203 544.182L460.845 543.079C456.555 470.211 452.379 407.656 459.249 366.51L515.886 360.992Z" fill="#2F2E41"/>
<path d="M501.187 199.858C497.532 205.244 490.744 202.352 490.268 194.994C490.23 194.423 490.233 193.848 490.276 193.277C490.522 190.018 491.883 187.059 491.557 183.617C491.483 182.761 491.252 181.945 490.887 181.246C487.974 175.85 481.137 183.659 478.388 178.775C476.703 175.78 478.684 171.064 477.39 167.717C475.683 163.298 470.627 165.478 467.456 163.058C463.928 160.366 464.139 152.878 466.461 148.323C469.294 142.768 474.259 139.804 479.163 139.377C484.067 138.95 488.938 140.784 493.516 143.252C498.718 146.056 503.876 149.932 507.077 156.26C510.97 163.955 511.345 174.301 509.398 183.299C508.214 188.773 504.172 195.459 501.187 199.858Z" fill="#2F2E41"/>
<path d="M670.054 573.454H81.1163C80.8649 573.453 80.624 573.314 80.4465 573.067C80.2689 572.821 80.1693 572.487 80.1693 572.14C80.1693 571.792 80.2689 571.458 80.4465 571.212C80.624 570.966 80.8649 570.827 81.1163 570.826H670.054C670.306 570.827 670.547 570.966 670.724 571.212C670.902 571.458 671.001 571.792 671.001 572.14C671.001 572.487 670.902 572.821 670.724 573.067C670.547 573.314 670.306 573.453 670.054 573.454Z" fill="#3F3D56"/>
<path d="M374.122 453.008H270.421C269.055 453.018 267.742 452.279 266.77 450.951C265.798 449.624 265.246 447.818 265.236 445.929V125.711C265.246 123.822 265.798 122.016 266.77 120.688C267.742 119.361 269.055 118.622 270.421 118.632H374.122C375.488 118.622 376.8 119.361 377.772 120.688C378.745 122.016 379.296 123.822 379.307 125.711V445.929C379.296 447.818 378.745 449.624 377.772 450.951C376.8 452.279 375.488 453.018 374.122 453.008Z" fill="white"/>
<path d="M379.307 222.244H265.236V224.451H379.307V222.244Z" fill="#CCCCCC"/>
<path d="M379.706 348.171H265.634V350.378H379.706V348.171Z" fill="#CCCCCC"/>
<path d="M302.728 118.632H301.132V454.112H302.728V118.632Z" fill="#CCCCCC"/>
<path d="M342.613 118.632H341.017V454.112H342.613V118.632Z" fill="#CCCCCC"/>
</g>
<defs>
<clipPath id="clip0_32_32">
<rect width="694" height="574" fill="white"/>
</clipPath>
</defs>
</svg>
